<?xml version="1.0" encoding="utf-8" standalone="no"?>
<!DOCTYPE svg PUBLIC "-//W3C//DTD SVG 1.1//EN"
  "http://www.w3.org/Graphics/SVG/1.1/DTD/svg11.dtd">
<!-- Created with matplotlib (https://matplotlib.org/) -->
<svg height="354.24pt" version="1.1" viewBox="0 0 460.8 354.24" width="460.8pt" xmlns="http://www.w3.org/2000/svg" xmlns:xlink="http://www.w3.org/1999/xlink">
 <defs>
  <style type="text/css">
*{stroke-linecap:butt;stroke-linejoin:round;}
  </style>
 </defs>
 <g id="figure_1">
  <g id="patch_1">
   <path d="M 0 354.24 
L 460.8 354.24 
L 460.8 0 
L 0 0 
z
" style="fill:#ffffff;"/>
  </g>
  <g id="axes_1">
   <g id="patch_2">
    <path d="M 47.81 326.36 
L 450 326.36 
L 450 10.8 
L 47.81 10.8 
z
" style="fill:#ffffff;"/>
   </g>
   <g id="matplotlib.axis_1">
    <g id="xtick_1">
     <g id="line2d_1">
      <defs>
       <path d="M 0 0 
L 0 3.5 
" id="m895863c548" style="stroke:#000000;stroke-width:0.8;"/>
      </defs>
      <g>
       <use style="stroke:#000000;stroke-width:0.8;" x="148.3575" xlink:href="#m895863c548" y="326.36"/>
      </g>
     </g>
     <g id="text_1">
      <text style="font-family:Arial;font-size:10px;font-style:normal;font-weight:normal;text-anchor:middle;" transform="rotate(-0, 148.3575, 340.517812)" x="148.3575" y="340.517812">novel</text>
     </g>
    </g>
    <g id="xtick_2">
     <g id="line2d_2">
      <g>
       <use style="stroke:#000000;stroke-width:0.8;" x="349.4525" xlink:href="#m895863c548" y="326.36"/>
      </g>
     </g>
     <g id="text_2">
      <text style="font-family:Arial;font-size:10px;font-style:normal;font-weight:normal;text-anchor:middle;" transform="rotate(-0, 349.4525, 340.517812)" x="349.4525" y="340.517812">not novel</text>
     </g>
    </g>
   </g>
   <g id="matplotlib.axis_2">
    <g id="ytick_1">
     <g id="line2d_3">
      <defs>
       <path d="M 0 0 
L -3.5 0 
" id="m823e5cf311" style="stroke:#000000;stroke-width:0.8;"/>
      </defs>
      <g>
       <use style="stroke:#000000;stroke-width:0.8;" x="47.81" xlink:href="#m823e5cf311" y="310.277716"/>
      </g>
     </g>
     <g id="text_3">
      <text style="font-family:Arial;font-size:10px;font-style:normal;font-weight:normal;text-anchor:end;" transform="rotate(-0, 40.81, 313.856623)" x="40.81" y="313.856623">0.0</text>
     </g>
    </g>
    <g id="ytick_2">
     <g id="line2d_4">
      <g>
       <use style="stroke:#000000;stroke-width:0.8;" x="47.81" xlink:href="#m823e5cf311" y="249.88678"/>
      </g>
     </g>
     <g id="text_4">
      <text style="font-family:Arial;font-size:10px;font-style:normal;font-weight:normal;text-anchor:end;" transform="rotate(-0, 40.81, 253.465686)" x="40.81" y="253.465686">0.2</text>
     </g>
    </g>
    <g id="ytick_3">
     <g id="line2d_5">
      <g>
       <use style="stroke:#000000;stroke-width:0.8;" x="47.81" xlink:href="#m823e5cf311" y="189.495844"/>
      </g>
     </g>
     <g id="text_5">
      <text style="font-family:Arial;font-size:10px;font-style:normal;font-weight:normal;text-anchor:end;" transform="rotate(-0, 40.81, 193.07475)" x="40.81" y="193.07475">0.4</text>
     </g>
    </g>
    <g id="ytick_4">
     <g id="line2d_6">
      <g>
       <use style="stroke:#000000;stroke-width:0.8;" x="47.81" xlink:href="#m823e5cf311" y="129.104907"/>
      </g>
     </g>
     <g id="text_6">
      <text style="font-family:Arial;font-size:10px;font-style:normal;font-weight:normal;text-anchor:end;" transform="rotate(-0, 40.81, 132.683813)" x="40.81" y="132.683813">0.6</text>
     </g>
    </g>
    <g id="ytick_5">
     <g id="line2d_7">
      <g>
       <use style="stroke:#000000;stroke-width:0.8;" x="47.81" xlink:href="#m823e5cf311" y="68.713971"/>
      </g>
     </g>
     <g id="text_7">
      <text style="font-family:Arial;font-size:10px;font-style:normal;font-weight:normal;text-anchor:end;" transform="rotate(-0, 40.81, 72.292877)" x="40.81" y="72.292877">0.8</text>
     </g>
    </g>
    <g id="text_8">
     <text style="font-family:Arial;font-size:10px;font-style:normal;font-weight:normal;text-anchor:middle;" transform="rotate(-90, 20.805313, 168.58)" x="20.805313" y="168.58">novelty score</text>
    </g>
   </g>
   <g id="patch_3">
    <path d="M 47.81 326.36 
L 47.81 10.8 
" style="fill:none;stroke:#000000;stroke-linecap:square;stroke-linejoin:miter;stroke-width:0.8;"/>
   </g>
   <g id="patch_4">
    <path d="M 450 326.36 
L 450 10.8 
" style="fill:none;stroke:#000000;stroke-linecap:square;stroke-linejoin:miter;stroke-width:0.8;"/>
   </g>
   <g id="patch_5">
    <path d="M 47.81 326.36 
L 450 326.36 
" style="fill:none;stroke:#000000;stroke-linecap:square;stroke-linejoin:miter;stroke-width:0.8;"/>
   </g>
   <g id="patch_6">
    <path d="M 47.81 10.8 
L 450 10.8 
" style="fill:none;stroke:#000000;stroke-linecap:square;stroke-linejoin:miter;stroke-width:0.8;"/>
   </g>
   <g id="PathCollection_1">
    <defs>
     <path d="M 0 2.5 
C 0.663008 2.5 1.29895 2.236584 1.767767 1.767767 
C 2.236584 1.29895 2.5 0.663008 2.5 0 
C 2.5 -0.663008 2.236584 -1.29895 1.767767 -1.767767 
C 1.29895 -2.236584 0.663008 -2.5 0 -2.5 
C -0.663008 -2.5 -1.29895 -2.236584 -1.767767 -1.767767 
C -2.236584 -1.29895 -2.5 -0.663008 -2.5 0 
C -2.5 0.663008 -2.236584 1.29895 -1.767767 1.767767 
C -1.29895 2.236584 -0.663008 2.5 0 2.5 
z
" id="C0_0_b25fd5ee04"/>
    </defs>
    <g clip-path="url(#pe4df923ce7)">
     <use style="fill:#1f77b4;" x="148.3575" xlink:href="#C0_0_b25fd5ee04" y="262.667045"/>
    </g>
    <g clip-path="url(#pe4df923ce7)">
     <use style="fill:#1f77b4;" x="148.3575" xlink:href="#C0_0_b25fd5ee04" y="42.483897"/>
    </g>
    <g clip-path="url(#pe4df923ce7)">
     <use style="fill:#1f77b4;" x="142.444929" xlink:href="#C0_0_b25fd5ee04" y="42.483897"/>
    </g>
    <g clip-path="url(#pe4df923ce7)">
     <use style="fill:#1f77b4;" x="154.270071" xlink:href="#C0_0_b25fd5ee04" y="42.483897"/>
    </g>
    <g clip-path="url(#pe4df923ce7)">
     <use style="fill:#1f77b4;" x="136.532357" xlink:href="#C0_0_b25fd5ee04" y="42.483897"/>
    </g>
    <g clip-path="url(#pe4df923ce7)">
     <use style="fill:#1f77b4;" x="160.182643" xlink:href="#C0_0_b25fd5ee04" y="42.483897"/>
    </g>
    <g clip-path="url(#pe4df923ce7)">
     <use style="fill:#1f77b4;" x="130.619786" xlink:href="#C0_0_b25fd5ee04" y="42.483897"/>
    </g>
    <g clip-path="url(#pe4df923ce7)">
     <use style="fill:#1f77b4;" x="166.089798" xlink:href="#C0_0_b25fd5ee04" y="42.236355"/>
    </g>
    <g clip-path="url(#pe4df923ce7)">
     <use style="fill:#1f77b4;" x="124.780456" xlink:href="#C0_0_b25fd5ee04" y="41.576241"/>
    </g>
    <g clip-path="url(#pe4df923ce7)">
     <use style="fill:#1f77b4;" x="171.813623" xlink:href="#C0_0_b25fd5ee04" y="40.786463"/>
    </g>
    <g clip-path="url(#pe4df923ce7)">
     <use style="fill:#1f77b4;" x="146.142998" xlink:href="#C0_0_b25fd5ee04" y="37.120477"/>
    </g>
    <g clip-path="url(#pe4df923ce7)">
     <use style="fill:#1f77b4;" x="152.055569" xlink:href="#C0_0_b25fd5ee04" y="37.120477"/>
    </g>
    <g clip-path="url(#pe4df923ce7)">
     <use style="fill:#1f77b4;" x="140.839939" xlink:href="#C0_0_b25fd5ee04" y="34.562538"/>
    </g>
    <g clip-path="url(#pe4df923ce7)">
     <use style="fill:#1f77b4;" x="156.283928" xlink:href="#C0_0_b25fd5ee04" y="33.077283"/>
    </g>
    <g clip-path="url(#pe4df923ce7)">
     <use style="fill:#1f77b4;" x="135.125594" xlink:href="#C0_0_b25fd5ee04" y="33.077283"/>
    </g>
    <g clip-path="url(#pe4df923ce7)">
     <use style="fill:#1f77b4;" x="148.3575" xlink:href="#C0_0_b25fd5ee04" y="27.136263"/>
    </g>
    <g clip-path="url(#pe4df923ce7)">
     <use style="fill:#1f77b4;" x="142.444929" xlink:href="#C0_0_b25fd5ee04" y="27.136263"/>
    </g>
   </g>
   <g id="PathCollection_2">
    <defs>
     <path d="M 0 2.5 
C 0.663008 2.5 1.29895 2.236584 1.767767 1.767767 
C 2.236584 1.29895 2.5 0.663008 2.5 0 
C 2.5 -0.663008 2.236584 -1.29895 1.767767 -1.767767 
C 1.29895 -2.236584 0.663008 -2.5 0 -2.5 
C -0.663008 -2.5 -1.29895 -2.236584 -1.767767 -1.767767 
C -2.236584 -1.29895 -2.5 -0.663008 -2.5 0 
C -2.5 0.663008 -2.236584 1.29895 -1.767767 1.767767 
C -1.29895 2.236584 -0.663008 2.5 0 2.5 
z
" id="C1_0_7137745ab7"/>
    </defs>
    <g clip-path="url(#pe4df923ce7)">
     <use style="fill:#ff7f0e;" x="349.4525" xlink:href="#C1_0_7137745ab7" y="310.277716"/>
    </g>
    <g clip-path="url(#pe4df923ce7)">
     <use style="fill:#ff7f0e;" x="343.539929" xlink:href="#C1_0_7137745ab7" y="310.277716"/>
    </g>
    <g clip-path="url(#pe4df923ce7)">
     <use style="fill:#ff7f0e;" x="349.4525" xlink:href="#C1_0_7137745ab7" y="284.038213"/>
    </g>
    <g clip-path="url(#pe4df923ce7)">
     <use style="fill:#ff7f0e;" x="349.4525" xlink:href="#C1_0_7137745ab7" y="207.217528"/>
    </g>
    <g clip-path="url(#pe4df923ce7)">
     <use style="fill:#ff7f0e;" x="343.578554" xlink:href="#C1_0_7137745ab7" y="206.557415"/>
    </g>
    <g clip-path="url(#pe4df923ce7)">
     <use style="fill:#ff7f0e;" x="349.4525" xlink:href="#C1_0_7137745ab7" y="142.113854"/>
    </g>
    <g clip-path="url(#pe4df923ce7)">
     <use style="fill:#ff7f0e;" x="349.4525" xlink:href="#C1_0_7137745ab7" y="111.13568"/>
    </g>
    <g clip-path="url(#pe4df923ce7)">
     <use style="fill:#ff7f0e;" x="349.4525" xlink:href="#C1_0_7137745ab7" y="101.18683"/>
    </g>
    <g clip-path="url(#pe4df923ce7)">
     <use style="fill:#ff7f0e;" x="349.4525" xlink:href="#C1_0_7137745ab7" y="42.483897"/>
    </g>
    <g clip-path="url(#pe4df923ce7)">
     <use style="fill:#ff7f0e;" x="343.545345" xlink:href="#C1_0_7137745ab7" y="42.236355"/>
    </g>
    <g clip-path="url(#pe4df923ce7)">
     <use style="fill:#ff7f0e;" x="355.291829" xlink:href="#C1_0_7137745ab7" y="41.576241"/>
    </g>
    <g clip-path="url(#pe4df923ce7)">
     <use style="fill:#ff7f0e;" x="361.204401" xlink:href="#C1_0_7137745ab7" y="41.576241"/>
    </g>
    <g clip-path="url(#pe4df923ce7)">
     <use style="fill:#ff7f0e;" x="349.4525" xlink:href="#C1_0_7137745ab7" y="34.562538"/>
    </g>
    <g clip-path="url(#pe4df923ce7)">
     <use style="fill:#ff7f0e;" x="343.539929" xlink:href="#C1_0_7137745ab7" y="34.562538"/>
    </g>
    <g clip-path="url(#pe4df923ce7)">
     <use style="fill:#ff7f0e;" x="355.166844" xlink:href="#C1_0_7137745ab7" y="33.077283"/>
    </g>
    <g clip-path="url(#pe4df923ce7)">
     <use style="fill:#ff7f0e;" x="337.825584" xlink:href="#C1_0_7137745ab7" y="33.077283"/>
    </g>
   </g>
  </g>
 </g>
 <defs>
  <clipPath id="pe4df923ce7">
   <rect height="315.56" width="402.19" x="47.81" y="10.8"/>
  </clipPath>
 </defs>
</svg>
