<?xml version="1.0" encoding="utf-8" standalone="no"?>
<!DOCTYPE svg PUBLIC "-//W3C//DTD SVG 1.1//EN"
  "http://www.w3.org/Graphics/SVG/1.1/DTD/svg11.dtd">
<!-- Created with matplotlib (https://matplotlib.org/) -->
<svg height="354.24pt" version="1.1" viewBox="0 0 460.8 354.24" width="460.8pt" xmlns="http://www.w3.org/2000/svg" xmlns:xlink="http://www.w3.org/1999/xlink">
 <defs>
  <style type="text/css">
*{stroke-linecap:butt;stroke-linejoin:round;}
  </style>
 </defs>
 <g id="figure_1">
  <g id="patch_1">
   <path d="M 0 354.24 
L 460.8 354.24 
L 460.8 0 
L 0 0 
z
" style="fill:#ffffff;"/>
  </g>
  <g id="axes_1">
   <g id="patch_2">
    <path d="M 57.6 315.2736 
L 414.72 315.2736 
L 414.72 42.5088 
L 57.6 42.5088 
z
" style="fill:#eaeaf2;"/>
   </g>
   <g id="matplotlib.axis_1">
    <g id="xtick_1">
     <g id="line2d_1">
      <path clip-path="url(#pf5b42846ea)" d="M 66.313257 315.2736 
L 66.313257 42.5088 
" style="fill:none;stroke:#ffffff;stroke-linecap:round;"/>
     </g>
     <g id="text_1">
      <text style="fill:#262626;font-family:Arial;font-size:7.7px;font-style:normal;font-weight:normal;text-anchor:middle;" transform="rotate(-0, 66.313257, 330.285116)" x="66.313257" y="330.285116">0.00</text>
     </g>
    </g>
    <g id="xtick_2">
     <g id="line2d_2">
      <path clip-path="url(#pf5b42846ea)" d="M 112.115834 315.2736 
L 112.115834 42.5088 
" style="fill:none;stroke:#ffffff;stroke-linecap:round;"/>
     </g>
     <g id="text_2">
      <text style="fill:#262626;font-family:Arial;font-size:7.7px;font-style:normal;font-weight:normal;text-anchor:middle;" transform="rotate(-0, 112.115834, 330.285116)" x="112.115834" y="330.285116">0.25</text>
     </g>
    </g>
    <g id="xtick_3">
     <g id="line2d_3">
      <path clip-path="url(#pf5b42846ea)" d="M 157.918412 315.2736 
L 157.918412 42.5088 
" style="fill:none;stroke:#ffffff;stroke-linecap:round;"/>
     </g>
     <g id="text_3">
      <text style="fill:#262626;font-family:Arial;font-size:7.7px;font-style:normal;font-weight:normal;text-anchor:middle;" transform="rotate(-0, 157.918412, 330.285116)" x="157.918412" y="330.285116">0.50</text>
     </g>
    </g>
    <g id="xtick_4">
     <g id="line2d_4">
      <path clip-path="url(#pf5b42846ea)" d="M 203.72099 315.2736 
L 203.72099 42.5088 
" style="fill:none;stroke:#ffffff;stroke-linecap:round;"/>
     </g>
     <g id="text_4">
      <text style="fill:#262626;font-family:Arial;font-size:7.7px;font-style:normal;font-weight:normal;text-anchor:middle;" transform="rotate(-0, 203.72099, 330.285116)" x="203.72099" y="330.285116">0.75</text>
     </g>
    </g>
    <g id="xtick_5">
     <g id="line2d_5">
      <path clip-path="url(#pf5b42846ea)" d="M 249.523568 315.2736 
L 249.523568 42.5088 
" style="fill:none;stroke:#ffffff;stroke-linecap:round;"/>
     </g>
     <g id="text_5">
      <text style="fill:#262626;font-family:Arial;font-size:7.7px;font-style:normal;font-weight:normal;text-anchor:middle;" transform="rotate(-0, 249.523568, 330.285116)" x="249.523568" y="330.285116">1.00</text>
     </g>
    </g>
    <g id="xtick_6">
     <g id="line2d_6">
      <path clip-path="url(#pf5b42846ea)" d="M 295.326145 315.2736 
L 295.326145 42.5088 
" style="fill:none;stroke:#ffffff;stroke-linecap:round;"/>
     </g>
     <g id="text_6">
      <text style="fill:#262626;font-family:Arial;font-size:7.7px;font-style:normal;font-weight:normal;text-anchor:middle;" transform="rotate(-0, 295.326145, 330.285116)" x="295.326145" y="330.285116">1.25</text>
     </g>
    </g>
    <g id="xtick_7">
     <g id="line2d_7">
      <path clip-path="url(#pf5b42846ea)" d="M 341.128723 315.2736 
L 341.128723 42.5088 
" style="fill:none;stroke:#ffffff;stroke-linecap:round;"/>
     </g>
     <g id="text_7">
      <text style="fill:#262626;font-family:Arial;font-size:7.7px;font-style:normal;font-weight:normal;text-anchor:middle;" transform="rotate(-0, 341.128723, 330.285116)" x="341.128723" y="330.285116">1.50</text>
     </g>
    </g>
    <g id="xtick_8">
     <g id="line2d_8">
      <path clip-path="url(#pf5b42846ea)" d="M 386.931301 315.2736 
L 386.931301 42.5088 
" style="fill:none;stroke:#ffffff;stroke-linecap:round;"/>
     </g>
     <g id="text_8">
      <text style="fill:#262626;font-family:Arial;font-size:7.7px;font-style:normal;font-weight:normal;text-anchor:middle;" transform="rotate(-0, 386.931301, 330.285116)" x="386.931301" y="330.285116">1.75</text>
     </g>
    </g>
    <g id="text_9">
     <text style="fill:#262626;font-family:Arial;font-size:8.4px;font-style:normal;font-weight:normal;text-anchor:middle;" transform="rotate(-0, 236.16, 341.828053)" x="236.16" y="341.828053">Hierachical clustering distance</text>
    </g>
   </g>
   <g id="matplotlib.axis_2">
    <g id="ytick_1">
     <g id="line2d_9">
      <path clip-path="url(#pf5b42846ea)" d="M 57.6 289.219498 
L 414.72 289.219498 
" style="fill:none;stroke:#ffffff;stroke-linecap:round;"/>
     </g>
     <g id="text_10">
      <text style="fill:#262626;font-family:Arial;font-size:7.7px;font-style:normal;font-weight:normal;text-anchor:end;" transform="rotate(-0, 48.1, 291.975256)" x="48.1" y="291.975256">0.2</text>
     </g>
    </g>
    <g id="ytick_2">
     <g id="line2d_10">
      <path clip-path="url(#pf5b42846ea)" d="M 57.6 230.641423 
L 414.72 230.641423 
" style="fill:none;stroke:#ffffff;stroke-linecap:round;"/>
     </g>
     <g id="text_11">
      <text style="fill:#262626;font-family:Arial;font-size:7.7px;font-style:normal;font-weight:normal;text-anchor:end;" transform="rotate(-0, 48.1, 233.397181)" x="48.1" y="233.397181">0.4</text>
     </g>
    </g>
    <g id="ytick_3">
     <g id="line2d_11">
      <path clip-path="url(#pf5b42846ea)" d="M 57.6 172.063349 
L 414.72 172.063349 
" style="fill:none;stroke:#ffffff;stroke-linecap:round;"/>
     </g>
     <g id="text_12">
      <text style="fill:#262626;font-family:Arial;font-size:7.7px;font-style:normal;font-weight:normal;text-anchor:end;" transform="rotate(-0, 48.1, 174.819107)" x="48.1" y="174.819107">0.6</text>
     </g>
    </g>
    <g id="ytick_4">
     <g id="line2d_12">
      <path clip-path="url(#pf5b42846ea)" d="M 57.6 113.485274 
L 414.72 113.485274 
" style="fill:none;stroke:#ffffff;stroke-linecap:round;"/>
     </g>
     <g id="text_13">
      <text style="fill:#262626;font-family:Arial;font-size:7.7px;font-style:normal;font-weight:normal;text-anchor:end;" transform="rotate(-0, 48.1, 116.241032)" x="48.1" y="116.241032">0.8</text>
     </g>
    </g>
    <g id="ytick_5">
     <g id="line2d_13">
      <path clip-path="url(#pf5b42846ea)" d="M 57.6 54.9072 
L 414.72 54.9072 
" style="fill:none;stroke:#ffffff;stroke-linecap:round;"/>
     </g>
     <g id="text_14">
      <text style="fill:#262626;font-family:Arial;font-size:7.7px;font-style:normal;font-weight:normal;text-anchor:end;" transform="rotate(-0, 48.1, 57.662958)" x="48.1" y="57.662958">1.0</text>
     </g>
    </g>
    <g id="text_15">
     <text style="fill:#262626;font-family:Arial;font-size:8.4px;font-style:normal;font-weight:normal;text-anchor:middle;" transform="rotate(-90, 31.629063, 178.8912)" x="31.629063" y="178.8912">Cluster purity</text>
    </g>
   </g>
   <g id="LineCollection_1">
    <path clip-path="url(#pf5b42846ea)" d="M 73.832727 55.739086 
L 73.832727 55.330162 
" style="fill:none;stroke:#808080;stroke-width:1.5;"/>
    <path clip-path="url(#pf5b42846ea)" d="M 75.007493 56.447828 
L 75.007493 55.879044 
" style="fill:none;stroke:#808080;stroke-width:1.5;"/>
    <path clip-path="url(#pf5b42846ea)" d="M 75.388634 57.125393 
L 75.388634 56.414683 
" style="fill:none;stroke:#808080;stroke-width:1.5;"/>
    <path clip-path="url(#pf5b42846ea)" d="M 75.729118 57.808832 
L 75.729118 56.945837 
" style="fill:none;stroke:#808080;stroke-width:1.5;"/>
    <path clip-path="url(#pf5b42846ea)" d="M 77.051491 58.482458 
L 77.051491 57.524283 
" style="fill:none;stroke:#808080;stroke-width:1.5;"/>
    <path clip-path="url(#pf5b42846ea)" d="M 78.702228 59.128134 
L 78.702228 58.134843 
" style="fill:none;stroke:#808080;stroke-width:1.5;"/>
    <path clip-path="url(#pf5b42846ea)" d="M 78.95989 59.815749 
L 78.95989 58.681254 
" style="fill:none;stroke:#808080;stroke-width:1.5;"/>
    <path clip-path="url(#pf5b42846ea)" d="M 79.254801 60.446627 
L 79.254801 59.142815 
" style="fill:none;stroke:#808080;stroke-width:1.5;"/>
    <path clip-path="url(#pf5b42846ea)" d="M 80.557 61.101519 
L 80.557 59.744159 
" style="fill:none;stroke:#808080;stroke-width:1.5;"/>
    <path clip-path="url(#pf5b42846ea)" d="M 80.728947 61.716467 
L 80.728947 60.364626 
" style="fill:none;stroke:#808080;stroke-width:1.5;"/>
    <path clip-path="url(#pf5b42846ea)" d="M 80.929095 62.411606 
L 80.929095 60.946545 
" style="fill:none;stroke:#808080;stroke-width:1.5;"/>
    <path clip-path="url(#pf5b42846ea)" d="M 80.942398 62.995392 
L 80.942398 61.532932 
" style="fill:none;stroke:#808080;stroke-width:1.5;"/>
    <path clip-path="url(#pf5b42846ea)" d="M 81.135236 63.674618 
L 81.135236 62.05997 
" style="fill:none;stroke:#808080;stroke-width:1.5;"/>
    <path clip-path="url(#pf5b42846ea)" d="M 81.364529 64.304672 
L 81.364529 62.684763 
" style="fill:none;stroke:#808080;stroke-width:1.5;"/>
    <path clip-path="url(#pf5b42846ea)" d="M 81.715042 64.782039 
L 81.715042 63.045813 
" style="fill:none;stroke:#808080;stroke-width:1.5;"/>
    <path clip-path="url(#pf5b42846ea)" d="M 81.773591 65.421558 
L 81.773591 63.61117 
" style="fill:none;stroke:#808080;stroke-width:1.5;"/>
    <path clip-path="url(#pf5b42846ea)" d="M 82.167705 66.060898 
L 82.167705 64.300248 
" style="fill:none;stroke:#808080;stroke-width:1.5;"/>
    <path clip-path="url(#pf5b42846ea)" d="M 82.279951 66.721196 
L 82.279951 64.811511 
" style="fill:none;stroke:#808080;stroke-width:1.5;"/>
    <path clip-path="url(#pf5b42846ea)" d="M 82.317325 67.369252 
L 82.317325 65.465499 
" style="fill:none;stroke:#808080;stroke-width:1.5;"/>
    <path clip-path="url(#pf5b42846ea)" d="M 83.138838 68.00857 
L 83.138838 66.078252 
" style="fill:none;stroke:#808080;stroke-width:1.5;"/>
    <path clip-path="url(#pf5b42846ea)" d="M 83.590464 68.638401 
L 83.590464 66.572787 
" style="fill:none;stroke:#808080;stroke-width:1.5;"/>
    <path clip-path="url(#pf5b42846ea)" d="M 84.041224 69.233138 
L 84.041224 67.085758 
" style="fill:none;stroke:#808080;stroke-width:1.5;"/>
    <path clip-path="url(#pf5b42846ea)" d="M 84.046357 69.907459 
L 84.046357 67.748184 
" style="fill:none;stroke:#808080;stroke-width:1.5;"/>
    <path clip-path="url(#pf5b42846ea)" d="M 85.369864 70.477882 
L 85.369864 68.253542 
" style="fill:none;stroke:#808080;stroke-width:1.5;"/>
    <path clip-path="url(#pf5b42846ea)" d="M 85.617031 71.043233 
L 85.617031 68.793124 
" style="fill:none;stroke:#808080;stroke-width:1.5;"/>
    <path clip-path="url(#pf5b42846ea)" d="M 85.694014 71.78634 
L 85.694014 69.511693 
" style="fill:none;stroke:#808080;stroke-width:1.5;"/>
    <path clip-path="url(#pf5b42846ea)" d="M 85.719704 72.429455 
L 85.719704 70.079006 
" style="fill:none;stroke:#808080;stroke-width:1.5;"/>
    <path clip-path="url(#pf5b42846ea)" d="M 86.035998 73.024838 
L 86.035998 70.727366 
" style="fill:none;stroke:#808080;stroke-width:1.5;"/>
    <path clip-path="url(#pf5b42846ea)" d="M 86.402445 73.664607 
L 86.402445 71.213351 
" style="fill:none;stroke:#808080;stroke-width:1.5;"/>
    <path clip-path="url(#pf5b42846ea)" d="M 86.446906 74.172688 
L 86.446906 71.763007 
" style="fill:none;stroke:#808080;stroke-width:1.5;"/>
    <path clip-path="url(#pf5b42846ea)" d="M 86.749094 74.828205 
L 86.749094 72.356785 
" style="fill:none;stroke:#808080;stroke-width:1.5;"/>
    <path clip-path="url(#pf5b42846ea)" d="M 86.860549 75.38184 
L 86.860549 72.885874 
" style="fill:none;stroke:#808080;stroke-width:1.5;"/>
    <path clip-path="url(#pf5b42846ea)" d="M 86.995525 76.000904 
L 86.995525 73.342592 
" style="fill:none;stroke:#808080;stroke-width:1.5;"/>
    <path clip-path="url(#pf5b42846ea)" d="M 87.492338 76.654271 
L 87.492338 74.012089 
" style="fill:none;stroke:#808080;stroke-width:1.5;"/>
    <path clip-path="url(#pf5b42846ea)" d="M 87.619326 77.182399 
L 87.619326 74.579177 
" style="fill:none;stroke:#808080;stroke-width:1.5;"/>
    <path clip-path="url(#pf5b42846ea)" d="M 88.019188 77.775729 
L 88.019188 75.108825 
" style="fill:none;stroke:#808080;stroke-width:1.5;"/>
    <path clip-path="url(#pf5b42846ea)" d="M 88.459564 78.447387 
L 88.459564 75.565698 
" style="fill:none;stroke:#808080;stroke-width:1.5;"/>
    <path clip-path="url(#pf5b42846ea)" d="M 88.528051 78.979267 
L 88.528051 76.191497 
" style="fill:none;stroke:#808080;stroke-width:1.5;"/>
    <path clip-path="url(#pf5b42846ea)" d="M 88.663893 79.607668 
L 88.663893 76.840154 
" style="fill:none;stroke:#808080;stroke-width:1.5;"/>
    <path clip-path="url(#pf5b42846ea)" d="M 88.957138 80.2831 
L 88.957138 77.354329 
" style="fill:none;stroke:#808080;stroke-width:1.5;"/>
    <path clip-path="url(#pf5b42846ea)" d="M 90.144889 80.758982 
L 90.144889 78.000036 
" style="fill:none;stroke:#808080;stroke-width:1.5;"/>
    <path clip-path="url(#pf5b42846ea)" d="M 90.347233 81.38192 
L 90.347233 78.513957 
" style="fill:none;stroke:#808080;stroke-width:1.5;"/>
    <path clip-path="url(#pf5b42846ea)" d="M 90.439727 82.152654 
L 90.439727 79.195182 
" style="fill:none;stroke:#808080;stroke-width:1.5;"/>
    <path clip-path="url(#pf5b42846ea)" d="M 90.840951 82.765686 
L 90.840951 79.757876 
" style="fill:none;stroke:#808080;stroke-width:1.5;"/>
    <path clip-path="url(#pf5b42846ea)" d="M 91.088274 83.443439 
L 91.088274 80.396048 
" style="fill:none;stroke:#808080;stroke-width:1.5;"/>
    <path clip-path="url(#pf5b42846ea)" d="M 91.328152 83.856263 
L 91.328152 80.829969 
" style="fill:none;stroke:#808080;stroke-width:1.5;"/>
    <path clip-path="url(#pf5b42846ea)" d="M 91.413604 84.232643 
L 91.413604 81.176792 
" style="fill:none;stroke:#808080;stroke-width:1.5;"/>
    <path clip-path="url(#pf5b42846ea)" d="M 91.47602 84.859832 
L 91.47602 81.810002 
" style="fill:none;stroke:#808080;stroke-width:1.5;"/>
    <path clip-path="url(#pf5b42846ea)" d="M 91.738036 85.452043 
L 91.738036 82.349098 
" style="fill:none;stroke:#808080;stroke-width:1.5;"/>
    <path clip-path="url(#pf5b42846ea)" d="M 91.917345 85.991884 
L 91.917345 83.018298 
" style="fill:none;stroke:#808080;stroke-width:1.5;"/>
    <path clip-path="url(#pf5b42846ea)" d="M 91.936842 86.694453 
L 91.936842 83.459528 
" style="fill:none;stroke:#808080;stroke-width:1.5;"/>
    <path clip-path="url(#pf5b42846ea)" d="M 92.299046 87.306086 
L 92.299046 84.211015 
" style="fill:none;stroke:#808080;stroke-width:1.5;"/>
    <path clip-path="url(#pf5b42846ea)" d="M 92.53925 87.999856 
L 92.53925 84.865097 
" style="fill:none;stroke:#808080;stroke-width:1.5;"/>
    <path clip-path="url(#pf5b42846ea)" d="M 92.941777 88.491478 
L 92.941777 85.310446 
" style="fill:none;stroke:#808080;stroke-width:1.5;"/>
    <path clip-path="url(#pf5b42846ea)" d="M 93.076184 89.283076 
L 93.076184 85.898625 
" style="fill:none;stroke:#808080;stroke-width:1.5;"/>
    <path clip-path="url(#pf5b42846ea)" d="M 93.269464 89.893951 
L 93.269464 86.452371 
" style="fill:none;stroke:#808080;stroke-width:1.5;"/>
    <path clip-path="url(#pf5b42846ea)" d="M 93.589736 90.599663 
L 93.589736 87.1306 
" style="fill:none;stroke:#808080;stroke-width:1.5;"/>
    <path clip-path="url(#pf5b42846ea)" d="M 93.626797 90.858093 
L 93.626797 87.574552 
" style="fill:none;stroke:#808080;stroke-width:1.5;"/>
    <path clip-path="url(#pf5b42846ea)" d="M 94.369899 91.47583 
L 94.369899 88.106167 
" style="fill:none;stroke:#808080;stroke-width:1.5;"/>
    <path clip-path="url(#pf5b42846ea)" d="M 94.418466 91.791328 
L 94.418466 88.466677 
" style="fill:none;stroke:#808080;stroke-width:1.5;"/>
    <path clip-path="url(#pf5b42846ea)" d="M 94.56163 92.33333 
L 94.56163 88.914394 
" style="fill:none;stroke:#808080;stroke-width:1.5;"/>
    <path clip-path="url(#pf5b42846ea)" d="M 94.617923 92.760132 
L 94.617923 89.282977 
" style="fill:none;stroke:#808080;stroke-width:1.5;"/>
    <path clip-path="url(#pf5b42846ea)" d="M 94.811915 93.350372 
L 94.811915 89.887896 
" style="fill:none;stroke:#808080;stroke-width:1.5;"/>
    <path clip-path="url(#pf5b42846ea)" d="M 94.822557 93.952326 
L 94.822557 90.389487 
" style="fill:none;stroke:#808080;stroke-width:1.5;"/>
    <path clip-path="url(#pf5b42846ea)" d="M 95.668682 94.677623 
L 95.668682 91.270228 
" style="fill:none;stroke:#808080;stroke-width:1.5;"/>
    <path clip-path="url(#pf5b42846ea)" d="M 95.904009 95.118126 
L 95.904009 91.598736 
" style="fill:none;stroke:#808080;stroke-width:1.5;"/>
    <path clip-path="url(#pf5b42846ea)" d="M 95.942963 95.581991 
L 95.942963 92.067678 
" style="fill:none;stroke:#808080;stroke-width:1.5;"/>
    <path clip-path="url(#pf5b42846ea)" d="M 96.205798 96.197709 
L 96.205798 92.631851 
" style="fill:none;stroke:#808080;stroke-width:1.5;"/>
    <path clip-path="url(#pf5b42846ea)" d="M 96.337328 96.819903 
L 96.337328 93.295043 
" style="fill:none;stroke:#808080;stroke-width:1.5;"/>
    <path clip-path="url(#pf5b42846ea)" d="M 96.856913 97.524337 
L 96.856913 93.887099 
" style="fill:none;stroke:#808080;stroke-width:1.5;"/>
    <path clip-path="url(#pf5b42846ea)" d="M 97.268562 98.132075 
L 97.268562 94.446759 
" style="fill:none;stroke:#808080;stroke-width:1.5;"/>
    <path clip-path="url(#pf5b42846ea)" d="M 97.525074 98.631396 
L 97.525074 95.078745 
" style="fill:none;stroke:#808080;stroke-width:1.5;"/>
    <path clip-path="url(#pf5b42846ea)" d="M 97.649567 99.447217 
L 97.649567 95.505278 
" style="fill:none;stroke:#808080;stroke-width:1.5;"/>
    <path clip-path="url(#pf5b42846ea)" d="M 97.749896 99.934462 
L 97.749896 96.125742 
" style="fill:none;stroke:#808080;stroke-width:1.5;"/>
    <path clip-path="url(#pf5b42846ea)" d="M 97.80591 100.387518 
L 97.80591 96.568014 
" style="fill:none;stroke:#808080;stroke-width:1.5;"/>
    <path clip-path="url(#pf5b42846ea)" d="M 97.86948 101.024656 
L 97.86948 97.091333 
" style="fill:none;stroke:#808080;stroke-width:1.5;"/>
    <path clip-path="url(#pf5b42846ea)" d="M 97.881599 101.47837 
L 97.881599 97.607905 
" style="fill:none;stroke:#808080;stroke-width:1.5;"/>
    <path clip-path="url(#pf5b42846ea)" d="M 98.024753 102.247729 
L 98.024753 98.258578 
" style="fill:none;stroke:#808080;stroke-width:1.5;"/>
    <path clip-path="url(#pf5b42846ea)" d="M 98.059519 102.911556 
L 98.059519 98.95926 
" style="fill:none;stroke:#808080;stroke-width:1.5;"/>
    <path clip-path="url(#pf5b42846ea)" d="M 98.305747 103.431688 
L 98.305747 99.444117 
" style="fill:none;stroke:#808080;stroke-width:1.5;"/>
    <path clip-path="url(#pf5b42846ea)" d="M 98.619779 103.976261 
L 98.619779 100.019745 
" style="fill:none;stroke:#808080;stroke-width:1.5;"/>
    <path clip-path="url(#pf5b42846ea)" d="M 98.747368 104.563331 
L 98.747368 100.655597 
" style="fill:none;stroke:#808080;stroke-width:1.5;"/>
    <path clip-path="url(#pf5b42846ea)" d="M 99.131982 105.034572 
L 99.131982 101.204613 
" style="fill:none;stroke:#808080;stroke-width:1.5;"/>
    <path clip-path="url(#pf5b42846ea)" d="M 99.463927 105.714155 
L 99.463927 101.738235 
" style="fill:none;stroke:#808080;stroke-width:1.5;"/>
    <path clip-path="url(#pf5b42846ea)" d="M 99.954062 106.232073 
L 99.954062 102.344683 
" style="fill:none;stroke:#808080;stroke-width:1.5;"/>
    <path clip-path="url(#pf5b42846ea)" d="M 100.059752 106.864176 
L 100.059752 102.824453 
" style="fill:none;stroke:#808080;stroke-width:1.5;"/>
    <path clip-path="url(#pf5b42846ea)" d="M 100.22673 107.577765 
L 100.22673 103.511463 
" style="fill:none;stroke:#808080;stroke-width:1.5;"/>
    <path clip-path="url(#pf5b42846ea)" d="M 100.259566 107.946932 
L 100.259566 103.958502 
" style="fill:none;stroke:#808080;stroke-width:1.5;"/>
    <path clip-path="url(#pf5b42846ea)" d="M 100.412097 108.453144 
L 100.412097 104.39759 
" style="fill:none;stroke:#808080;stroke-width:1.5;"/>
    <path clip-path="url(#pf5b42846ea)" d="M 100.71172 109.040844 
L 100.71172 105.071679 
" style="fill:none;stroke:#808080;stroke-width:1.5;"/>
    <path clip-path="url(#pf5b42846ea)" d="M 101.313165 109.912155 
L 101.313165 105.594026 
" style="fill:none;stroke:#808080;stroke-width:1.5;"/>
    <path clip-path="url(#pf5b42846ea)" d="M 101.746481 110.265755 
L 101.746481 106.164905 
" style="fill:none;stroke:#808080;stroke-width:1.5;"/>
    <path clip-path="url(#pf5b42846ea)" d="M 102.309578 110.872766 
L 102.309578 106.65311 
" style="fill:none;stroke:#808080;stroke-width:1.5;"/>
    <path clip-path="url(#pf5b42846ea)" d="M 102.331841 111.31767 
L 102.331841 107.247897 
" style="fill:none;stroke:#808080;stroke-width:1.5;"/>
    <path clip-path="url(#pf5b42846ea)" d="M 102.431106 111.927673 
L 102.431106 107.926056 
" style="fill:none;stroke:#808080;stroke-width:1.5;"/>
    <path clip-path="url(#pf5b42846ea)" d="M 102.509267 112.632559 
L 102.509267 108.545424 
" style="fill:none;stroke:#808080;stroke-width:1.5;"/>
    <path clip-path="url(#pf5b42846ea)" d="M 102.756253 113.310763 
L 102.756253 109.019348 
" style="fill:none;stroke:#808080;stroke-width:1.5;"/>
    <path clip-path="url(#pf5b42846ea)" d="M 102.813076 113.761492 
L 102.813076 109.656893 
" style="fill:none;stroke:#808080;stroke-width:1.5;"/>
    <path clip-path="url(#pf5b42846ea)" d="M 103.274647 114.214186 
L 103.274647 110.168933 
" style="fill:none;stroke:#808080;stroke-width:1.5;"/>
    <path clip-path="url(#pf5b42846ea)" d="M 103.401506 114.864601 
L 103.401506 110.705349 
" style="fill:none;stroke:#808080;stroke-width:1.5;"/>
    <path clip-path="url(#pf5b42846ea)" d="M 103.625825 115.434009 
L 103.625825 111.200618 
" style="fill:none;stroke:#808080;stroke-width:1.5;"/>
    <path clip-path="url(#pf5b42846ea)" d="M 103.907331 116.094528 
L 103.907331 111.642256 
" style="fill:none;stroke:#808080;stroke-width:1.5;"/>
    <path clip-path="url(#pf5b42846ea)" d="M 104.317869 116.833013 
L 104.317869 112.584767 
" style="fill:none;stroke:#808080;stroke-width:1.5;"/>
    <path clip-path="url(#pf5b42846ea)" d="M 104.628002 117.085638 
L 104.628002 112.898489 
" style="fill:none;stroke:#808080;stroke-width:1.5;"/>
    <path clip-path="url(#pf5b42846ea)" d="M 104.879398 117.894138 
L 104.879398 113.564157 
" style="fill:none;stroke:#808080;stroke-width:1.5;"/>
    <path clip-path="url(#pf5b42846ea)" d="M 105.156547 118.488756 
L 105.156547 113.989798 
" style="fill:none;stroke:#808080;stroke-width:1.5;"/>
    <path clip-path="url(#pf5b42846ea)" d="M 105.268489 119.024772 
L 105.268489 114.590641 
" style="fill:none;stroke:#808080;stroke-width:1.5;"/>
    <path clip-path="url(#pf5b42846ea)" d="M 105.347905 119.396314 
L 105.347905 114.911764 
" style="fill:none;stroke:#808080;stroke-width:1.5;"/>
    <path clip-path="url(#pf5b42846ea)" d="M 105.490557 120.043379 
L 105.490557 115.691671 
" style="fill:none;stroke:#808080;stroke-width:1.5;"/>
    <path clip-path="url(#pf5b42846ea)" d="M 105.785837 120.656271 
L 105.785837 116.239236 
" style="fill:none;stroke:#808080;stroke-width:1.5;"/>
    <path clip-path="url(#pf5b42846ea)" d="M 105.935456 121.318701 
L 105.935456 116.762248 
" style="fill:none;stroke:#808080;stroke-width:1.5;"/>
    <path clip-path="url(#pf5b42846ea)" d="M 106.039425 121.920743 
L 106.039425 117.377576 
" style="fill:none;stroke:#808080;stroke-width:1.5;"/>
    <path clip-path="url(#pf5b42846ea)" d="M 106.084397 122.4637 
L 106.084397 118.054764 
" style="fill:none;stroke:#808080;stroke-width:1.5;"/>
    <path clip-path="url(#pf5b42846ea)" d="M 106.137027 122.766211 
L 106.137027 118.295002 
" style="fill:none;stroke:#808080;stroke-width:1.5;"/>
    <path clip-path="url(#pf5b42846ea)" d="M 106.160782 123.389743 
L 106.160782 118.831927 
" style="fill:none;stroke:#808080;stroke-width:1.5;"/>
    <path clip-path="url(#pf5b42846ea)" d="M 106.52728 123.922298 
L 106.52728 119.616684 
" style="fill:none;stroke:#808080;stroke-width:1.5;"/>
    <path clip-path="url(#pf5b42846ea)" d="M 106.667277 124.459076 
L 106.667277 119.997445 
" style="fill:none;stroke:#808080;stroke-width:1.5;"/>
    <path clip-path="url(#pf5b42846ea)" d="M 106.883859 124.945806 
L 106.883859 120.647573 
" style="fill:none;stroke:#808080;stroke-width:1.5;"/>
    <path clip-path="url(#pf5b42846ea)" d="M 107.065546 125.652528 
L 107.065546 121.270657 
" style="fill:none;stroke:#808080;stroke-width:1.5;"/>
    <path clip-path="url(#pf5b42846ea)" d="M 107.088626 126.117184 
L 107.088626 121.469516 
" style="fill:none;stroke:#808080;stroke-width:1.5;"/>
    <path clip-path="url(#pf5b42846ea)" d="M 107.164537 126.944071 
L 107.164537 122.240339 
" style="fill:none;stroke:#808080;stroke-width:1.5;"/>
    <path clip-path="url(#pf5b42846ea)" d="M 107.537245 127.40355 
L 107.537245 122.77752 
" style="fill:none;stroke:#808080;stroke-width:1.5;"/>
    <path clip-path="url(#pf5b42846ea)" d="M 107.613236 127.964557 
L 107.613236 123.317281 
" style="fill:none;stroke:#808080;stroke-width:1.5;"/>
    <path clip-path="url(#pf5b42846ea)" d="M 107.721296 128.460143 
L 107.721296 123.766995 
" style="fill:none;stroke:#808080;stroke-width:1.5;"/>
    <path clip-path="url(#pf5b42846ea)" d="M 108.087764 128.854769 
L 108.087764 124.292684 
" style="fill:none;stroke:#808080;stroke-width:1.5;"/>
    <path clip-path="url(#pf5b42846ea)" d="M 108.545083 129.60925 
L 108.545083 125.034581 
" style="fill:none;stroke:#808080;stroke-width:1.5;"/>
    <path clip-path="url(#pf5b42846ea)" d="M 109.451921 130.020574 
L 109.451921 125.442239 
" style="fill:none;stroke:#808080;stroke-width:1.5;"/>
    <path clip-path="url(#pf5b42846ea)" d="M 109.457177 130.450933 
L 109.457177 125.996048 
" style="fill:none;stroke:#808080;stroke-width:1.5;"/>
    <path clip-path="url(#pf5b42846ea)" d="M 109.545225 131.179236 
L 109.545225 126.662791 
" style="fill:none;stroke:#808080;stroke-width:1.5;"/>
    <path clip-path="url(#pf5b42846ea)" d="M 110.115775 131.778386 
L 110.115775 126.895117 
" style="fill:none;stroke:#808080;stroke-width:1.5;"/>
    <path clip-path="url(#pf5b42846ea)" d="M 110.195807 132.188255 
L 110.195807 127.434712 
" style="fill:none;stroke:#808080;stroke-width:1.5;"/>
    <path clip-path="url(#pf5b42846ea)" d="M 110.524271 133.057351 
L 110.524271 128.200805 
" style="fill:none;stroke:#808080;stroke-width:1.5;"/>
    <path clip-path="url(#pf5b42846ea)" d="M 110.593795 133.347432 
L 110.593795 128.760245 
" style="fill:none;stroke:#808080;stroke-width:1.5;"/>
    <path clip-path="url(#pf5b42846ea)" d="M 111.11307 133.728588 
L 111.11307 129.098128 
" style="fill:none;stroke:#808080;stroke-width:1.5;"/>
    <path clip-path="url(#pf5b42846ea)" d="M 111.47807 134.425108 
L 111.47807 129.58705 
" style="fill:none;stroke:#808080;stroke-width:1.5;"/>
    <path clip-path="url(#pf5b42846ea)" d="M 111.766049 134.859659 
L 111.766049 130.161652 
" style="fill:none;stroke:#808080;stroke-width:1.5;"/>
    <path clip-path="url(#pf5b42846ea)" d="M 111.786165 135.252864 
L 111.786165 130.4042 
" style="fill:none;stroke:#808080;stroke-width:1.5;"/>
    <path clip-path="url(#pf5b42846ea)" d="M 111.863738 135.853536 
L 111.863738 131.098631 
" style="fill:none;stroke:#808080;stroke-width:1.5;"/>
    <path clip-path="url(#pf5b42846ea)" d="M 112.183358 136.205535 
L 112.183358 131.522583 
" style="fill:none;stroke:#808080;stroke-width:1.5;"/>
    <path clip-path="url(#pf5b42846ea)" d="M 112.763334 136.730536 
L 112.763334 132.044214 
" style="fill:none;stroke:#808080;stroke-width:1.5;"/>
    <path clip-path="url(#pf5b42846ea)" d="M 113.094056 137.388757 
L 113.094056 132.576988 
" style="fill:none;stroke:#808080;stroke-width:1.5;"/>
    <path clip-path="url(#pf5b42846ea)" d="M 113.095466 138.012044 
L 113.095466 133.216877 
" style="fill:none;stroke:#808080;stroke-width:1.5;"/>
    <path clip-path="url(#pf5b42846ea)" d="M 113.202677 138.523566 
L 113.202677 133.718673 
" style="fill:none;stroke:#808080;stroke-width:1.5;"/>
    <path clip-path="url(#pf5b42846ea)" d="M 113.33139 139.099569 
L 113.33139 134.096299 
" style="fill:none;stroke:#808080;stroke-width:1.5;"/>
    <path clip-path="url(#pf5b42846ea)" d="M 113.347612 139.893648 
L 113.347612 134.888825 
" style="fill:none;stroke:#808080;stroke-width:1.5;"/>
    <path clip-path="url(#pf5b42846ea)" d="M 113.697892 140.281747 
L 113.697892 135.383561 
" style="fill:none;stroke:#808080;stroke-width:1.5;"/>
    <path clip-path="url(#pf5b42846ea)" d="M 114.40686 140.682018 
L 114.40686 135.843916 
" style="fill:none;stroke:#808080;stroke-width:1.5;"/>
    <path clip-path="url(#pf5b42846ea)" d="M 114.865133 141.632734 
L 114.865133 136.582525 
" style="fill:none;stroke:#808080;stroke-width:1.5;"/>
    <path clip-path="url(#pf5b42846ea)" d="M 115.197788 142.17361 
L 115.197788 137.121595 
" style="fill:none;stroke:#808080;stroke-width:1.5;"/>
    <path clip-path="url(#pf5b42846ea)" d="M 115.93578 142.698527 
L 115.93578 137.737701 
" style="fill:none;stroke:#808080;stroke-width:1.5;"/>
    <path clip-path="url(#pf5b42846ea)" d="M 115.986108 143.03457 
L 115.986108 138.091547 
" style="fill:none;stroke:#808080;stroke-width:1.5;"/>
    <path clip-path="url(#pf5b42846ea)" d="M 116.564883 143.671699 
L 116.564883 138.648189 
" style="fill:none;stroke:#808080;stroke-width:1.5;"/>
    <path clip-path="url(#pf5b42846ea)" d="M 116.594195 144.096189 
L 116.594195 139.053787 
" style="fill:none;stroke:#808080;stroke-width:1.5;"/>
    <path clip-path="url(#pf5b42846ea)" d="M 116.882446 144.765243 
L 116.882446 139.714539 
" style="fill:none;stroke:#808080;stroke-width:1.5;"/>
    <path clip-path="url(#pf5b42846ea)" d="M 117.216757 145.358082 
L 117.216757 140.43346 
" style="fill:none;stroke:#808080;stroke-width:1.5;"/>
    <path clip-path="url(#pf5b42846ea)" d="M 117.282981 146.08827 
L 117.282981 140.923417 
" style="fill:none;stroke:#808080;stroke-width:1.5;"/>
    <path clip-path="url(#pf5b42846ea)" d="M 117.559158 146.59055 
L 117.559158 141.460828 
" style="fill:none;stroke:#808080;stroke-width:1.5;"/>
    <path clip-path="url(#pf5b42846ea)" d="M 117.622817 147.115594 
L 117.622817 142.197573 
" style="fill:none;stroke:#808080;stroke-width:1.5;"/>
    <path clip-path="url(#pf5b42846ea)" d="M 117.930974 147.842891 
L 117.930974 142.893085 
" style="fill:none;stroke:#808080;stroke-width:1.5;"/>
    <path clip-path="url(#pf5b42846ea)" d="M 118.039315 148.425545 
L 118.039315 143.13913 
" style="fill:none;stroke:#808080;stroke-width:1.5;"/>
    <path clip-path="url(#pf5b42846ea)" d="M 118.44424 149.088254 
L 118.44424 144.156029 
" style="fill:none;stroke:#808080;stroke-width:1.5;"/>
    <path clip-path="url(#pf5b42846ea)" d="M 118.473166 149.676381 
L 118.473166 144.525695 
" style="fill:none;stroke:#808080;stroke-width:1.5;"/>
    <path clip-path="url(#pf5b42846ea)" d="M 118.474693 150.241555 
L 118.474693 144.941912 
" style="fill:none;stroke:#808080;stroke-width:1.5;"/>
    <path clip-path="url(#pf5b42846ea)" d="M 118.582704 150.788605 
L 118.582704 145.616395 
" style="fill:none;stroke:#808080;stroke-width:1.5;"/>
    <path clip-path="url(#pf5b42846ea)" d="M 119.256814 151.195691 
L 119.256814 146.118519 
" style="fill:none;stroke:#808080;stroke-width:1.5;"/>
    <path clip-path="url(#pf5b42846ea)" d="M 119.328511 152.024563 
L 119.328511 146.833221 
" style="fill:none;stroke:#808080;stroke-width:1.5;"/>
    <path clip-path="url(#pf5b42846ea)" d="M 119.589815 152.542451 
L 119.589815 147.195392 
" style="fill:none;stroke:#808080;stroke-width:1.5;"/>
    <path clip-path="url(#pf5b42846ea)" d="M 119.728989 153.071896 
L 119.728989 147.862494 
" style="fill:none;stroke:#808080;stroke-width:1.5;"/>
    <path clip-path="url(#pf5b42846ea)" d="M 119.951046 153.445566 
L 119.951046 148.396646 
" style="fill:none;stroke:#808080;stroke-width:1.5;"/>
    <path clip-path="url(#pf5b42846ea)" d="M 120.022999 154.12089 
L 120.022999 149.009484 
" style="fill:none;stroke:#808080;stroke-width:1.5;"/>
    <path clip-path="url(#pf5b42846ea)" d="M 120.249872 154.597086 
L 120.249872 149.453603 
" style="fill:none;stroke:#808080;stroke-width:1.5;"/>
    <path clip-path="url(#pf5b42846ea)" d="M 120.313353 155.003558 
L 120.313353 149.805036 
" style="fill:none;stroke:#808080;stroke-width:1.5;"/>
    <path clip-path="url(#pf5b42846ea)" d="M 120.357054 155.801076 
L 120.357054 150.510837 
" style="fill:none;stroke:#808080;stroke-width:1.5;"/>
    <path clip-path="url(#pf5b42846ea)" d="M 120.358953 156.307435 
L 120.358953 150.990033 
" style="fill:none;stroke:#808080;stroke-width:1.5;"/>
    <path clip-path="url(#pf5b42846ea)" d="M 120.58569 156.975736 
L 120.58569 151.59879 
" style="fill:none;stroke:#808080;stroke-width:1.5;"/>
    <path clip-path="url(#pf5b42846ea)" d="M 121.14075 157.439618 
L 121.14075 152.117687 
" style="fill:none;stroke:#808080;stroke-width:1.5;"/>
    <path clip-path="url(#pf5b42846ea)" d="M 121.343808 158.173877 
L 121.343808 152.902016 
" style="fill:none;stroke:#808080;stroke-width:1.5;"/>
    <path clip-path="url(#pf5b42846ea)" d="M 121.460798 158.5441 
L 121.460798 153.416017 
" style="fill:none;stroke:#808080;stroke-width:1.5;"/>
    <path clip-path="url(#pf5b42846ea)" d="M 121.608698 158.96336 
L 121.608698 153.767155 
" style="fill:none;stroke:#808080;stroke-width:1.5;"/>
    <path clip-path="url(#pf5b42846ea)" d="M 121.891569 159.747419 
L 121.891569 154.480863 
" style="fill:none;stroke:#808080;stroke-width:1.5;"/>
    <path clip-path="url(#pf5b42846ea)" d="M 122.42098 160.273574 
L 122.42098 154.976355 
" style="fill:none;stroke:#808080;stroke-width:1.5;"/>
    <path clip-path="url(#pf5b42846ea)" d="M 123.013768 160.89469 
L 123.013768 155.705865 
" style="fill:none;stroke:#808080;stroke-width:1.5;"/>
    <path clip-path="url(#pf5b42846ea)" d="M 123.86443 161.313123 
L 123.86443 156.057831 
" style="fill:none;stroke:#808080;stroke-width:1.5;"/>
    <path clip-path="url(#pf5b42846ea)" d="M 124.107139 161.925157 
L 124.107139 156.535461 
" style="fill:none;stroke:#808080;stroke-width:1.5;"/>
    <path clip-path="url(#pf5b42846ea)" d="M 124.284894 162.302123 
L 124.284894 157.096854 
" style="fill:none;stroke:#808080;stroke-width:1.5;"/>
    <path clip-path="url(#pf5b42846ea)" d="M 124.423831 163.088321 
L 124.423831 157.671 
" style="fill:none;stroke:#808080;stroke-width:1.5;"/>
    <path clip-path="url(#pf5b42846ea)" d="M 125.25714 163.352583 
L 125.25714 158.129941 
" style="fill:none;stroke:#808080;stroke-width:1.5;"/>
    <path clip-path="url(#pf5b42846ea)" d="M 125.707179 164.113573 
L 125.707179 158.612694 
" style="fill:none;stroke:#808080;stroke-width:1.5;"/>
    <path clip-path="url(#pf5b42846ea)" d="M 125.714426 164.652462 
L 125.714426 159.377236 
" style="fill:none;stroke:#808080;stroke-width:1.5;"/>
    <path clip-path="url(#pf5b42846ea)" d="M 125.764811 165.303389 
L 125.764811 160.013084 
" style="fill:none;stroke:#808080;stroke-width:1.5;"/>
    <path clip-path="url(#pf5b42846ea)" d="M 125.830224 165.750465 
L 125.830224 160.615416 
" style="fill:none;stroke:#808080;stroke-width:1.5;"/>
    <path clip-path="url(#pf5b42846ea)" d="M 125.884178 166.315979 
L 125.884178 160.992426 
" style="fill:none;stroke:#808080;stroke-width:1.5;"/>
    <path clip-path="url(#pf5b42846ea)" d="M 126.157776 166.790703 
L 126.157776 161.276996 
" style="fill:none;stroke:#808080;stroke-width:1.5;"/>
    <path clip-path="url(#pf5b42846ea)" d="M 126.249033 167.598934 
L 126.249033 162.155314 
" style="fill:none;stroke:#808080;stroke-width:1.5;"/>
    <path clip-path="url(#pf5b42846ea)" d="M 126.461034 168.007712 
L 126.461034 162.632148 
" style="fill:none;stroke:#808080;stroke-width:1.5;"/>
    <path clip-path="url(#pf5b42846ea)" d="M 126.597909 168.523044 
L 126.597909 163.055175 
" style="fill:none;stroke:#808080;stroke-width:1.5;"/>
    <path clip-path="url(#pf5b42846ea)" d="M 126.678926 169.085816 
L 126.678926 163.759744 
" style="fill:none;stroke:#808080;stroke-width:1.5;"/>
    <path clip-path="url(#pf5b42846ea)" d="M 126.754666 169.809093 
L 126.754666 164.549503 
" style="fill:none;stroke:#808080;stroke-width:1.5;"/>
    <path clip-path="url(#pf5b42846ea)" d="M 127.034576 170.210828 
L 127.034576 164.794625 
" style="fill:none;stroke:#808080;stroke-width:1.5;"/>
    <path clip-path="url(#pf5b42846ea)" d="M 127.088269 170.691089 
L 127.088269 165.21108 
" style="fill:none;stroke:#808080;stroke-width:1.5;"/>
    <path clip-path="url(#pf5b42846ea)" d="M 128.081615 171.300511 
L 128.081615 165.966167 
" style="fill:none;stroke:#808080;stroke-width:1.5;"/>
    <path clip-path="url(#pf5b42846ea)" d="M 128.451035 171.821804 
L 128.451035 166.652526 
" style="fill:none;stroke:#808080;stroke-width:1.5;"/>
    <path clip-path="url(#pf5b42846ea)" d="M 128.958217 172.464719 
L 128.958217 167.060407 
" style="fill:none;stroke:#808080;stroke-width:1.5;"/>
    <path clip-path="url(#pf5b42846ea)" d="M 129.741188 172.940842 
L 129.741188 167.469896 
" style="fill:none;stroke:#808080;stroke-width:1.5;"/>
    <path clip-path="url(#pf5b42846ea)" d="M 129.816127 173.509638 
L 129.816127 168.08793 
" style="fill:none;stroke:#808080;stroke-width:1.5;"/>
    <path clip-path="url(#pf5b42846ea)" d="M 129.81956 174.132638 
L 129.81956 168.753093 
" style="fill:none;stroke:#808080;stroke-width:1.5;"/>
    <path clip-path="url(#pf5b42846ea)" d="M 129.879 174.543094 
L 129.879 169.228249 
" style="fill:none;stroke:#808080;stroke-width:1.5;"/>
    <path clip-path="url(#pf5b42846ea)" d="M 130.278244 175.35387 
L 130.278244 169.990197 
" style="fill:none;stroke:#808080;stroke-width:1.5;"/>
    <path clip-path="url(#pf5b42846ea)" d="M 131.024269 176.043693 
L 131.024269 170.528848 
" style="fill:none;stroke:#808080;stroke-width:1.5;"/>
    <path clip-path="url(#pf5b42846ea)" d="M 131.376094 176.617232 
L 131.376094 171.0533 
" style="fill:none;stroke:#808080;stroke-width:1.5;"/>
    <path clip-path="url(#pf5b42846ea)" d="M 131.379794 176.973881 
L 131.379794 171.551725 
" style="fill:none;stroke:#808080;stroke-width:1.5;"/>
    <path clip-path="url(#pf5b42846ea)" d="M 131.382103 177.737831 
L 131.382103 172.230017 
" style="fill:none;stroke:#808080;stroke-width:1.5;"/>
    <path clip-path="url(#pf5b42846ea)" d="M 131.429276 178.22827 
L 131.429276 172.739014 
" style="fill:none;stroke:#808080;stroke-width:1.5;"/>
    <path clip-path="url(#pf5b42846ea)" d="M 132.068081 179.00699 
L 132.068081 173.487211 
" style="fill:none;stroke:#808080;stroke-width:1.5;"/>
    <path clip-path="url(#pf5b42846ea)" d="M 132.363274 179.607535 
L 132.363274 174.033242 
" style="fill:none;stroke:#808080;stroke-width:1.5;"/>
    <path clip-path="url(#pf5b42846ea)" d="M 132.78678 180.093316 
L 132.78678 174.523299 
" style="fill:none;stroke:#808080;stroke-width:1.5;"/>
    <path clip-path="url(#pf5b42846ea)" d="M 132.925077 180.685273 
L 132.925077 175.272252 
" style="fill:none;stroke:#808080;stroke-width:1.5;"/>
    <path clip-path="url(#pf5b42846ea)" d="M 133.575784 181.138373 
L 133.575784 175.574282 
" style="fill:none;stroke:#808080;stroke-width:1.5;"/>
    <path clip-path="url(#pf5b42846ea)" d="M 133.676585 181.937702 
L 133.676585 176.482323 
" style="fill:none;stroke:#808080;stroke-width:1.5;"/>
    <path clip-path="url(#pf5b42846ea)" d="M 134.040307 182.615129 
L 134.040307 177.030594 
" style="fill:none;stroke:#808080;stroke-width:1.5;"/>
    <path clip-path="url(#pf5b42846ea)" d="M 134.090334 182.987532 
L 134.090334 177.481338 
" style="fill:none;stroke:#808080;stroke-width:1.5;"/>
    <path clip-path="url(#pf5b42846ea)" d="M 134.179581 183.593497 
L 134.179581 177.994186 
" style="fill:none;stroke:#808080;stroke-width:1.5;"/>
    <path clip-path="url(#pf5b42846ea)" d="M 134.626343 184.283904 
L 134.626343 178.651631 
" style="fill:none;stroke:#808080;stroke-width:1.5;"/>
    <path clip-path="url(#pf5b42846ea)" d="M 134.785477 184.822892 
L 134.785477 179.017688 
" style="fill:none;stroke:#808080;stroke-width:1.5;"/>
    <path clip-path="url(#pf5b42846ea)" d="M 134.913006 185.292453 
L 134.913006 179.766884 
" style="fill:none;stroke:#808080;stroke-width:1.5;"/>
    <path clip-path="url(#pf5b42846ea)" d="M 135.072002 185.762996 
L 135.072002 180.342972 
" style="fill:none;stroke:#808080;stroke-width:1.5;"/>
    <path clip-path="url(#pf5b42846ea)" d="M 135.364237 186.675866 
L 135.364237 181.088889 
" style="fill:none;stroke:#808080;stroke-width:1.5;"/>
    <path clip-path="url(#pf5b42846ea)" d="M 135.590941 187.123172 
L 135.590941 181.443909 
" style="fill:none;stroke:#808080;stroke-width:1.5;"/>
    <path clip-path="url(#pf5b42846ea)" d="M 135.946275 187.60827 
L 135.946275 182.169239 
" style="fill:none;stroke:#808080;stroke-width:1.5;"/>
    <path clip-path="url(#pf5b42846ea)" d="M 136.430969 188.294052 
L 136.430969 182.532865 
" style="fill:none;stroke:#808080;stroke-width:1.5;"/>
    <path clip-path="url(#pf5b42846ea)" d="M 136.526876 188.76227 
L 136.526876 183.080741 
" style="fill:none;stroke:#808080;stroke-width:1.5;"/>
    <path clip-path="url(#pf5b42846ea)" d="M 136.801539 189.357594 
L 136.801539 183.743041 
" style="fill:none;stroke:#808080;stroke-width:1.5;"/>
    <path clip-path="url(#pf5b42846ea)" d="M 136.851333 189.924114 
L 136.851333 184.404994 
" style="fill:none;stroke:#808080;stroke-width:1.5;"/>
    <path clip-path="url(#pf5b42846ea)" d="M 137.043743 190.700401 
L 137.043743 185.120921 
" style="fill:none;stroke:#808080;stroke-width:1.5;"/>
    <path clip-path="url(#pf5b42846ea)" d="M 137.92449 191.258315 
L 137.92449 185.472217 
" style="fill:none;stroke:#808080;stroke-width:1.5;"/>
    <path clip-path="url(#pf5b42846ea)" d="M 138.168449 191.653377 
L 138.168449 186.118235 
" style="fill:none;stroke:#808080;stroke-width:1.5;"/>
    <path clip-path="url(#pf5b42846ea)" d="M 138.413914 192.424897 
L 138.413914 186.644594 
" style="fill:none;stroke:#808080;stroke-width:1.5;"/>
    <path clip-path="url(#pf5b42846ea)" d="M 138.971572 192.852288 
L 138.971572 187.14307 
" style="fill:none;stroke:#808080;stroke-width:1.5;"/>
    <path clip-path="url(#pf5b42846ea)" d="M 139.078033 193.381803 
L 139.078033 187.707383 
" style="fill:none;stroke:#808080;stroke-width:1.5;"/>
    <path clip-path="url(#pf5b42846ea)" d="M 139.398269 194.077353 
L 139.398269 188.127869 
" style="fill:none;stroke:#808080;stroke-width:1.5;"/>
    <path clip-path="url(#pf5b42846ea)" d="M 139.659227 194.790343 
L 139.659227 188.986216 
" style="fill:none;stroke:#808080;stroke-width:1.5;"/>
    <path clip-path="url(#pf5b42846ea)" d="M 139.724437 195.046684 
L 139.724437 189.325372 
" style="fill:none;stroke:#808080;stroke-width:1.5;"/>
    <path clip-path="url(#pf5b42846ea)" d="M 140.475572 195.669748 
L 140.475572 190.052935 
" style="fill:none;stroke:#808080;stroke-width:1.5;"/>
    <path clip-path="url(#pf5b42846ea)" d="M 142.196164 195.973139 
L 142.196164 190.401954 
" style="fill:none;stroke:#808080;stroke-width:1.5;"/>
    <path clip-path="url(#pf5b42846ea)" d="M 142.343986 196.745839 
L 142.343986 191.007643 
" style="fill:none;stroke:#808080;stroke-width:1.5;"/>
    <path clip-path="url(#pf5b42846ea)" d="M 142.515222 197.248587 
L 142.515222 191.283622 
" style="fill:none;stroke:#808080;stroke-width:1.5;"/>
    <path clip-path="url(#pf5b42846ea)" d="M 142.674514 197.822451 
L 142.674514 191.99098 
" style="fill:none;stroke:#808080;stroke-width:1.5;"/>
    <path clip-path="url(#pf5b42846ea)" d="M 142.872423 198.223091 
L 142.872423 192.406546 
" style="fill:none;stroke:#808080;stroke-width:1.5;"/>
    <path clip-path="url(#pf5b42846ea)" d="M 143.276268 198.782076 
L 143.276268 192.790086 
" style="fill:none;stroke:#808080;stroke-width:1.5;"/>
    <path clip-path="url(#pf5b42846ea)" d="M 143.30899 199.474183 
L 143.30899 193.630448 
" style="fill:none;stroke:#808080;stroke-width:1.5;"/>
    <path clip-path="url(#pf5b42846ea)" d="M 143.99329 199.926264 
L 143.99329 194.315226 
" style="fill:none;stroke:#808080;stroke-width:1.5;"/>
    <path clip-path="url(#pf5b42846ea)" d="M 144.046568 200.704824 
L 144.046568 194.663807 
" style="fill:none;stroke:#808080;stroke-width:1.5;"/>
    <path clip-path="url(#pf5b42846ea)" d="M 144.520192 201.183801 
L 144.520192 195.185656 
" style="fill:none;stroke:#808080;stroke-width:1.5;"/>
    <path clip-path="url(#pf5b42846ea)" d="M 144.917904 201.687321 
L 144.917904 195.991119 
" style="fill:none;stroke:#808080;stroke-width:1.5;"/>
    <path clip-path="url(#pf5b42846ea)" d="M 145.705787 202.225003 
L 145.705787 196.296018 
" style="fill:none;stroke:#808080;stroke-width:1.5;"/>
    <path clip-path="url(#pf5b42846ea)" d="M 145.96612 202.650073 
L 145.96612 197.021688 
" style="fill:none;stroke:#808080;stroke-width:1.5;"/>
    <path clip-path="url(#pf5b42846ea)" d="M 146.042733 203.351529 
L 146.042733 197.455703 
" style="fill:none;stroke:#808080;stroke-width:1.5;"/>
    <path clip-path="url(#pf5b42846ea)" d="M 146.270025 203.847921 
L 146.270025 197.979568 
" style="fill:none;stroke:#808080;stroke-width:1.5;"/>
    <path clip-path="url(#pf5b42846ea)" d="M 146.345529 204.710964 
L 146.345529 198.791969 
" style="fill:none;stroke:#808080;stroke-width:1.5;"/>
    <path clip-path="url(#pf5b42846ea)" d="M 146.772914 205.078363 
L 146.772914 199.244941 
" style="fill:none;stroke:#808080;stroke-width:1.5;"/>
    <path clip-path="url(#pf5b42846ea)" d="M 146.972751 205.594563 
L 146.972751 199.760104 
" style="fill:none;stroke:#808080;stroke-width:1.5;"/>
    <path clip-path="url(#pf5b42846ea)" d="M 147.157744 206.320809 
L 147.157744 200.596865 
" style="fill:none;stroke:#808080;stroke-width:1.5;"/>
    <path clip-path="url(#pf5b42846ea)" d="M 147.657644 206.757715 
L 147.657644 201.008092 
" style="fill:none;stroke:#808080;stroke-width:1.5;"/>
    <path clip-path="url(#pf5b42846ea)" d="M 147.997621 207.51286 
L 147.997621 201.765983 
" style="fill:none;stroke:#808080;stroke-width:1.5;"/>
    <path clip-path="url(#pf5b42846ea)" d="M 148.399559 207.949051 
L 148.399559 202.062711 
" style="fill:none;stroke:#808080;stroke-width:1.5;"/>
    <path clip-path="url(#pf5b42846ea)" d="M 148.538668 208.548235 
L 148.538668 202.511547 
" style="fill:none;stroke:#808080;stroke-width:1.5;"/>
    <path clip-path="url(#pf5b42846ea)" d="M 148.573869 208.953395 
L 148.573869 203.033642 
" style="fill:none;stroke:#808080;stroke-width:1.5;"/>
    <path clip-path="url(#pf5b42846ea)" d="M 148.961239 209.199924 
L 148.961239 203.55196 
" style="fill:none;stroke:#808080;stroke-width:1.5;"/>
    <path clip-path="url(#pf5b42846ea)" d="M 149.092249 209.857865 
L 149.092249 203.989234 
" style="fill:none;stroke:#808080;stroke-width:1.5;"/>
    <path clip-path="url(#pf5b42846ea)" d="M 149.295513 210.432151 
L 149.295513 204.576794 
" style="fill:none;stroke:#808080;stroke-width:1.5;"/>
    <path clip-path="url(#pf5b42846ea)" d="M 149.39295 211.000375 
L 149.39295 205.159309 
" style="fill:none;stroke:#808080;stroke-width:1.5;"/>
    <path clip-path="url(#pf5b42846ea)" d="M 149.527382 211.589561 
L 149.527382 205.615367 
" style="fill:none;stroke:#808080;stroke-width:1.5;"/>
    <path clip-path="url(#pf5b42846ea)" d="M 149.950021 212.032144 
L 149.950021 206.0695 
" style="fill:none;stroke:#808080;stroke-width:1.5;"/>
    <path clip-path="url(#pf5b42846ea)" d="M 150.174738 212.608342 
L 150.174738 206.866139 
" style="fill:none;stroke:#808080;stroke-width:1.5;"/>
    <path clip-path="url(#pf5b42846ea)" d="M 150.359679 213.218874 
L 150.359679 207.392466 
" style="fill:none;stroke:#808080;stroke-width:1.5;"/>
    <path clip-path="url(#pf5b42846ea)" d="M 150.589433 213.846972 
L 150.589433 208.101114 
" style="fill:none;stroke:#808080;stroke-width:1.5;"/>
    <path clip-path="url(#pf5b42846ea)" d="M 150.772878 214.294886 
L 150.772878 208.555469 
" style="fill:none;stroke:#808080;stroke-width:1.5;"/>
    <path clip-path="url(#pf5b42846ea)" d="M 151.628061 214.952625 
L 151.628061 209.092889 
" style="fill:none;stroke:#808080;stroke-width:1.5;"/>
    <path clip-path="url(#pf5b42846ea)" d="M 152.07513 215.506328 
L 152.07513 209.596923 
" style="fill:none;stroke:#808080;stroke-width:1.5;"/>
    <path clip-path="url(#pf5b42846ea)" d="M 152.661193 216.065185 
L 152.661193 210.231838 
" style="fill:none;stroke:#808080;stroke-width:1.5;"/>
    <path clip-path="url(#pf5b42846ea)" d="M 153.192349 216.794042 
L 153.192349 210.564882 
" style="fill:none;stroke:#808080;stroke-width:1.5;"/>
    <path clip-path="url(#pf5b42846ea)" d="M 153.689654 217.397029 
L 153.689654 211.052946 
" style="fill:none;stroke:#808080;stroke-width:1.5;"/>
    <path clip-path="url(#pf5b42846ea)" d="M 155.990167 218.140407 
L 155.990167 212.02249 
" style="fill:none;stroke:#808080;stroke-width:1.5;"/>
    <path clip-path="url(#pf5b42846ea)" d="M 156.114916 218.329101 
L 156.114916 212.462609 
" style="fill:none;stroke:#808080;stroke-width:1.5;"/>
    <path clip-path="url(#pf5b42846ea)" d="M 156.238158 218.584479 
L 156.238158 212.883238 
" style="fill:none;stroke:#808080;stroke-width:1.5;"/>
    <path clip-path="url(#pf5b42846ea)" d="M 156.878298 219.379358 
L 156.878298 213.133603 
" style="fill:none;stroke:#808080;stroke-width:1.5;"/>
    <path clip-path="url(#pf5b42846ea)" d="M 157.041467 219.762517 
L 157.041467 213.941439 
" style="fill:none;stroke:#808080;stroke-width:1.5;"/>
    <path clip-path="url(#pf5b42846ea)" d="M 157.996576 220.54004 
L 157.996576 214.533977 
" style="fill:none;stroke:#808080;stroke-width:1.5;"/>
    <path clip-path="url(#pf5b42846ea)" d="M 158.226251 220.921602 
L 158.226251 214.982502 
" style="fill:none;stroke:#808080;stroke-width:1.5;"/>
    <path clip-path="url(#pf5b42846ea)" d="M 158.408512 221.993684 
L 158.408512 216.170257 
" style="fill:none;stroke:#808080;stroke-width:1.5;"/>
    <path clip-path="url(#pf5b42846ea)" d="M 158.551242 222.422199 
L 158.551242 216.463557 
" style="fill:none;stroke:#808080;stroke-width:1.5;"/>
    <path clip-path="url(#pf5b42846ea)" d="M 158.568952 223.308045 
L 158.568952 217.104628 
" style="fill:none;stroke:#808080;stroke-width:1.5;"/>
    <path clip-path="url(#pf5b42846ea)" d="M 159.422329 223.487686 
L 159.422329 217.377509 
" style="fill:none;stroke:#808080;stroke-width:1.5;"/>
    <path clip-path="url(#pf5b42846ea)" d="M 160.370302 224.32789 
L 160.370302 218.275214 
" style="fill:none;stroke:#808080;stroke-width:1.5;"/>
    <path clip-path="url(#pf5b42846ea)" d="M 160.406863 224.71255 
L 160.406863 218.622086 
" style="fill:none;stroke:#808080;stroke-width:1.5;"/>
    <path clip-path="url(#pf5b42846ea)" d="M 161.82057 225.345238 
L 161.82057 219.419147 
" style="fill:none;stroke:#808080;stroke-width:1.5;"/>
    <path clip-path="url(#pf5b42846ea)" d="M 162.0877 226.137187 
L 162.0877 219.980601 
" style="fill:none;stroke:#808080;stroke-width:1.5;"/>
    <path clip-path="url(#pf5b42846ea)" d="M 162.272726 226.751152 
L 162.272726 220.629813 
" style="fill:none;stroke:#808080;stroke-width:1.5;"/>
    <path clip-path="url(#pf5b42846ea)" d="M 162.339894 227.20286 
L 162.339894 220.979042 
" style="fill:none;stroke:#808080;stroke-width:1.5;"/>
    <path clip-path="url(#pf5b42846ea)" d="M 162.374665 227.540903 
L 162.374665 221.530774 
" style="fill:none;stroke:#808080;stroke-width:1.5;"/>
    <path clip-path="url(#pf5b42846ea)" d="M 162.84677 228.20576 
L 162.84677 222.186006 
" style="fill:none;stroke:#808080;stroke-width:1.5;"/>
    <path clip-path="url(#pf5b42846ea)" d="M 164.610868 228.753834 
L 164.610868 222.440259 
" style="fill:none;stroke:#808080;stroke-width:1.5;"/>
    <path clip-path="url(#pf5b42846ea)" d="M 165.201352 229.298519 
L 165.201352 223.199004 
" style="fill:none;stroke:#808080;stroke-width:1.5;"/>
    <path clip-path="url(#pf5b42846ea)" d="M 166.146828 229.74145 
L 166.146828 223.538965 
" style="fill:none;stroke:#808080;stroke-width:1.5;"/>
    <path clip-path="url(#pf5b42846ea)" d="M 166.38821 230.542777 
L 166.38821 224.160447 
" style="fill:none;stroke:#808080;stroke-width:1.5;"/>
    <path clip-path="url(#pf5b42846ea)" d="M 166.414483 230.886548 
L 166.414483 224.710617 
" style="fill:none;stroke:#808080;stroke-width:1.5;"/>
    <path clip-path="url(#pf5b42846ea)" d="M 166.476736 231.114566 
L 166.476736 225.140561 
" style="fill:none;stroke:#808080;stroke-width:1.5;"/>
    <path clip-path="url(#pf5b42846ea)" d="M 167.720797 231.785509 
L 167.720797 225.750839 
" style="fill:none;stroke:#808080;stroke-width:1.5;"/>
    <path clip-path="url(#pf5b42846ea)" d="M 167.728022 232.519603 
L 167.728022 226.057825 
" style="fill:none;stroke:#808080;stroke-width:1.5;"/>
    <path clip-path="url(#pf5b42846ea)" d="M 167.89598 232.992873 
L 167.89598 226.999035 
" style="fill:none;stroke:#808080;stroke-width:1.5;"/>
    <path clip-path="url(#pf5b42846ea)" d="M 168.211408 233.203272 
L 168.211408 227.119006 
" style="fill:none;stroke:#808080;stroke-width:1.5;"/>
    <path clip-path="url(#pf5b42846ea)" d="M 168.415855 234.051968 
L 168.415855 227.887453 
" style="fill:none;stroke:#808080;stroke-width:1.5;"/>
    <path clip-path="url(#pf5b42846ea)" d="M 168.474308 234.572359 
L 168.474308 228.427574 
" style="fill:none;stroke:#808080;stroke-width:1.5;"/>
    <path clip-path="url(#pf5b42846ea)" d="M 168.497874 235.198487 
L 168.497874 228.936917 
" style="fill:none;stroke:#808080;stroke-width:1.5;"/>
    <path clip-path="url(#pf5b42846ea)" d="M 168.811323 235.471712 
L 168.811323 229.280012 
" style="fill:none;stroke:#808080;stroke-width:1.5;"/>
    <path clip-path="url(#pf5b42846ea)" d="M 169.262573 236.318743 
L 169.262573 230.061229 
" style="fill:none;stroke:#808080;stroke-width:1.5;"/>
    <path clip-path="url(#pf5b42846ea)" d="M 169.727785 236.784471 
L 169.727785 230.57134 
" style="fill:none;stroke:#808080;stroke-width:1.5;"/>
    <path clip-path="url(#pf5b42846ea)" d="M 171.545602 237.24424 
L 171.545602 231.209563 
" style="fill:none;stroke:#808080;stroke-width:1.5;"/>
    <path clip-path="url(#pf5b42846ea)" d="M 171.749999 237.903705 
L 171.749999 231.72027 
" style="fill:none;stroke:#808080;stroke-width:1.5;"/>
    <path clip-path="url(#pf5b42846ea)" d="M 172.126738 238.436998 
L 172.126738 232.300238 
" style="fill:none;stroke:#808080;stroke-width:1.5;"/>
    <path clip-path="url(#pf5b42846ea)" d="M 172.216324 239.129946 
L 172.216324 233.257749 
" style="fill:none;stroke:#808080;stroke-width:1.5;"/>
    <path clip-path="url(#pf5b42846ea)" d="M 172.802839 239.657571 
L 172.802839 233.851713 
" style="fill:none;stroke:#808080;stroke-width:1.5;"/>
    <path clip-path="url(#pf5b42846ea)" d="M 173.366073 240.394782 
L 173.366073 234.344365 
" style="fill:none;stroke:#808080;stroke-width:1.5;"/>
    <path clip-path="url(#pf5b42846ea)" d="M 173.959508 240.940362 
L 173.959508 234.827371 
" style="fill:none;stroke:#808080;stroke-width:1.5;"/>
    <path clip-path="url(#pf5b42846ea)" d="M 174.169303 241.393435 
L 174.169303 235.286284 
" style="fill:none;stroke:#808080;stroke-width:1.5;"/>
    <path clip-path="url(#pf5b42846ea)" d="M 175.488852 242.125273 
L 175.488852 236.043883 
" style="fill:none;stroke:#808080;stroke-width:1.5;"/>
    <path clip-path="url(#pf5b42846ea)" d="M 176.053335 242.521647 
L 176.053335 236.684425 
" style="fill:none;stroke:#808080;stroke-width:1.5;"/>
    <path clip-path="url(#pf5b42846ea)" d="M 176.701846 243.088192 
L 176.701846 236.780006 
" style="fill:none;stroke:#808080;stroke-width:1.5;"/>
    <path clip-path="url(#pf5b42846ea)" d="M 177.644868 243.54373 
L 177.644868 237.271156 
" style="fill:none;stroke:#808080;stroke-width:1.5;"/>
    <path clip-path="url(#pf5b42846ea)" d="M 178.434955 244.289504 
L 178.434955 237.900995 
" style="fill:none;stroke:#808080;stroke-width:1.5;"/>
    <path clip-path="url(#pf5b42846ea)" d="M 178.688247 244.836703 
L 178.688247 238.558672 
" style="fill:none;stroke:#808080;stroke-width:1.5;"/>
    <path clip-path="url(#pf5b42846ea)" d="M 179.305406 245.35059 
L 179.305406 239.221899 
" style="fill:none;stroke:#808080;stroke-width:1.5;"/>
    <path clip-path="url(#pf5b42846ea)" d="M 180.039082 245.913206 
L 180.039082 239.696199 
" style="fill:none;stroke:#808080;stroke-width:1.5;"/>
    <path clip-path="url(#pf5b42846ea)" d="M 180.429093 246.655795 
L 180.429093 240.445824 
" style="fill:none;stroke:#808080;stroke-width:1.5;"/>
    <path clip-path="url(#pf5b42846ea)" d="M 180.795933 247.410353 
L 180.795933 241.280647 
" style="fill:none;stroke:#808080;stroke-width:1.5;"/>
    <path clip-path="url(#pf5b42846ea)" d="M 181.102138 247.949091 
L 181.102138 241.734405 
" style="fill:none;stroke:#808080;stroke-width:1.5;"/>
    <path clip-path="url(#pf5b42846ea)" d="M 181.328829 248.569752 
L 181.328829 242.532388 
" style="fill:none;stroke:#808080;stroke-width:1.5;"/>
    <path clip-path="url(#pf5b42846ea)" d="M 181.706849 249.078971 
L 181.706849 242.999008 
" style="fill:none;stroke:#808080;stroke-width:1.5;"/>
    <path clip-path="url(#pf5b42846ea)" d="M 182.550016 249.856223 
L 182.550016 243.744508 
" style="fill:none;stroke:#808080;stroke-width:1.5;"/>
    <path clip-path="url(#pf5b42846ea)" d="M 183.238911 250.050565 
L 183.238911 243.856938 
" style="fill:none;stroke:#808080;stroke-width:1.5;"/>
    <path clip-path="url(#pf5b42846ea)" d="M 184.128668 250.950445 
L 184.128668 244.482586 
" style="fill:none;stroke:#808080;stroke-width:1.5;"/>
    <path clip-path="url(#pf5b42846ea)" d="M 184.63398 251.30285 
L 184.63398 244.95194 
" style="fill:none;stroke:#808080;stroke-width:1.5;"/>
    <path clip-path="url(#pf5b42846ea)" d="M 185.326739 251.897105 
L 185.326739 245.665281 
" style="fill:none;stroke:#808080;stroke-width:1.5;"/>
    <path clip-path="url(#pf5b42846ea)" d="M 185.355155 252.433331 
L 185.355155 246.285347 
" style="fill:none;stroke:#808080;stroke-width:1.5;"/>
    <path clip-path="url(#pf5b42846ea)" d="M 185.641544 252.968345 
L 185.641544 246.728948 
" style="fill:none;stroke:#808080;stroke-width:1.5;"/>
    <path clip-path="url(#pf5b42846ea)" d="M 185.871177 253.606738 
L 185.871177 247.275998 
" style="fill:none;stroke:#808080;stroke-width:1.5;"/>
    <path clip-path="url(#pf5b42846ea)" d="M 187.437809 254.301353 
L 187.437809 247.875097 
" style="fill:none;stroke:#808080;stroke-width:1.5;"/>
    <path clip-path="url(#pf5b42846ea)" d="M 188.2762 254.573548 
L 188.2762 248.185907 
" style="fill:none;stroke:#808080;stroke-width:1.5;"/>
    <path clip-path="url(#pf5b42846ea)" d="M 188.932364 255.077574 
L 188.932364 248.8701 
" style="fill:none;stroke:#808080;stroke-width:1.5;"/>
    <path clip-path="url(#pf5b42846ea)" d="M 189.122177 255.533835 
L 189.122177 249.457694 
" style="fill:none;stroke:#808080;stroke-width:1.5;"/>
    <path clip-path="url(#pf5b42846ea)" d="M 189.160471 255.965813 
L 189.160471 249.904388 
" style="fill:none;stroke:#808080;stroke-width:1.5;"/>
    <path clip-path="url(#pf5b42846ea)" d="M 190.732669 256.57173 
L 190.732669 250.370088 
" style="fill:none;stroke:#808080;stroke-width:1.5;"/>
    <path clip-path="url(#pf5b42846ea)" d="M 191.51514 257.196481 
L 191.51514 250.862762 
" style="fill:none;stroke:#808080;stroke-width:1.5;"/>
    <path clip-path="url(#pf5b42846ea)" d="M 192.579204 257.441975 
L 192.579204 251.430699 
" style="fill:none;stroke:#808080;stroke-width:1.5;"/>
    <path clip-path="url(#pf5b42846ea)" d="M 194.718059 258.110075 
L 194.718059 251.967475 
" style="fill:none;stroke:#808080;stroke-width:1.5;"/>
    <path clip-path="url(#pf5b42846ea)" d="M 195.431775 259.027076 
L 195.431775 252.662064 
" style="fill:none;stroke:#808080;stroke-width:1.5;"/>
    <path clip-path="url(#pf5b42846ea)" d="M 196.142293 259.123003 
L 196.142293 253.146366 
" style="fill:none;stroke:#808080;stroke-width:1.5;"/>
    <path clip-path="url(#pf5b42846ea)" d="M 196.478306 260.050755 
L 196.478306 253.810772 
" style="fill:none;stroke:#808080;stroke-width:1.5;"/>
    <path clip-path="url(#pf5b42846ea)" d="M 197.139975 260.270065 
L 197.139975 254.163361 
" style="fill:none;stroke:#808080;stroke-width:1.5;"/>
    <path clip-path="url(#pf5b42846ea)" d="M 200.027087 260.621305 
L 200.027087 254.606118 
" style="fill:none;stroke:#808080;stroke-width:1.5;"/>
    <path clip-path="url(#pf5b42846ea)" d="M 201.4048 261.441025 
L 201.4048 255.284165 
" style="fill:none;stroke:#808080;stroke-width:1.5;"/>
    <path clip-path="url(#pf5b42846ea)" d="M 201.775258 262.106805 
L 201.775258 255.841306 
" style="fill:none;stroke:#808080;stroke-width:1.5;"/>
    <path clip-path="url(#pf5b42846ea)" d="M 202.161196 262.998765 
L 202.161196 257.066208 
" style="fill:none;stroke:#808080;stroke-width:1.5;"/>
    <path clip-path="url(#pf5b42846ea)" d="M 203.597956 263.545697 
L 203.597956 257.531205 
" style="fill:none;stroke:#808080;stroke-width:1.5;"/>
    <path clip-path="url(#pf5b42846ea)" d="M 206.38014 265.031904 
L 206.38014 258.783731 
" style="fill:none;stroke:#808080;stroke-width:1.5;"/>
    <path clip-path="url(#pf5b42846ea)" d="M 207.074435 265.433207 
L 207.074435 259.401298 
" style="fill:none;stroke:#808080;stroke-width:1.5;"/>
    <path clip-path="url(#pf5b42846ea)" d="M 207.144042 266.154152 
L 207.144042 260.050414 
" style="fill:none;stroke:#808080;stroke-width:1.5;"/>
    <path clip-path="url(#pf5b42846ea)" d="M 207.163137 266.475082 
L 207.163137 260.551242 
" style="fill:none;stroke:#808080;stroke-width:1.5;"/>
    <path clip-path="url(#pf5b42846ea)" d="M 207.574893 266.94253 
L 207.574893 260.895836 
" style="fill:none;stroke:#808080;stroke-width:1.5;"/>
    <path clip-path="url(#pf5b42846ea)" d="M 207.918882 267.402104 
L 207.918882 261.359353 
" style="fill:none;stroke:#808080;stroke-width:1.5;"/>
    <path clip-path="url(#pf5b42846ea)" d="M 208.35724 268.195377 
L 208.35724 261.95835 
" style="fill:none;stroke:#808080;stroke-width:1.5;"/>
    <path clip-path="url(#pf5b42846ea)" d="M 208.493404 268.783502 
L 208.493404 262.387707 
" style="fill:none;stroke:#808080;stroke-width:1.5;"/>
    <path clip-path="url(#pf5b42846ea)" d="M 209.432095 269.356403 
L 209.432095 263.455548 
" style="fill:none;stroke:#808080;stroke-width:1.5;"/>
    <path clip-path="url(#pf5b42846ea)" d="M 211.258185 270.19794 
L 211.258185 263.954921 
" style="fill:none;stroke:#808080;stroke-width:1.5;"/>
    <path clip-path="url(#pf5b42846ea)" d="M 211.289772 270.905992 
L 211.289772 264.815429 
" style="fill:none;stroke:#808080;stroke-width:1.5;"/>
    <path clip-path="url(#pf5b42846ea)" d="M 211.43679 271.499798 
L 211.43679 265.545875 
" style="fill:none;stroke:#808080;stroke-width:1.5;"/>
    <path clip-path="url(#pf5b42846ea)" d="M 212.028924 271.866791 
L 212.028924 266.01591 
" style="fill:none;stroke:#808080;stroke-width:1.5;"/>
    <path clip-path="url(#pf5b42846ea)" d="M 212.139582 272.467434 
L 212.139582 266.386942 
" style="fill:none;stroke:#808080;stroke-width:1.5;"/>
    <path clip-path="url(#pf5b42846ea)" d="M 214.053265 272.930996 
L 214.053265 266.94919 
" style="fill:none;stroke:#808080;stroke-width:1.5;"/>
    <path clip-path="url(#pf5b42846ea)" d="M 215.494314 273.422602 
L 215.494314 267.455632 
" style="fill:none;stroke:#808080;stroke-width:1.5;"/>
    <path clip-path="url(#pf5b42846ea)" d="M 215.690363 273.86794 
L 215.690363 267.68075 
" style="fill:none;stroke:#808080;stroke-width:1.5;"/>
    <path clip-path="url(#pf5b42846ea)" d="M 215.694923 274.648489 
L 215.694923 268.664484 
" style="fill:none;stroke:#808080;stroke-width:1.5;"/>
    <path clip-path="url(#pf5b42846ea)" d="M 217.785743 275.127924 
L 217.785743 269.269159 
" style="fill:none;stroke:#808080;stroke-width:1.5;"/>
    <path clip-path="url(#pf5b42846ea)" d="M 218.299799 275.637073 
L 218.299799 269.595651 
" style="fill:none;stroke:#808080;stroke-width:1.5;"/>
    <path clip-path="url(#pf5b42846ea)" d="M 219.770801 276.162485 
L 219.770801 270.037748 
" style="fill:none;stroke:#808080;stroke-width:1.5;"/>
    <path clip-path="url(#pf5b42846ea)" d="M 220.116838 276.785078 
L 220.116838 270.556178 
" style="fill:none;stroke:#808080;stroke-width:1.5;"/>
    <path clip-path="url(#pf5b42846ea)" d="M 220.247674 277.077359 
L 220.247674 271.073163 
" style="fill:none;stroke:#808080;stroke-width:1.5;"/>
    <path clip-path="url(#pf5b42846ea)" d="M 221.576689 277.632777 
L 221.576689 271.797579 
" style="fill:none;stroke:#808080;stroke-width:1.5;"/>
    <path clip-path="url(#pf5b42846ea)" d="M 223.253535 278.09193 
L 223.253535 272.047748 
" style="fill:none;stroke:#808080;stroke-width:1.5;"/>
    <path clip-path="url(#pf5b42846ea)" d="M 228.784594 278.578979 
L 228.784594 272.592062 
" style="fill:none;stroke:#808080;stroke-width:1.5;"/>
    <path clip-path="url(#pf5b42846ea)" d="M 230.030913 279.314609 
L 230.030913 273.132101 
" style="fill:none;stroke:#808080;stroke-width:1.5;"/>
    <path clip-path="url(#pf5b42846ea)" d="M 230.477417 279.976878 
L 230.477417 274.034228 
" style="fill:none;stroke:#808080;stroke-width:1.5;"/>
    <path clip-path="url(#pf5b42846ea)" d="M 236.976507 280.218595 
L 236.976507 274.346365 
" style="fill:none;stroke:#808080;stroke-width:1.5;"/>
    <path clip-path="url(#pf5b42846ea)" d="M 237.447113 280.852594 
L 237.447113 274.871435 
" style="fill:none;stroke:#808080;stroke-width:1.5;"/>
    <path clip-path="url(#pf5b42846ea)" d="M 242.495515 281.265192 
L 242.495515 275.388868 
" style="fill:none;stroke:#808080;stroke-width:1.5;"/>
    <path clip-path="url(#pf5b42846ea)" d="M 243.507163 281.91963 
L 243.507163 275.982336 
" style="fill:none;stroke:#808080;stroke-width:1.5;"/>
    <path clip-path="url(#pf5b42846ea)" d="M 243.847122 282.61888 
L 243.847122 277.132044 
" style="fill:none;stroke:#808080;stroke-width:1.5;"/>
    <path clip-path="url(#pf5b42846ea)" d="M 245.505328 283.390769 
L 245.505328 277.460923 
" style="fill:none;stroke:#808080;stroke-width:1.5;"/>
    <path clip-path="url(#pf5b42846ea)" d="M 248.697822 283.612095 
L 248.697822 278.00722 
" style="fill:none;stroke:#808080;stroke-width:1.5;"/>
    <path clip-path="url(#pf5b42846ea)" d="M 251.623544 284.348748 
L 251.623544 278.496264 
" style="fill:none;stroke:#808080;stroke-width:1.5;"/>
    <path clip-path="url(#pf5b42846ea)" d="M 253.232992 284.881804 
L 253.232992 279.198622 
" style="fill:none;stroke:#808080;stroke-width:1.5;"/>
    <path clip-path="url(#pf5b42846ea)" d="M 253.613424 285.843378 
L 253.613424 280.015212 
" style="fill:none;stroke:#808080;stroke-width:1.5;"/>
    <path clip-path="url(#pf5b42846ea)" d="M 260.598144 286.555862 
L 260.598144 281.069787 
" style="fill:none;stroke:#808080;stroke-width:1.5;"/>
    <path clip-path="url(#pf5b42846ea)" d="M 263.394967 287.231739 
L 263.394967 281.716776 
" style="fill:none;stroke:#808080;stroke-width:1.5;"/>
    <path clip-path="url(#pf5b42846ea)" d="M 264.339031 288.461241 
L 264.339031 282.908131 
" style="fill:none;stroke:#808080;stroke-width:1.5;"/>
    <path clip-path="url(#pf5b42846ea)" d="M 265.440143 289.324281 
L 265.440143 283.785776 
" style="fill:none;stroke:#808080;stroke-width:1.5;"/>
    <path clip-path="url(#pf5b42846ea)" d="M 269.958549 289.879129 
L 269.958549 284.349741 
" style="fill:none;stroke:#808080;stroke-width:1.5;"/>
    <path clip-path="url(#pf5b42846ea)" d="M 273.245202 290.399634 
L 273.245202 285.020231 
" style="fill:none;stroke:#808080;stroke-width:1.5;"/>
    <path clip-path="url(#pf5b42846ea)" d="M 273.373292 291.305421 
L 273.373292 285.749633 
" style="fill:none;stroke:#808080;stroke-width:1.5;"/>
    <path clip-path="url(#pf5b42846ea)" d="M 274.683856 291.681342 
L 274.683856 286.430061 
" style="fill:none;stroke:#808080;stroke-width:1.5;"/>
    <path clip-path="url(#pf5b42846ea)" d="M 285.162654 292.704747 
L 285.162654 287.552667 
" style="fill:none;stroke:#808080;stroke-width:1.5;"/>
    <path clip-path="url(#pf5b42846ea)" d="M 291.467987 293.739356 
L 291.467987 288.633532 
" style="fill:none;stroke:#808080;stroke-width:1.5;"/>
    <path clip-path="url(#pf5b42846ea)" d="M 296.026738 294.891011 
L 296.026738 289.745878 
" style="fill:none;stroke:#808080;stroke-width:1.5;"/>
    <path clip-path="url(#pf5b42846ea)" d="M 306.863853 295.648977 
L 306.863853 290.550919 
" style="fill:none;stroke:#808080;stroke-width:1.5;"/>
    <path clip-path="url(#pf5b42846ea)" d="M 323.870508 296.777371 
L 323.870508 291.751768 
" style="fill:none;stroke:#808080;stroke-width:1.5;"/>
    <path clip-path="url(#pf5b42846ea)" d="M 333.483191 297.793865 
L 333.483191 292.94375 
" style="fill:none;stroke:#808080;stroke-width:1.5;"/>
    <path clip-path="url(#pf5b42846ea)" d="M 339.877796 298.95811 
L 339.877796 294.100418 
" style="fill:none;stroke:#808080;stroke-width:1.5;"/>
    <path clip-path="url(#pf5b42846ea)" d="M 347.765292 300.32201 
L 347.765292 295.478027 
" style="fill:none;stroke:#808080;stroke-width:1.5;"/>
    <path clip-path="url(#pf5b42846ea)" d="M 362.081635 301.480903 
L 362.081635 296.791352 
" style="fill:none;stroke:#808080;stroke-width:1.5;"/>
    <path clip-path="url(#pf5b42846ea)" d="M 371.912147 302.8752 
L 371.912147 299.044997 
" style="fill:none;stroke:#808080;stroke-width:1.5;"/>
    <path clip-path="url(#pf5b42846ea)" d="M 398.487273 302.684126 
L 398.487273 302.684126 
" style="fill:none;stroke:#808080;stroke-width:1.5;"/>
   </g>
   <g id="line2d_14">
    <path clip-path="url(#pf5b42846ea)" d="M 73.832727 54.9072 
L 81.773591 54.9072 
L 82.167705 55.601253 
L 82.317325 56.295306 
L 83.590464 56.295306 
L 84.041224 56.989359 
L 84.046357 57.683412 
L 85.369864 57.683412 
L 85.617031 58.377465 
L 85.719704 59.765571 
L 86.446906 61.153677 
L 87.619326 61.153677 
L 88.459564 62.541783 
L 88.663893 63.929889 
L 88.957138 63.929889 
L 90.347233 64.623942 
L 90.439727 64.623942 
L 90.840951 65.317995 
L 91.917345 65.317995 
L 91.936842 66.012048 
L 92.53925 66.012048 
L 92.941777 66.706101 
L 93.269464 66.706101 
L 93.626797 67.400154 
L 94.418466 67.400154 
L 94.811915 68.78826 
L 95.942963 68.78826 
L 96.205798 69.482313 
L 96.337328 69.482313 
L 96.856913 70.176366 
L 97.268562 70.176366 
L 97.525074 70.870419 
L 97.80591 70.870419 
L 97.881599 71.564472 
L 98.024753 71.564472 
L 98.059519 72.258525 
L 100.059752 72.258525 
L 100.22673 72.952578 
L 100.259566 73.646631 
L 100.412097 73.646631 
L 100.71172 74.340684 
L 101.313165 75.034737 
L 101.746481 75.034737 
L 102.309578 75.72879 
L 102.431106 77.116896 
L 102.509267 77.810949 
L 105.935456 77.810949 
L 106.160782 79.893109 
L 107.088626 79.893109 
L 107.164537 80.587162 
L 108.087764 80.587162 
L 108.545083 81.281215 
L 109.451921 81.281215 
L 109.545225 82.669321 
L 110.195807 83.363374 
L 110.524271 83.363374 
L 110.593795 84.75148 
L 111.11307 85.445533 
L 111.47807 85.445533 
L 111.863738 86.139586 
L 112.183358 86.833639 
L 112.763334 86.833639 
L 113.094056 87.527692 
L 113.202677 88.221745 
L 113.697892 90.303904 
L 114.40686 90.997957 
L 114.865133 91.69201 
L 115.197788 91.69201 
L 116.594195 93.080116 
L 116.882446 93.774169 
L 117.216757 93.774169 
L 117.282981 94.468222 
L 118.039315 94.468222 
L 118.44424 95.162275 
L 118.582704 97.244434 
L 119.951046 97.244434 
L 120.022999 97.938487 
L 120.58569 99.326593 
L 121.14075 100.020646 
L 121.608698 100.020646 
L 121.891569 100.714699 
L 124.107139 100.714699 
L 124.284894 102.796858 
L 125.707179 102.796858 
L 125.830224 104.184964 
L 125.884178 104.184964 
L 126.157776 104.879017 
L 126.249033 105.57307 
L 126.597909 105.57307 
L 126.754666 108.349282 
L 128.958217 108.349282 
L 129.741188 109.043335 
L 129.879 110.431441 
L 130.278244 110.431441 
L 131.024269 111.125494 
L 131.429276 111.819547 
L 132.78678 111.819547 
L 132.925077 112.5136 
L 133.676585 113.207653 
L 134.040307 113.207653 
L 134.179581 115.289812 
L 134.626343 115.983865 
L 134.785477 116.677918 
L 134.913006 118.760077 
L 135.072002 118.760077 
L 135.364237 119.45413 
L 135.590941 120.842236 
L 135.946275 121.536289 
L 136.430969 121.536289 
L 136.526876 122.230342 
L 136.801539 122.230342 
L 136.851333 122.924395 
L 137.92449 122.924395 
L 138.413914 124.312501 
L 138.971572 124.312501 
L 139.078033 125.006554 
L 142.196164 125.006554 
L 142.343986 125.700608 
L 142.674514 125.700608 
L 142.872423 126.394661 
L 143.30899 126.394661 
L 144.046568 127.088714 
L 145.705787 127.088714 
L 146.270025 128.47682 
L 147.997621 128.47682 
L 148.399559 129.170873 
L 148.961239 129.170873 
L 149.295513 130.558979 
L 149.39295 130.558979 
L 149.527382 131.253032 
L 150.359679 131.253032 
L 150.589433 131.947085 
L 151.628061 131.947085 
L 152.07513 132.641138 
L 152.661193 133.335191 
L 153.192349 134.723297 
L 153.689654 140.275721 
L 155.990167 140.275721 
L 156.238158 141.663827 
L 156.878298 141.663827 
L 157.041467 142.35788 
L 157.996576 142.35788 
L 158.226251 143.051933 
L 158.408512 143.051933 
L 158.551242 143.745986 
L 158.568952 144.440039 
L 160.370302 145.828145 
L 160.406863 146.522198 
L 161.82057 147.216251 
L 162.0877 147.216251 
L 162.374665 147.910304 
L 162.84677 148.604357 
L 164.610868 148.604357 
L 165.201352 149.29841 
L 166.146828 149.992463 
L 166.476736 150.686516 
L 167.89598 151.380569 
L 168.211408 151.380569 
L 168.497874 152.074622 
L 168.811323 152.768675 
L 169.262573 152.768675 
L 169.727785 154.850834 
L 173.366073 154.850834 
L 173.959508 155.544887 
L 174.169303 156.23894 
L 175.488852 156.932993 
L 176.053335 156.932993 
L 176.701846 157.627046 
L 179.305406 157.627046 
L 180.039082 158.321099 
L 180.429093 159.015152 
L 180.795933 161.097311 
L 181.102138 161.791364 
L 181.328829 161.791364 
L 181.706849 163.17947 
L 184.63398 163.17947 
L 185.326739 163.873523 
L 185.355155 164.567576 
L 185.871177 165.955682 
L 188.932364 165.955682 
L 189.160471 167.343788 
L 190.732669 168.037841 
L 191.51514 168.037841 
L 192.579204 168.731894 
L 196.142293 168.731894 
L 196.478306 170.12 
L 197.139975 170.814053 
L 200.027087 172.896213 
L 201.4048 172.896213 
L 201.775258 173.590266 
L 202.161196 174.978372 
L 206.38014 174.978372 
L 207.074435 175.672425 
L 207.163137 176.366478 
L 207.574893 177.754584 
L 208.35724 177.754584 
L 208.493404 178.448637 
L 211.289772 178.448637 
L 211.43679 179.14269 
L 212.028924 180.530796 
L 212.139582 181.918902 
L 214.053265 182.612955 
L 215.494314 184.001061 
L 215.694923 184.695114 
L 217.785743 185.389167 
L 218.299799 186.777273 
L 221.576689 186.777273 
L 223.253535 188.165379 
L 228.784594 188.165379 
L 230.030913 188.859432 
L 236.976507 188.859432 
L 237.447113 189.553485 
L 242.495515 190.941591 
L 243.507163 191.635644 
L 243.847122 200.658333 
L 248.697822 200.658333 
L 251.623544 201.352386 
L 253.232992 202.046439 
L 253.613424 202.046439 
L 260.598144 204.128598 
L 263.394967 205.516704 
L 264.339031 208.986969 
L 265.440143 208.986969 
L 269.958549 210.375075 
L 273.245202 211.763181 
L 273.373292 216.621552 
L 274.683856 216.621552 
L 285.162654 220.091818 
L 291.467987 227.032348 
L 296.026738 233.278825 
L 306.863853 235.360984 
L 323.870508 246.465832 
L 333.483191 251.324203 
L 339.877796 258.264733 
L 347.765292 263.123104 
L 362.081635 286.026854 
L 371.912147 286.026854 
L 398.487273 302.684126 
L 398.487273 302.684126 
" style="fill:none;stroke:#ff0000;stroke-linecap:round;stroke-width:2;"/>
   </g>
   <g id="line2d_15">
    <path clip-path="url(#pf5b42846ea)" d="M 73.832727 55.534624 
L 75.007493 56.163436 
L 75.729118 57.377335 
L 77.051491 58.00337 
L 78.702228 58.631488 
L 79.254801 59.794721 
L 80.557 60.422839 
L 80.929095 61.679075 
L 80.942398 62.264162 
L 81.364529 63.494718 
L 81.715042 63.913926 
L 81.773591 64.516364 
L 82.167705 65.180573 
L 82.317325 66.417375 
L 83.138838 67.043411 
L 84.041224 68.159448 
L 84.046357 68.827821 
L 85.369864 69.365712 
L 85.617031 69.918179 
L 85.719704 71.254231 
L 86.402445 72.438979 
L 86.446906 72.967848 
L 86.749094 73.592495 
L 86.995525 74.671748 
L 87.492338 75.33318 
L 87.619326 75.880788 
L 88.459564 77.006542 
L 88.663893 78.223911 
L 88.957138 78.818714 
L 90.144889 79.379509 
L 90.347233 79.947939 
L 90.439727 80.673918 
L 90.840951 81.261781 
L 91.413604 82.704717 
L 91.47602 83.334917 
L 91.917345 84.505091 
L 91.936842 85.07699 
L 92.941777 86.900962 
L 93.269464 88.173161 
L 93.589736 88.865132 
L 93.626797 89.216323 
L 94.369899 89.790999 
L 94.617923 91.021555 
L 94.811915 91.619134 
L 94.822557 92.170906 
L 95.668682 92.973926 
L 95.904009 93.358431 
L 95.942963 93.824835 
L 96.205798 94.41478 
L 96.337328 95.057473 
L 97.268562 96.289417 
L 97.525074 96.85507 
L 97.86948 99.057994 
L 97.881599 99.543137 
L 98.305747 101.437902 
L 98.619779 101.998003 
L 98.747368 102.609464 
L 99.954062 104.288378 
L 100.412097 106.425367 
L 100.71172 107.056261 
L 102.309578 108.762938 
L 102.431106 109.926865 
L 102.509267 110.588991 
L 102.756253 111.165055 
L 102.813076 111.709193 
L 103.274647 112.19156 
L 103.625825 113.317314 
L 104.317869 114.70889 
L 104.628002 114.992064 
L 105.347905 117.154039 
L 105.490557 117.867525 
L 105.785837 118.447753 
L 106.039425 119.649159 
L 106.160782 121.110835 
L 106.667277 122.22826 
L 107.065546 123.461592 
L 107.164537 124.592205 
L 107.537245 125.090535 
L 107.721296 126.113569 
L 108.545083 127.321915 
L 109.451921 127.731407 
L 109.545225 128.921013 
L 110.115775 129.336751 
L 110.195807 129.811484 
L 110.593795 131.053838 
L 111.11307 131.413358 
L 111.766049 132.510656 
L 111.863738 133.476083 
L 112.183358 133.864059 
L 112.763334 134.387375 
L 113.094056 134.982873 
L 113.202677 136.121119 
L 113.33139 136.597934 
L 113.347612 137.391236 
L 113.697892 137.832654 
L 114.40686 138.262967 
L 115.197788 139.647603 
L 115.93578 140.218114 
L 115.986108 140.563059 
L 116.564883 141.159944 
L 116.594195 141.574988 
L 117.216757 142.895771 
L 117.282981 143.505844 
L 117.559158 144.025689 
L 117.622817 144.656583 
L 118.44424 146.622142 
L 118.582704 148.2025 
L 119.256814 148.657105 
L 119.328511 149.428892 
L 119.589815 149.868922 
L 119.728989 150.467195 
L 119.951046 150.921106 
L 120.022999 151.565187 
L 120.313353 152.404297 
L 120.358953 153.648734 
L 120.58569 154.287263 
L 121.14075 154.778653 
L 121.608698 156.365258 
L 121.891569 157.114141 
L 123.013768 158.300278 
L 123.86443 158.685477 
L 124.284894 159.699488 
L 124.423831 160.37966 
L 125.25714 160.741262 
L 125.707179 161.363134 
L 125.830224 163.182941 
L 125.884178 163.654203 
L 126.157776 164.03385 
L 126.249033 164.877124 
L 126.597909 165.78911 
L 126.754666 167.179298 
L 127.034576 167.502727 
L 127.088269 167.951085 
L 128.081615 168.633339 
L 128.451035 169.237165 
L 128.958217 169.762563 
L 129.741188 170.205369 
L 129.879 171.885671 
L 130.278244 172.672033 
L 131.024269 173.28627 
L 131.376094 173.835266 
L 131.429276 175.483642 
L 132.068081 176.2471 
L 132.363274 176.820388 
L 132.78678 177.308308 
L 132.925077 177.978763 
L 133.575784 178.356328 
L 133.676585 179.210013 
L 134.040307 179.822862 
L 134.179581 180.793842 
L 134.626343 181.467767 
L 135.946275 184.888755 
L 136.430969 185.413459 
L 136.526876 185.921505 
L 136.801539 186.550317 
L 136.851333 187.164554 
L 137.043743 187.910661 
L 137.92449 188.365266 
L 138.413914 189.534745 
L 138.971572 189.997679 
L 139.078033 190.544593 
L 139.398269 191.102611 
L 139.724437 192.186028 
L 140.475572 192.861342 
L 142.196164 193.187546 
L 142.674514 194.906716 
L 142.872423 195.314819 
L 143.276268 195.786081 
L 143.30899 196.552315 
L 143.99329 197.120745 
L 144.046568 197.684316 
L 144.520192 198.184728 
L 144.917904 198.83922 
L 145.705787 199.26051 
L 145.96612 199.83588 
L 146.042733 200.403616 
L 146.270025 200.913745 
L 146.345529 201.751467 
L 146.772914 202.161652 
L 147.157744 203.458837 
L 147.657644 203.882903 
L 147.997621 204.639421 
L 148.399559 205.005881 
L 148.573869 205.993519 
L 148.961239 206.375942 
L 149.527382 208.602464 
L 149.950021 209.050822 
L 150.772878 211.425178 
L 151.628061 212.022757 
L 152.661193 213.148511 
L 153.689654 214.224987 
L 155.990167 215.081449 
L 156.238158 215.733859 
L 156.878298 216.256481 
L 157.041467 216.851978 
L 157.996576 217.537008 
L 158.226251 217.952052 
L 158.568952 220.206336 
L 159.422329 220.432598 
L 160.370302 221.301552 
L 160.406863 221.667318 
L 161.82057 222.382192 
L 162.272726 223.690482 
L 162.374665 224.535839 
L 162.84677 225.195883 
L 164.610868 225.597046 
L 165.201352 226.248762 
L 166.146828 226.640208 
L 166.38821 227.351612 
L 166.476736 228.127563 
L 167.720797 228.768174 
L 167.728022 229.288714 
L 167.89598 229.995954 
L 168.211408 230.161139 
L 168.474308 231.499967 
L 168.497874 232.067702 
L 168.811323 232.375862 
L 169.262573 233.189986 
L 169.727785 233.677905 
L 171.545602 234.226901 
L 171.749999 234.811988 
L 172.126738 235.368618 
L 172.216324 236.193847 
L 173.959508 237.883867 
L 174.169303 238.339859 
L 175.488852 239.084578 
L 176.053335 239.603036 
L 177.644868 240.407443 
L 178.434955 241.09525 
L 178.688247 241.697688 
L 179.305406 242.286245 
L 180.039082 242.804702 
L 181.102138 244.841748 
L 181.328829 245.55107 
L 181.706849 246.038989 
L 182.550016 246.800366 
L 183.238911 246.953751 
L 185.326739 248.781193 
L 185.355155 249.359339 
L 185.871177 250.441368 
L 188.2762 251.379727 
L 188.932364 251.973837 
L 189.122177 252.495765 
L 189.160471 252.9351 
L 190.732669 253.470909 
L 191.51514 254.029622 
L 192.579204 254.436337 
L 194.718059 255.038775 
L 195.431775 255.84457 
L 196.142293 256.134685 
L 196.478306 256.930763 
L 197.139975 257.216713 
L 200.027087 257.613712 
L 201.4048 258.362595 
L 201.775258 258.974055 
L 202.161196 260.032486 
L 203.597956 260.538451 
L 206.38014 261.907818 
L 207.074435 262.417253 
L 207.163137 263.513162 
L 207.918882 264.380728 
L 208.35724 265.076864 
L 208.493404 265.585605 
L 209.432095 266.405975 
L 211.258185 267.07643 
L 211.289772 267.86071 
L 211.43679 268.522837 
L 212.028924 268.941351 
L 212.139582 269.427188 
L 215.494314 270.439117 
L 215.690363 270.774345 
L 215.694923 271.656486 
L 217.785743 272.198542 
L 218.299799 272.616362 
L 219.770801 273.100117 
L 220.247674 274.075261 
L 221.576689 274.715178 
L 223.253535 275.069839 
L 228.784594 275.58552 
L 230.030913 276.223355 
L 230.477417 277.005553 
L 236.976507 277.28248 
L 237.447113 277.862014 
L 242.495515 278.32703 
L 243.507163 278.950983 
L 243.847122 279.875462 
L 245.505328 280.425846 
L 248.697822 280.809657 
L 251.623544 281.422506 
L 253.232992 282.040213 
L 253.613424 282.929295 
L 260.598144 283.812825 
L 263.394967 284.474257 
L 264.339031 285.684686 
L 265.440143 286.555028 
L 269.958549 287.114435 
L 273.245202 287.709932 
L 273.373292 288.527527 
L 274.683856 289.055701 
L 285.162654 290.128707 
L 291.467987 291.186444 
L 296.026738 292.318444 
L 323.870508 294.264569 
L 333.483191 295.368807 
L 347.765292 297.900019 
L 362.081635 299.136127 
L 371.912147 300.960099 
L 398.487273 302.684126 
L 398.487273 302.684126 
" style="fill:none;stroke:#808080;stroke-linecap:round;stroke-width:1.5;"/>
   </g>
   <g id="patch_3">
    <path d="M 57.6 315.2736 
L 57.6 42.5088 
" style="fill:none;stroke:#ffffff;stroke-linecap:square;stroke-linejoin:miter;stroke-width:1.25;"/>
   </g>
   <g id="patch_4">
    <path d="M 414.72 315.2736 
L 414.72 42.5088 
" style="fill:none;stroke:#ffffff;stroke-linecap:square;stroke-linejoin:miter;stroke-width:1.25;"/>
   </g>
   <g id="patch_5">
    <path d="M 57.6 315.2736 
L 414.72 315.2736 
" style="fill:none;stroke:#ffffff;stroke-linecap:square;stroke-linejoin:miter;stroke-width:1.25;"/>
   </g>
   <g id="patch_6">
    <path d="M 57.6 42.5088 
L 414.72 42.5088 
" style="fill:none;stroke:#ffffff;stroke-linecap:square;stroke-linejoin:miter;stroke-width:1.25;"/>
   </g>
   <g id="legend_1">
    <g id="patch_7">
     <path d="M 311.502703 70.542816 
L 409.33 70.542816 
Q 410.87 70.542816 410.87 69.002816 
L 410.87 47.8988 
Q 410.87 46.3588 409.33 46.3588 
L 311.502703 46.3588 
Q 309.962703 46.3588 309.962703 47.8988 
L 309.962703 69.002816 
Q 309.962703 70.542816 311.502703 70.542816 
z
" style="fill:#eaeaf2;opacity:0.8;stroke:#cccccc;stroke-linejoin:miter;"/>
    </g>
    <g id="line2d_16">
     <path d="M 313.042703 52.255316 
L 328.442703 52.255316 
" style="fill:none;stroke:#ff0000;stroke-linecap:round;stroke-width:2;"/>
    </g>
    <g id="line2d_17"/>
    <g id="text_16">
     <text style="fill:#262626;font-family:Arial;font-size:7.7px;font-style:normal;font-weight:normal;text-anchor:start;" transform="rotate(-0, 334.602703, 54.950316)" x="334.602703" y="54.950316">Phenotypic clustering</text>
    </g>
    <g id="LineCollection_2">
     <path d="M 320.742703 67.087441 
L 320.742703 59.387441 
" style="fill:none;stroke:#808080;stroke-width:1.5;"/>
    </g>
    <g id="line2d_18">
     <path d="M 313.042703 63.237441 
L 328.442703 63.237441 
" style="fill:none;stroke:#808080;stroke-linecap:round;stroke-width:1.5;"/>
    </g>
    <g id="line2d_19"/>
    <g id="text_17">
     <text style="fill:#262626;font-family:Arial;font-size:7.7px;font-style:normal;font-weight:normal;text-anchor:start;" transform="rotate(-0, 334.602703, 65.932441)" x="334.602703" y="65.932441">Random clusters</text>
    </g>
   </g>
  </g>
 </g>
 <defs>
  <clipPath id="pf5b42846ea">
   <rect height="272.7648" width="357.12" x="57.6" y="42.5088"/>
  </clipPath>
 </defs>
</svg>
