<?xml version="1.0" encoding="utf-8" standalone="no"?>
<!DOCTYPE svg PUBLIC "-//W3C//DTD SVG 1.1//EN"
  "http://www.w3.org/Graphics/SVG/1.1/DTD/svg11.dtd">
<!-- Created with matplotlib (https://matplotlib.org/) -->
<svg height="354.24pt" version="1.1" viewBox="0 0 460.8 354.24" width="460.8pt" xmlns="http://www.w3.org/2000/svg" xmlns:xlink="http://www.w3.org/1999/xlink">
 <defs>
  <style type="text/css">
*{stroke-linecap:butt;stroke-linejoin:round;}
  </style>
 </defs>
 <g id="figure_1">
  <g id="patch_1">
   <path d="M 0 354.24 
L 460.8 354.24 
L 460.8 0 
L 0 0 
z
" style="fill:#ffffff;"/>
  </g>
  <g id="axes_1">
   <g id="patch_2">
    <path d="M 57.6 315.2736 
L 414.72 315.2736 
L 414.72 42.5088 
L 57.6 42.5088 
z
" style="fill:#ffffff;"/>
   </g>
   <g id="matplotlib.axis_1">
    <g id="xtick_1">
     <g id="line2d_1">
      <defs>
       <path d="M 0 0 
L 0 3.5 
" id="m93762b4ed4" style="stroke:#000000;stroke-width:0.8;"/>
      </defs>
      <g>
       <use style="stroke:#000000;stroke-width:0.8;" x="66.371041" xlink:href="#m93762b4ed4" y="315.2736"/>
      </g>
     </g>
     <g id="text_1">
      <text style="font-family:Arial;font-size:10px;font-style:normal;font-weight:normal;text-anchor:middle;" transform="rotate(-0, 66.371041, 329.431413)" x="66.371041" y="329.431413">0.00</text>
     </g>
    </g>
    <g id="xtick_2">
     <g id="line2d_2">
      <g>
       <use style="stroke:#000000;stroke-width:0.8;" x="111.704911" xlink:href="#m93762b4ed4" y="315.2736"/>
      </g>
     </g>
     <g id="text_2">
      <text style="font-family:Arial;font-size:10px;font-style:normal;font-weight:normal;text-anchor:middle;" transform="rotate(-0, 111.704911, 329.431413)" x="111.704911" y="329.431413">0.25</text>
     </g>
    </g>
    <g id="xtick_3">
     <g id="line2d_3">
      <g>
       <use style="stroke:#000000;stroke-width:0.8;" x="157.038781" xlink:href="#m93762b4ed4" y="315.2736"/>
      </g>
     </g>
     <g id="text_3">
      <text style="font-family:Arial;font-size:10px;font-style:normal;font-weight:normal;text-anchor:middle;" transform="rotate(-0, 157.038781, 329.431413)" x="157.038781" y="329.431413">0.50</text>
     </g>
    </g>
    <g id="xtick_4">
     <g id="line2d_4">
      <g>
       <use style="stroke:#000000;stroke-width:0.8;" x="202.372651" xlink:href="#m93762b4ed4" y="315.2736"/>
      </g>
     </g>
     <g id="text_4">
      <text style="font-family:Arial;font-size:10px;font-style:normal;font-weight:normal;text-anchor:middle;" transform="rotate(-0, 202.372651, 329.431413)" x="202.372651" y="329.431413">0.75</text>
     </g>
    </g>
    <g id="xtick_5">
     <g id="line2d_5">
      <g>
       <use style="stroke:#000000;stroke-width:0.8;" x="247.706521" xlink:href="#m93762b4ed4" y="315.2736"/>
      </g>
     </g>
     <g id="text_5">
      <text style="font-family:Arial;font-size:10px;font-style:normal;font-weight:normal;text-anchor:middle;" transform="rotate(-0, 247.706521, 329.431413)" x="247.706521" y="329.431413">1.00</text>
     </g>
    </g>
    <g id="xtick_6">
     <g id="line2d_6">
      <g>
       <use style="stroke:#000000;stroke-width:0.8;" x="293.040392" xlink:href="#m93762b4ed4" y="315.2736"/>
      </g>
     </g>
     <g id="text_6">
      <text style="font-family:Arial;font-size:10px;font-style:normal;font-weight:normal;text-anchor:middle;" transform="rotate(-0, 293.040392, 329.431413)" x="293.040392" y="329.431413">1.25</text>
     </g>
    </g>
    <g id="xtick_7">
     <g id="line2d_7">
      <g>
       <use style="stroke:#000000;stroke-width:0.8;" x="338.374262" xlink:href="#m93762b4ed4" y="315.2736"/>
      </g>
     </g>
     <g id="text_7">
      <text style="font-family:Arial;font-size:10px;font-style:normal;font-weight:normal;text-anchor:middle;" transform="rotate(-0, 338.374262, 329.431413)" x="338.374262" y="329.431413">1.50</text>
     </g>
    </g>
    <g id="xtick_8">
     <g id="line2d_8">
      <g>
       <use style="stroke:#000000;stroke-width:0.8;" x="383.708132" xlink:href="#m93762b4ed4" y="315.2736"/>
      </g>
     </g>
     <g id="text_8">
      <text style="font-family:Arial;font-size:10px;font-style:normal;font-weight:normal;text-anchor:middle;" transform="rotate(-0, 383.708132, 329.431413)" x="383.708132" y="329.431413">1.75</text>
     </g>
    </g>
    <g id="text_9">
     <text style="font-family:Arial;font-size:10px;font-style:normal;font-weight:normal;text-anchor:middle;" transform="rotate(-0, 236.16, 342.576725)" x="236.16" y="342.576725">Hierachical clustering distance</text>
    </g>
   </g>
   <g id="matplotlib.axis_2">
    <g id="ytick_1">
     <g id="line2d_9">
      <defs>
       <path d="M 0 0 
L -3.5 0 
" id="mfbcb43039a" style="stroke:#000000;stroke-width:0.8;"/>
      </defs>
      <g>
       <use style="stroke:#000000;stroke-width:0.8;" x="57.6" xlink:href="#mfbcb43039a" y="289.495843"/>
      </g>
     </g>
     <g id="text_10">
      <text style="font-family:Arial;font-size:10px;font-style:normal;font-weight:normal;text-anchor:end;" transform="rotate(-0, 50.6, 293.074749)" x="50.6" y="293.074749">0.2</text>
     </g>
    </g>
    <g id="ytick_2">
     <g id="line2d_10">
      <g>
       <use style="stroke:#000000;stroke-width:0.8;" x="57.6" xlink:href="#mfbcb43039a" y="230.848682"/>
      </g>
     </g>
     <g id="text_11">
      <text style="font-family:Arial;font-size:10px;font-style:normal;font-weight:normal;text-anchor:end;" transform="rotate(-0, 50.6, 234.427588)" x="50.6" y="234.427588">0.4</text>
     </g>
    </g>
    <g id="ytick_3">
     <g id="line2d_11">
      <g>
       <use style="stroke:#000000;stroke-width:0.8;" x="57.6" xlink:href="#mfbcb43039a" y="172.201521"/>
      </g>
     </g>
     <g id="text_12">
      <text style="font-family:Arial;font-size:10px;font-style:normal;font-weight:normal;text-anchor:end;" transform="rotate(-0, 50.6, 175.780428)" x="50.6" y="175.780428">0.6</text>
     </g>
    </g>
    <g id="ytick_4">
     <g id="line2d_12">
      <g>
       <use style="stroke:#000000;stroke-width:0.8;" x="57.6" xlink:href="#mfbcb43039a" y="113.554361"/>
      </g>
     </g>
     <g id="text_13">
      <text style="font-family:Arial;font-size:10px;font-style:normal;font-weight:normal;text-anchor:end;" transform="rotate(-0, 50.6, 117.133267)" x="50.6" y="117.133267">0.8</text>
     </g>
    </g>
    <g id="ytick_5">
     <g id="line2d_13">
      <g>
       <use style="stroke:#000000;stroke-width:0.8;" x="57.6" xlink:href="#mfbcb43039a" y="54.9072"/>
      </g>
     </g>
     <g id="text_14">
      <text style="font-family:Arial;font-size:10px;font-style:normal;font-weight:normal;text-anchor:end;" transform="rotate(-0, 50.6, 58.486106)" x="50.6" y="58.486106">1.0</text>
     </g>
    </g>
    <g id="text_15">
     <text style="font-family:Arial;font-size:10px;font-style:normal;font-weight:normal;text-anchor:middle;" transform="rotate(-90, 30.595312, 178.8912)" x="30.595312" y="178.8912">Cluster purity</text>
    </g>
   </g>
   <g id="LineCollection_1">
    <path clip-path="url(#p5a7f3c5b8b)" d="M 73.832727 55.748103 
L 73.832727 55.319022 
" style="fill:none;stroke:#808080;stroke-width:1.5;"/>
    <path clip-path="url(#p5a7f3c5b8b)" d="M 74.918426 56.464025 
L 74.918426 55.84183 
" style="fill:none;stroke:#808080;stroke-width:1.5;"/>
    <path clip-path="url(#p5a7f3c5b8b)" d="M 74.99024 57.157406 
L 74.99024 56.398375 
" style="fill:none;stroke:#808080;stroke-width:1.5;"/>
    <path clip-path="url(#p5a7f3c5b8b)" d="M 75.375431 57.831986 
L 75.375431 56.979321 
" style="fill:none;stroke:#808080;stroke-width:1.5;"/>
    <path clip-path="url(#p5a7f3c5b8b)" d="M 75.710213 58.52282 
L 75.710213 57.563607 
" style="fill:none;stroke:#808080;stroke-width:1.5;"/>
    <path clip-path="url(#p5a7f3c5b8b)" d="M 77.022058 59.175786 
L 77.022058 58.111578 
" style="fill:none;stroke:#808080;stroke-width:1.5;"/>
    <path clip-path="url(#p5a7f3c5b8b)" d="M 78.657001 59.866165 
L 78.657001 58.731312 
" style="fill:none;stroke:#808080;stroke-width:1.5;"/>
    <path clip-path="url(#p5a7f3c5b8b)" d="M 78.91947 60.535816 
L 78.91947 59.234604 
" style="fill:none;stroke:#808080;stroke-width:1.5;"/>
    <path clip-path="url(#p5a7f3c5b8b)" d="M 79.209765 61.122286 
L 79.209765 59.781886 
" style="fill:none;stroke:#808080;stroke-width:1.5;"/>
    <path clip-path="url(#p5a7f3c5b8b)" d="M 79.913106 61.776849 
L 79.913106 60.368852 
" style="fill:none;stroke:#808080;stroke-width:1.5;"/>
    <path clip-path="url(#p5a7f3c5b8b)" d="M 80.491636 62.427048 
L 80.491636 61.032965 
" style="fill:none;stroke:#808080;stroke-width:1.5;"/>
    <path clip-path="url(#p5a7f3c5b8b)" d="M 80.700169 63.10735 
L 80.700169 61.573195 
" style="fill:none;stroke:#808080;stroke-width:1.5;"/>
    <path clip-path="url(#p5a7f3c5b8b)" d="M 80.86342 63.722298 
L 80.86342 62.167583 
" style="fill:none;stroke:#808080;stroke-width:1.5;"/>
    <path clip-path="url(#p5a7f3c5b8b)" d="M 80.878289 64.434761 
L 80.878289 62.682651 
" style="fill:none;stroke:#808080;stroke-width:1.5;"/>
    <path clip-path="url(#p5a7f3c5b8b)" d="M 81.060224 65.005389 
L 81.060224 63.26537 
" style="fill:none;stroke:#808080;stroke-width:1.5;"/>
    <path clip-path="url(#p5a7f3c5b8b)" d="M 81.299533 65.57157 
L 81.299533 63.785352 
" style="fill:none;stroke:#808080;stroke-width:1.5;"/>
    <path clip-path="url(#p5a7f3c5b8b)" d="M 81.309062 66.306651 
L 81.309062 64.400974 
" style="fill:none;stroke:#808080;stroke-width:1.5;"/>
    <path clip-path="url(#p5a7f3c5b8b)" d="M 81.621714 66.86845 
L 81.621714 64.893145 
" style="fill:none;stroke:#808080;stroke-width:1.5;"/>
    <path clip-path="url(#p5a7f3c5b8b)" d="M 81.660834 67.380224 
L 81.660834 65.502526 
" style="fill:none;stroke:#808080;stroke-width:1.5;"/>
    <path clip-path="url(#p5a7f3c5b8b)" d="M 82.063738 68.093587 
L 82.063738 66.027892 
" style="fill:none;stroke:#808080;stroke-width:1.5;"/>
    <path clip-path="url(#p5a7f3c5b8b)" d="M 82.279122 68.689639 
L 82.279122 66.610382 
" style="fill:none;stroke:#808080;stroke-width:1.5;"/>
    <path clip-path="url(#p5a7f3c5b8b)" d="M 83.096649 69.26939 
L 83.096649 67.091598 
" style="fill:none;stroke:#808080;stroke-width:1.5;"/>
    <path clip-path="url(#p5a7f3c5b8b)" d="M 83.533052 69.967238 
L 83.533052 67.803242 
" style="fill:none;stroke:#808080;stroke-width:1.5;"/>
    <path clip-path="url(#p5a7f3c5b8b)" d="M 83.825737 70.558027 
L 83.825737 68.349004 
" style="fill:none;stroke:#808080;stroke-width:1.5;"/>
    <path clip-path="url(#p5a7f3c5b8b)" d="M 83.972942 71.162693 
L 83.972942 68.927079 
" style="fill:none;stroke:#808080;stroke-width:1.5;"/>
    <path clip-path="url(#p5a7f3c5b8b)" d="M 84.891285 71.876455 
L 84.891285 69.52623 
" style="fill:none;stroke:#808080;stroke-width:1.5;"/>
    <path clip-path="url(#p5a7f3c5b8b)" d="M 85.303482 72.463343 
L 85.303482 70.173871 
" style="fill:none;stroke:#808080;stroke-width:1.5;"/>
    <path clip-path="url(#p5a7f3c5b8b)" d="M 85.341494 73.079496 
L 85.341494 70.685871 
" style="fill:none;stroke:#808080;stroke-width:1.5;"/>
    <path clip-path="url(#p5a7f3c5b8b)" d="M 85.446085 73.761776 
L 85.446085 71.312305 
" style="fill:none;stroke:#808080;stroke-width:1.5;"/>
    <path clip-path="url(#p5a7f3c5b8b)" d="M 85.49351 74.373143 
L 85.49351 71.960662 
" style="fill:none;stroke:#808080;stroke-width:1.5;"/>
    <path clip-path="url(#p5a7f3c5b8b)" d="M 85.780377 75.099016 
L 85.780377 72.5533 
" style="fill:none;stroke:#808080;stroke-width:1.5;"/>
    <path clip-path="url(#p5a7f3c5b8b)" d="M 86.117787 75.64659 
L 86.117787 73.08489 
" style="fill:none;stroke:#808080;stroke-width:1.5;"/>
    <path clip-path="url(#p5a7f3c5b8b)" d="M 86.335378 76.236172 
L 86.335378 73.71724 
" style="fill:none;stroke:#808080;stroke-width:1.5;"/>
    <path clip-path="url(#p5a7f3c5b8b)" d="M 86.65626 76.892715 
L 86.65626 74.23784 
" style="fill:none;stroke:#808080;stroke-width:1.5;"/>
    <path clip-path="url(#p5a7f3c5b8b)" d="M 86.74483 77.371553 
L 86.74483 74.650607 
" style="fill:none;stroke:#808080;stroke-width:1.5;"/>
    <path clip-path="url(#p5a7f3c5b8b)" d="M 86.826683 77.964953 
L 86.826683 75.266542 
" style="fill:none;stroke:#808080;stroke-width:1.5;"/>
    <path clip-path="url(#p5a7f3c5b8b)" d="M 86.866196 78.541137 
L 86.866196 75.714934 
" style="fill:none;stroke:#808080;stroke-width:1.5;"/>
    <path clip-path="url(#p5a7f3c5b8b)" d="M 87.338891 79.173199 
L 87.338891 76.398584 
" style="fill:none;stroke:#808080;stroke-width:1.5;"/>
    <path clip-path="url(#p5a7f3c5b8b)" d="M 87.482233 79.786998 
L 87.482233 77.009516 
" style="fill:none;stroke:#808080;stroke-width:1.5;"/>
    <path clip-path="url(#p5a7f3c5b8b)" d="M 88.21705 80.376616 
L 88.21705 77.447274 
" style="fill:none;stroke:#808080;stroke-width:1.5;"/>
    <path clip-path="url(#p5a7f3c5b8b)" d="M 88.306522 81.045119 
L 88.306522 78.086085 
" style="fill:none;stroke:#808080;stroke-width:1.5;"/>
    <path clip-path="url(#p5a7f3c5b8b)" d="M 88.848818 81.598369 
L 88.848818 78.598001 
" style="fill:none;stroke:#808080;stroke-width:1.5;"/>
    <path clip-path="url(#p5a7f3c5b8b)" d="M 89.880608 82.227068 
L 89.880608 79.115651 
" style="fill:none;stroke:#808080;stroke-width:1.5;"/>
    <path clip-path="url(#p5a7f3c5b8b)" d="M 90.208391 82.82312 
L 90.208391 80.006074 
" style="fill:none;stroke:#808080;stroke-width:1.5;"/>
    <path clip-path="url(#p5a7f3c5b8b)" d="M 90.29817 83.487288 
L 90.29817 80.37208 
" style="fill:none;stroke:#808080;stroke-width:1.5;"/>
    <path clip-path="url(#p5a7f3c5b8b)" d="M 90.349344 84.044393 
L 90.349344 80.912335 
" style="fill:none;stroke:#808080;stroke-width:1.5;"/>
    <path clip-path="url(#p5a7f3c5b8b)" d="M 90.44145 84.841997 
L 90.44145 81.665592 
" style="fill:none;stroke:#808080;stroke-width:1.5;"/>
    <path clip-path="url(#p5a7f3c5b8b)" d="M 90.949608 85.343445 
L 90.949608 82.260104 
" style="fill:none;stroke:#808080;stroke-width:1.5;"/>
    <path clip-path="url(#p5a7f3c5b8b)" d="M 91.163899 85.730285 
L 91.163899 82.71168 
" style="fill:none;stroke:#808080;stroke-width:1.5;"/>
    <path clip-path="url(#p5a7f3c5b8b)" d="M 91.288107 86.216194 
L 91.288107 83.117375 
" style="fill:none;stroke:#808080;stroke-width:1.5;"/>
    <path clip-path="url(#p5a7f3c5b8b)" d="M 91.482011 86.877545 
L 91.482011 83.71295 
" style="fill:none;stroke:#808080;stroke-width:1.5;"/>
    <path clip-path="url(#p5a7f3c5b8b)" d="M 91.590304 87.396174 
L 91.590304 84.181104 
" style="fill:none;stroke:#808080;stroke-width:1.5;"/>
    <path clip-path="url(#p5a7f3c5b8b)" d="M 91.675933 88.113702 
L 91.675933 84.903861 
" style="fill:none;stroke:#808080;stroke-width:1.5;"/>
    <path clip-path="url(#p5a7f3c5b8b)" d="M 91.885575 88.864209 
L 91.885575 85.564246 
" style="fill:none;stroke:#808080;stroke-width:1.5;"/>
    <path clip-path="url(#p5a7f3c5b8b)" d="M 92.122898 89.38882 
L 92.122898 86.030617 
" style="fill:none;stroke:#808080;stroke-width:1.5;"/>
    <path clip-path="url(#p5a7f3c5b8b)" d="M 92.444121 89.902493 
L 92.444121 86.528923 
" style="fill:none;stroke:#808080;stroke-width:1.5;"/>
    <path clip-path="url(#p5a7f3c5b8b)" d="M 92.601093 90.496929 
L 92.601093 87.083635 
" style="fill:none;stroke:#808080;stroke-width:1.5;"/>
    <path clip-path="url(#p5a7f3c5b8b)" d="M 92.803918 91.197094 
L 92.803918 87.791562 
" style="fill:none;stroke:#808080;stroke-width:1.5;"/>
    <path clip-path="url(#p5a7f3c5b8b)" d="M 93.047814 91.838419 
L 93.047814 88.335778 
" style="fill:none;stroke:#808080;stroke-width:1.5;"/>
    <path clip-path="url(#p5a7f3c5b8b)" d="M 93.106951 92.329728 
L 93.106951 88.88584 
" style="fill:none;stroke:#808080;stroke-width:1.5;"/>
    <path clip-path="url(#p5a7f3c5b8b)" d="M 93.148247 93.109455 
L 93.148247 89.477813 
" style="fill:none;stroke:#808080;stroke-width:1.5;"/>
    <path clip-path="url(#p5a7f3c5b8b)" d="M 93.236913 93.516247 
L 93.236913 89.973824 
" style="fill:none;stroke:#808080;stroke-width:1.5;"/>
    <path clip-path="url(#p5a7f3c5b8b)" d="M 94.183067 93.963541 
L 94.183067 90.34815 
" style="fill:none;stroke:#808080;stroke-width:1.5;"/>
    <path clip-path="url(#p5a7f3c5b8b)" d="M 94.211669 94.440782 
L 94.211669 90.811502 
" style="fill:none;stroke:#808080;stroke-width:1.5;"/>
    <path clip-path="url(#p5a7f3c5b8b)" d="M 94.228914 94.872689 
L 94.228914 91.142429 
" style="fill:none;stroke:#808080;stroke-width:1.5;"/>
    <path clip-path="url(#p5a7f3c5b8b)" d="M 94.235118 95.335592 
L 94.235118 91.741894 
" style="fill:none;stroke:#808080;stroke-width:1.5;"/>
    <path clip-path="url(#p5a7f3c5b8b)" d="M 94.412291 95.889858 
L 94.412291 92.245796 
" style="fill:none;stroke:#808080;stroke-width:1.5;"/>
    <path clip-path="url(#p5a7f3c5b8b)" d="M 94.473907 96.43357 
L 94.473907 92.854031 
" style="fill:none;stroke:#808080;stroke-width:1.5;"/>
    <path clip-path="url(#p5a7f3c5b8b)" d="M 95.214358 96.91763 
L 95.214358 93.325962 
" style="fill:none;stroke:#808080;stroke-width:1.5;"/>
    <path clip-path="url(#p5a7f3c5b8b)" d="M 95.516972 97.549643 
L 95.516972 93.929879 
" style="fill:none;stroke:#808080;stroke-width:1.5;"/>
    <path clip-path="url(#p5a7f3c5b8b)" d="M 95.521463 98.280459 
L 95.521463 94.370607 
" style="fill:none;stroke:#808080;stroke-width:1.5;"/>
    <path clip-path="url(#p5a7f3c5b8b)" d="M 95.739708 98.49231 
L 95.739708 94.892195 
" style="fill:none;stroke:#808080;stroke-width:1.5;"/>
    <path clip-path="url(#p5a7f3c5b8b)" d="M 95.782387 99.29327 
L 95.782387 95.454536 
" style="fill:none;stroke:#808080;stroke-width:1.5;"/>
    <path clip-path="url(#p5a7f3c5b8b)" d="M 96.143216 99.890688 
L 96.143216 96.090248 
" style="fill:none;stroke:#808080;stroke-width:1.5;"/>
    <path clip-path="url(#p5a7f3c5b8b)" d="M 96.324075 100.511714 
L 96.324075 96.870316 
" style="fill:none;stroke:#808080;stroke-width:1.5;"/>
    <path clip-path="url(#p5a7f3c5b8b)" d="M 97.058733 101.097578 
L 97.058733 97.352417 
" style="fill:none;stroke:#808080;stroke-width:1.5;"/>
    <path clip-path="url(#p5a7f3c5b8b)" d="M 97.329972 101.682954 
L 97.329972 97.567666 
" style="fill:none;stroke:#808080;stroke-width:1.5;"/>
    <path clip-path="url(#p5a7f3c5b8b)" d="M 97.441968 102.255609 
L 97.441968 98.36951 
" style="fill:none;stroke:#808080;stroke-width:1.5;"/>
    <path clip-path="url(#p5a7f3c5b8b)" d="M 97.514784 102.963987 
L 97.514784 99.081821 
" style="fill:none;stroke:#808080;stroke-width:1.5;"/>
    <path clip-path="url(#p5a7f3c5b8b)" d="M 97.652339 103.576622 
L 97.652339 99.724712 
" style="fill:none;stroke:#808080;stroke-width:1.5;"/>
    <path clip-path="url(#p5a7f3c5b8b)" d="M 97.661102 104.13754 
L 97.661102 100.151977 
" style="fill:none;stroke:#808080;stroke-width:1.5;"/>
    <path clip-path="url(#p5a7f3c5b8b)" d="M 97.793331 104.681928 
L 97.793331 100.65456 
" style="fill:none;stroke:#808080;stroke-width:1.5;"/>
    <path clip-path="url(#p5a7f3c5b8b)" d="M 97.886082 105.410279 
L 97.886082 101.416882 
" style="fill:none;stroke:#808080;stroke-width:1.5;"/>
    <path clip-path="url(#p5a7f3c5b8b)" d="M 98.074066 105.97546 
L 98.074066 101.704115 
" style="fill:none;stroke:#808080;stroke-width:1.5;"/>
    <path clip-path="url(#p5a7f3c5b8b)" d="M 98.100104 106.402292 
L 98.100104 102.376042 
" style="fill:none;stroke:#808080;stroke-width:1.5;"/>
    <path clip-path="url(#p5a7f3c5b8b)" d="M 98.514096 107.074791 
L 98.514096 102.912879 
" style="fill:none;stroke:#808080;stroke-width:1.5;"/>
    <path clip-path="url(#p5a7f3c5b8b)" d="M 98.90279 107.625915 
L 98.90279 103.587886 
" style="fill:none;stroke:#808080;stroke-width:1.5;"/>
    <path clip-path="url(#p5a7f3c5b8b)" d="M 99.243158 108.061891 
L 99.243158 103.987527 
" style="fill:none;stroke:#808080;stroke-width:1.5;"/>
    <path clip-path="url(#p5a7f3c5b8b)" d="M 99.571963 108.672983 
L 99.571963 104.643158 
" style="fill:none;stroke:#808080;stroke-width:1.5;"/>
    <path clip-path="url(#p5a7f3c5b8b)" d="M 99.845455 109.378738 
L 99.845455 105.178931 
" style="fill:none;stroke:#808080;stroke-width:1.5;"/>
    <path clip-path="url(#p5a7f3c5b8b)" d="M 100.020577 109.868892 
L 100.020577 105.793135 
" style="fill:none;stroke:#808080;stroke-width:1.5;"/>
    <path clip-path="url(#p5a7f3c5b8b)" d="M 100.253657 110.534513 
L 100.253657 106.283661 
" style="fill:none;stroke:#808080;stroke-width:1.5;"/>
    <path clip-path="url(#p5a7f3c5b8b)" d="M 100.319042 111.085876 
L 100.319042 106.989223 
" style="fill:none;stroke:#808080;stroke-width:1.5;"/>
    <path clip-path="url(#p5a7f3c5b8b)" d="M 100.940938 111.767176 
L 100.940938 107.538254 
" style="fill:none;stroke:#808080;stroke-width:1.5;"/>
    <path clip-path="url(#p5a7f3c5b8b)" d="M 101.013143 112.269271 
L 101.013143 108.123721 
" style="fill:none;stroke:#808080;stroke-width:1.5;"/>
    <path clip-path="url(#p5a7f3c5b8b)" d="M 101.501782 112.917169 
L 101.501782 108.63057 
" style="fill:none;stroke:#808080;stroke-width:1.5;"/>
    <path clip-path="url(#p5a7f3c5b8b)" d="M 101.871086 113.51259 
L 101.871086 109.180098 
" style="fill:none;stroke:#808080;stroke-width:1.5;"/>
    <path clip-path="url(#p5a7f3c5b8b)" d="M 101.971168 114.066072 
L 101.971168 109.690384 
" style="fill:none;stroke:#808080;stroke-width:1.5;"/>
    <path clip-path="url(#p5a7f3c5b8b)" d="M 102.062 114.768054 
L 102.062 110.551859 
" style="fill:none;stroke:#808080;stroke-width:1.5;"/>
    <path clip-path="url(#p5a7f3c5b8b)" d="M 102.348549 115.178067 
L 102.348549 110.973264 
" style="fill:none;stroke:#808080;stroke-width:1.5;"/>
    <path clip-path="url(#p5a7f3c5b8b)" d="M 102.490547 115.901318 
L 102.490547 111.477544 
" style="fill:none;stroke:#808080;stroke-width:1.5;"/>
    <path clip-path="url(#p5a7f3c5b8b)" d="M 102.538689 116.234272 
L 102.538689 112.115977 
" style="fill:none;stroke:#808080;stroke-width:1.5;"/>
    <path clip-path="url(#p5a7f3c5b8b)" d="M 102.900557 116.886956 
L 102.900557 112.592846 
" style="fill:none;stroke:#808080;stroke-width:1.5;"/>
    <path clip-path="url(#p5a7f3c5b8b)" d="M 103.020813 117.451785 
L 103.020813 113.228954 
" style="fill:none;stroke:#808080;stroke-width:1.5;"/>
    <path clip-path="url(#p5a7f3c5b8b)" d="M 103.225572 118.109004 
L 103.225572 113.900044 
" style="fill:none;stroke:#808080;stroke-width:1.5;"/>
    <path clip-path="url(#p5a7f3c5b8b)" d="M 103.253666 118.767139 
L 103.253666 114.33647 
" style="fill:none;stroke:#808080;stroke-width:1.5;"/>
    <path clip-path="url(#p5a7f3c5b8b)" d="M 103.602699 119.356296 
L 103.602699 115.060226 
" style="fill:none;stroke:#808080;stroke-width:1.5;"/>
    <path clip-path="url(#p5a7f3c5b8b)" d="M 104.022743 120.051551 
L 104.022743 115.528116 
" style="fill:none;stroke:#808080;stroke-width:1.5;"/>
    <path clip-path="url(#p5a7f3c5b8b)" d="M 104.086549 120.519131 
L 104.086549 116.059917 
" style="fill:none;stroke:#808080;stroke-width:1.5;"/>
    <path clip-path="url(#p5a7f3c5b8b)" d="M 104.580249 120.8853 
L 104.580249 116.596551 
" style="fill:none;stroke:#808080;stroke-width:1.5;"/>
    <path clip-path="url(#p5a7f3c5b8b)" d="M 104.971055 121.601105 
L 104.971055 117.172663 
" style="fill:none;stroke:#808080;stroke-width:1.5;"/>
    <path clip-path="url(#p5a7f3c5b8b)" d="M 105.091077 122.396259 
L 105.091077 117.870982 
" style="fill:none;stroke:#808080;stroke-width:1.5;"/>
    <path clip-path="url(#p5a7f3c5b8b)" d="M 105.131986 122.656625 
L 105.131986 118.048719 
" style="fill:none;stroke:#808080;stroke-width:1.5;"/>
    <path clip-path="url(#p5a7f3c5b8b)" d="M 105.238874 123.0911 
L 105.238874 118.554839 
" style="fill:none;stroke:#808080;stroke-width:1.5;"/>
    <path clip-path="url(#p5a7f3c5b8b)" d="M 105.333843 123.672114 
L 105.333843 119.311932 
" style="fill:none;stroke:#808080;stroke-width:1.5;"/>
    <path clip-path="url(#p5a7f3c5b8b)" d="M 105.353075 124.37454 
L 105.353075 119.908421 
" style="fill:none;stroke:#808080;stroke-width:1.5;"/>
    <path clip-path="url(#p5a7f3c5b8b)" d="M 105.481706 125.073847 
L 105.481706 120.579414 
" style="fill:none;stroke:#808080;stroke-width:1.5;"/>
    <path clip-path="url(#p5a7f3c5b8b)" d="M 105.524444 125.692235 
L 105.524444 121.156365 
" style="fill:none;stroke:#808080;stroke-width:1.5;"/>
    <path clip-path="url(#p5a7f3c5b8b)" d="M 105.528781 126.075504 
L 105.528781 121.559724 
" style="fill:none;stroke:#808080;stroke-width:1.5;"/>
    <path clip-path="url(#p5a7f3c5b8b)" d="M 106.092134 126.74456 
L 106.092134 121.936239 
" style="fill:none;stroke:#808080;stroke-width:1.5;"/>
    <path clip-path="url(#p5a7f3c5b8b)" d="M 106.207029 127.214115 
L 106.207029 122.635428 
" style="fill:none;stroke:#808080;stroke-width:1.5;"/>
    <path clip-path="url(#p5a7f3c5b8b)" d="M 106.271444 127.730415 
L 106.271444 123.06672 
" style="fill:none;stroke:#808080;stroke-width:1.5;"/>
    <path clip-path="url(#p5a7f3c5b8b)" d="M 106.410909 128.353443 
L 106.410909 123.678222 
" style="fill:none;stroke:#808080;stroke-width:1.5;"/>
    <path clip-path="url(#p5a7f3c5b8b)" d="M 106.572557 129.14241 
L 106.572557 124.521298 
" style="fill:none;stroke:#808080;stroke-width:1.5;"/>
    <path clip-path="url(#p5a7f3c5b8b)" d="M 106.830094 129.509665 
L 106.830094 124.949069 
" style="fill:none;stroke:#808080;stroke-width:1.5;"/>
    <path clip-path="url(#p5a7f3c5b8b)" d="M 106.933328 130.047953 
L 106.933328 125.498343 
" style="fill:none;stroke:#808080;stroke-width:1.5;"/>
    <path clip-path="url(#p5a7f3c5b8b)" d="M 107.038418 130.699415 
L 107.038418 125.90225 
" style="fill:none;stroke:#808080;stroke-width:1.5;"/>
    <path clip-path="url(#p5a7f3c5b8b)" d="M 107.109958 131.385674 
L 107.109958 126.503709 
" style="fill:none;stroke:#808080;stroke-width:1.5;"/>
    <path clip-path="url(#p5a7f3c5b8b)" d="M 107.485203 131.58702 
L 107.485203 126.989612 
" style="fill:none;stroke:#808080;stroke-width:1.5;"/>
    <path clip-path="url(#p5a7f3c5b8b)" d="M 107.752251 132.292759 
L 107.752251 127.5296 
" style="fill:none;stroke:#808080;stroke-width:1.5;"/>
    <path clip-path="url(#p5a7f3c5b8b)" d="M 107.783612 132.845583 
L 107.783612 128.061539 
" style="fill:none;stroke:#808080;stroke-width:1.5;"/>
    <path clip-path="url(#p5a7f3c5b8b)" d="M 108.011755 133.308308 
L 108.011755 128.647185 
" style="fill:none;stroke:#808080;stroke-width:1.5;"/>
    <path clip-path="url(#p5a7f3c5b8b)" d="M 108.872229 133.94962 
L 108.872229 129.244601 
" style="fill:none;stroke:#808080;stroke-width:1.5;"/>
    <path clip-path="url(#p5a7f3c5b8b)" d="M 109.111295 134.371996 
L 109.111295 129.793613 
" style="fill:none;stroke:#808080;stroke-width:1.5;"/>
    <path clip-path="url(#p5a7f3c5b8b)" d="M 109.493485 134.765652 
L 109.493485 130.141794 
" style="fill:none;stroke:#808080;stroke-width:1.5;"/>
    <path clip-path="url(#p5a7f3c5b8b)" d="M 109.589924 135.432402 
L 109.589924 130.572404 
" style="fill:none;stroke:#808080;stroke-width:1.5;"/>
    <path clip-path="url(#p5a7f3c5b8b)" d="M 109.848045 135.977021 
L 109.848045 131.141941 
" style="fill:none;stroke:#808080;stroke-width:1.5;"/>
    <path clip-path="url(#p5a7f3c5b8b)" d="M 110.045479 136.538277 
L 110.045479 131.682244 
" style="fill:none;stroke:#808080;stroke-width:1.5;"/>
    <path clip-path="url(#p5a7f3c5b8b)" d="M 111.145893 137.076871 
L 111.145893 132.182223 
" style="fill:none;stroke:#808080;stroke-width:1.5;"/>
    <path clip-path="url(#p5a7f3c5b8b)" d="M 111.19951 137.359076 
L 111.19951 132.504685 
" style="fill:none;stroke:#808080;stroke-width:1.5;"/>
    <path clip-path="url(#p5a7f3c5b8b)" d="M 111.311147 138.009078 
L 111.311147 133.142401 
" style="fill:none;stroke:#808080;stroke-width:1.5;"/>
    <path clip-path="url(#p5a7f3c5b8b)" d="M 111.563511 138.430537 
L 111.563511 133.389995 
" style="fill:none;stroke:#808080;stroke-width:1.5;"/>
    <path clip-path="url(#p5a7f3c5b8b)" d="M 112.350572 138.936024 
L 112.350572 134.081246 
" style="fill:none;stroke:#808080;stroke-width:1.5;"/>
    <path clip-path="url(#p5a7f3c5b8b)" d="M 112.487099 139.487429 
L 112.487099 134.54602 
" style="fill:none;stroke:#808080;stroke-width:1.5;"/>
    <path clip-path="url(#p5a7f3c5b8b)" d="M 112.632586 140.091196 
L 112.632586 135.269161 
" style="fill:none;stroke:#808080;stroke-width:1.5;"/>
    <path clip-path="url(#p5a7f3c5b8b)" d="M 112.764042 140.56368 
L 112.764042 135.677086 
" style="fill:none;stroke:#808080;stroke-width:1.5;"/>
    <path clip-path="url(#p5a7f3c5b8b)" d="M 112.856681 141.334877 
L 112.856681 136.441352 
" style="fill:none;stroke:#808080;stroke-width:1.5;"/>
    <path clip-path="url(#p5a7f3c5b8b)" d="M 112.993195 141.758996 
L 112.993195 136.892041 
" style="fill:none;stroke:#808080;stroke-width:1.5;"/>
    <path clip-path="url(#p5a7f3c5b8b)" d="M 114.353902 142.521187 
L 114.353902 137.404972 
" style="fill:none;stroke:#808080;stroke-width:1.5;"/>
    <path clip-path="url(#p5a7f3c5b8b)" d="M 114.833543 143.029273 
L 114.833543 138.076827 
" style="fill:none;stroke:#808080;stroke-width:1.5;"/>
    <path clip-path="url(#p5a7f3c5b8b)" d="M 115.12303 143.555146 
L 115.12303 138.639916 
" style="fill:none;stroke:#808080;stroke-width:1.5;"/>
    <path clip-path="url(#p5a7f3c5b8b)" d="M 115.530289 144.3638 
L 115.530289 139.16237 
" style="fill:none;stroke:#808080;stroke-width:1.5;"/>
    <path clip-path="url(#p5a7f3c5b8b)" d="M 115.617623 144.673027 
L 115.617623 139.659366 
" style="fill:none;stroke:#808080;stroke-width:1.5;"/>
    <path clip-path="url(#p5a7f3c5b8b)" d="M 115.867286 145.249276 
L 115.867286 140.165081 
" style="fill:none;stroke:#808080;stroke-width:1.5;"/>
    <path clip-path="url(#p5a7f3c5b8b)" d="M 116.313435 145.791418 
L 116.313435 140.75949 
" style="fill:none;stroke:#808080;stroke-width:1.5;"/>
    <path clip-path="url(#p5a7f3c5b8b)" d="M 116.530957 146.484707 
L 116.530957 141.545677 
" style="fill:none;stroke:#808080;stroke-width:1.5;"/>
    <path clip-path="url(#p5a7f3c5b8b)" d="M 116.810928 146.983239 
L 116.810928 141.795981 
" style="fill:none;stroke:#808080;stroke-width:1.5;"/>
    <path clip-path="url(#p5a7f3c5b8b)" d="M 116.857874 147.398855 
L 116.857874 142.497321 
" style="fill:none;stroke:#808080;stroke-width:1.5;"/>
    <path clip-path="url(#p5a7f3c5b8b)" d="M 117.011329 148.302376 
L 117.011329 143.143261 
" style="fill:none;stroke:#808080;stroke-width:1.5;"/>
    <path clip-path="url(#p5a7f3c5b8b)" d="M 117.215918 148.904477 
L 117.215918 143.784087 
" style="fill:none;stroke:#808080;stroke-width:1.5;"/>
    <path clip-path="url(#p5a7f3c5b8b)" d="M 117.236827 149.512643 
L 117.236827 144.397854 
" style="fill:none;stroke:#808080;stroke-width:1.5;"/>
    <path clip-path="url(#p5a7f3c5b8b)" d="M 117.532444 150.012106 
L 117.532444 144.959359 
" style="fill:none;stroke:#808080;stroke-width:1.5;"/>
    <path clip-path="url(#p5a7f3c5b8b)" d="M 117.784243 150.78104 
L 117.784243 145.627909 
" style="fill:none;stroke:#808080;stroke-width:1.5;"/>
    <path clip-path="url(#p5a7f3c5b8b)" d="M 117.832027 151.407582 
L 117.832027 146.368869 
" style="fill:none;stroke:#808080;stroke-width:1.5;"/>
    <path clip-path="url(#p5a7f3c5b8b)" d="M 118.050477 151.777219 
L 118.050477 146.783059 
" style="fill:none;stroke:#808080;stroke-width:1.5;"/>
    <path clip-path="url(#p5a7f3c5b8b)" d="M 118.605007 152.575124 
L 118.605007 147.303666 
" style="fill:none;stroke:#808080;stroke-width:1.5;"/>
    <path clip-path="url(#p5a7f3c5b8b)" d="M 118.718588 153.074248 
L 118.718588 147.9145 
" style="fill:none;stroke:#808080;stroke-width:1.5;"/>
    <path clip-path="url(#p5a7f3c5b8b)" d="M 118.784914 153.532409 
L 118.784914 148.45432 
" style="fill:none;stroke:#808080;stroke-width:1.5;"/>
    <path clip-path="url(#p5a7f3c5b8b)" d="M 118.845973 154.355503 
L 118.845973 149.092506 
" style="fill:none;stroke:#808080;stroke-width:1.5;"/>
    <path clip-path="url(#p5a7f3c5b8b)" d="M 119.02926 155.078127 
L 119.02926 149.79337 
" style="fill:none;stroke:#808080;stroke-width:1.5;"/>
    <path clip-path="url(#p5a7f3c5b8b)" d="M 119.076719 155.531909 
L 119.076719 150.341769 
" style="fill:none;stroke:#808080;stroke-width:1.5;"/>
    <path clip-path="url(#p5a7f3c5b8b)" d="M 119.094257 156.210261 
L 119.094257 151.152691 
" style="fill:none;stroke:#808080;stroke-width:1.5;"/>
    <path clip-path="url(#p5a7f3c5b8b)" d="M 119.253809 156.744734 
L 119.253809 151.697381 
" style="fill:none;stroke:#808080;stroke-width:1.5;"/>
    <path clip-path="url(#p5a7f3c5b8b)" d="M 119.279749 157.294254 
L 119.279749 152.119249 
" style="fill:none;stroke:#808080;stroke-width:1.5;"/>
    <path clip-path="url(#p5a7f3c5b8b)" d="M 119.738734 157.650628 
L 119.738734 152.665677 
" style="fill:none;stroke:#808080;stroke-width:1.5;"/>
    <path clip-path="url(#p5a7f3c5b8b)" d="M 119.797435 158.523225 
L 119.797435 153.16758 
" style="fill:none;stroke:#808080;stroke-width:1.5;"/>
    <path clip-path="url(#p5a7f3c5b8b)" d="M 120.131468 158.909625 
L 120.131468 153.746968 
" style="fill:none;stroke:#808080;stroke-width:1.5;"/>
    <path clip-path="url(#p5a7f3c5b8b)" d="M 120.809654 159.678107 
L 120.809654 154.259206 
" style="fill:none;stroke:#808080;stroke-width:1.5;"/>
    <path clip-path="url(#p5a7f3c5b8b)" d="M 121.136312 160.182607 
L 121.136312 154.926249 
" style="fill:none;stroke:#808080;stroke-width:1.5;"/>
    <path clip-path="url(#p5a7f3c5b8b)" d="M 121.310359 160.645529 
L 121.310359 155.356332 
" style="fill:none;stroke:#808080;stroke-width:1.5;"/>
    <path clip-path="url(#p5a7f3c5b8b)" d="M 121.637649 161.17741 
L 121.637649 155.760846 
" style="fill:none;stroke:#808080;stroke-width:1.5;"/>
    <path clip-path="url(#p5a7f3c5b8b)" d="M 122.274314 161.64292 
L 122.274314 156.217734 
" style="fill:none;stroke:#808080;stroke-width:1.5;"/>
    <path clip-path="url(#p5a7f3c5b8b)" d="M 123.285964 161.974325 
L 123.285964 156.797529 
" style="fill:none;stroke:#808080;stroke-width:1.5;"/>
    <path clip-path="url(#p5a7f3c5b8b)" d="M 123.420526 162.761057 
L 123.420526 157.537863 
" style="fill:none;stroke:#808080;stroke-width:1.5;"/>
    <path clip-path="url(#p5a7f3c5b8b)" d="M 123.600322 163.027327 
L 123.600322 157.764285 
" style="fill:none;stroke:#808080;stroke-width:1.5;"/>
    <path clip-path="url(#p5a7f3c5b8b)" d="M 123.819568 163.623423 
L 123.819568 158.236155 
" style="fill:none;stroke:#808080;stroke-width:1.5;"/>
    <path clip-path="url(#p5a7f3c5b8b)" d="M 123.986852 164.247798 
L 123.986852 159.012874 
" style="fill:none;stroke:#808080;stroke-width:1.5;"/>
    <path clip-path="url(#p5a7f3c5b8b)" d="M 124.16778 164.912704 
L 124.16778 159.396337 
" style="fill:none;stroke:#808080;stroke-width:1.5;"/>
    <path clip-path="url(#p5a7f3c5b8b)" d="M 124.496122 165.359084 
L 124.496122 159.959137 
" style="fill:none;stroke:#808080;stroke-width:1.5;"/>
    <path clip-path="url(#p5a7f3c5b8b)" d="M 124.542041 165.727176 
L 124.542041 160.348279 
" style="fill:none;stroke:#808080;stroke-width:1.5;"/>
    <path clip-path="url(#p5a7f3c5b8b)" d="M 124.753003 166.274207 
L 124.753003 160.838421 
" style="fill:none;stroke:#808080;stroke-width:1.5;"/>
    <path clip-path="url(#p5a7f3c5b8b)" d="M 124.846445 166.716135 
L 124.846445 161.442064 
" style="fill:none;stroke:#808080;stroke-width:1.5;"/>
    <path clip-path="url(#p5a7f3c5b8b)" d="M 125.03264 167.571008 
L 125.03264 162.185642 
" style="fill:none;stroke:#808080;stroke-width:1.5;"/>
    <path clip-path="url(#p5a7f3c5b8b)" d="M 125.166965 167.946622 
L 125.166965 162.886391 
" style="fill:none;stroke:#808080;stroke-width:1.5;"/>
    <path clip-path="url(#p5a7f3c5b8b)" d="M 125.387715 168.468614 
L 125.387715 163.131432 
" style="fill:none;stroke:#808080;stroke-width:1.5;"/>
    <path clip-path="url(#p5a7f3c5b8b)" d="M 125.413026 169.266945 
L 125.413026 164.02533 
" style="fill:none;stroke:#808080;stroke-width:1.5;"/>
    <path clip-path="url(#p5a7f3c5b8b)" d="M 125.503845 169.885381 
L 125.503845 164.42867 
" style="fill:none;stroke:#808080;stroke-width:1.5;"/>
    <path clip-path="url(#p5a7f3c5b8b)" d="M 125.812484 170.487236 
L 125.812484 165.246105 
" style="fill:none;stroke:#808080;stroke-width:1.5;"/>
    <path clip-path="url(#p5a7f3c5b8b)" d="M 125.95652 171.221086 
L 125.95652 165.769179 
" style="fill:none;stroke:#808080;stroke-width:1.5;"/>
    <path clip-path="url(#p5a7f3c5b8b)" d="M 126.031315 171.438209 
L 126.031315 166.228108 
" style="fill:none;stroke:#808080;stroke-width:1.5;"/>
    <path clip-path="url(#p5a7f3c5b8b)" d="M 126.599815 172.02823 
L 126.599815 166.595478 
" style="fill:none;stroke:#808080;stroke-width:1.5;"/>
    <path clip-path="url(#p5a7f3c5b8b)" d="M 126.679854 172.46362 
L 126.679854 167.116079 
" style="fill:none;stroke:#808080;stroke-width:1.5;"/>
    <path clip-path="url(#p5a7f3c5b8b)" d="M 127.170237 173.13293 
L 127.170237 167.558125 
" style="fill:none;stroke:#808080;stroke-width:1.5;"/>
    <path clip-path="url(#p5a7f3c5b8b)" d="M 127.717786 173.508342 
L 127.717786 168.133105 
" style="fill:none;stroke:#808080;stroke-width:1.5;"/>
    <path clip-path="url(#p5a7f3c5b8b)" d="M 127.99456 174.048497 
L 127.99456 168.452362 
" style="fill:none;stroke:#808080;stroke-width:1.5;"/>
    <path clip-path="url(#p5a7f3c5b8b)" d="M 128.251566 174.54801 
L 128.251566 168.984423 
" style="fill:none;stroke:#808080;stroke-width:1.5;"/>
    <path clip-path="url(#p5a7f3c5b8b)" d="M 128.392205 175.105497 
L 128.392205 169.776241 
" style="fill:none;stroke:#808080;stroke-width:1.5;"/>
    <path clip-path="url(#p5a7f3c5b8b)" d="M 128.430395 175.770373 
L 128.430395 170.158335 
" style="fill:none;stroke:#808080;stroke-width:1.5;"/>
    <path clip-path="url(#p5a7f3c5b8b)" d="M 128.600431 176.588087 
L 128.600431 171.070644 
" style="fill:none;stroke:#808080;stroke-width:1.5;"/>
    <path clip-path="url(#p5a7f3c5b8b)" d="M 128.94889 177.050729 
L 128.94889 171.314847 
" style="fill:none;stroke:#808080;stroke-width:1.5;"/>
    <path clip-path="url(#p5a7f3c5b8b)" d="M 129.202693 177.706764 
L 129.202693 172.233467 
" style="fill:none;stroke:#808080;stroke-width:1.5;"/>
    <path clip-path="url(#p5a7f3c5b8b)" d="M 129.676132 178.343561 
L 129.676132 172.909582 
" style="fill:none;stroke:#808080;stroke-width:1.5;"/>
    <path clip-path="url(#p5a7f3c5b8b)" d="M 130.123523 179.218771 
L 130.123523 173.417269 
" style="fill:none;stroke:#808080;stroke-width:1.5;"/>
    <path clip-path="url(#p5a7f3c5b8b)" d="M 130.439797 179.745267 
L 130.439797 174.346455 
" style="fill:none;stroke:#808080;stroke-width:1.5;"/>
    <path clip-path="url(#p5a7f3c5b8b)" d="M 130.870638 180.417152 
L 130.870638 174.844713 
" style="fill:none;stroke:#808080;stroke-width:1.5;"/>
    <path clip-path="url(#p5a7f3c5b8b)" d="M 130.99119 180.854418 
L 130.99119 175.395631 
" style="fill:none;stroke:#808080;stroke-width:1.5;"/>
    <path clip-path="url(#p5a7f3c5b8b)" d="M 131.268036 181.404231 
L 131.268036 175.873193 
" style="fill:none;stroke:#808080;stroke-width:1.5;"/>
    <path clip-path="url(#p5a7f3c5b8b)" d="M 131.467655 182.179328 
L 131.467655 176.707744 
" style="fill:none;stroke:#808080;stroke-width:1.5;"/>
    <path clip-path="url(#p5a7f3c5b8b)" d="M 131.538606 182.447651 
L 131.538606 177.021693 
" style="fill:none;stroke:#808080;stroke-width:1.5;"/>
    <path clip-path="url(#p5a7f3c5b8b)" d="M 131.805624 183.40263 
L 131.805624 177.86952 
" style="fill:none;stroke:#808080;stroke-width:1.5;"/>
    <path clip-path="url(#p5a7f3c5b8b)" d="M 132.065062 183.888969 
L 132.065062 178.209 
" style="fill:none;stroke:#808080;stroke-width:1.5;"/>
    <path clip-path="url(#p5a7f3c5b8b)" d="M 132.148261 184.190515 
L 132.148261 178.652091 
" style="fill:none;stroke:#808080;stroke-width:1.5;"/>
    <path clip-path="url(#p5a7f3c5b8b)" d="M 132.149151 184.818084 
L 132.149151 179.212862 
" style="fill:none;stroke:#808080;stroke-width:1.5;"/>
    <path clip-path="url(#p5a7f3c5b8b)" d="M 133.063527 185.476899 
L 133.063527 179.742387 
" style="fill:none;stroke:#808080;stroke-width:1.5;"/>
    <path clip-path="url(#p5a7f3c5b8b)" d="M 133.288764 185.917914 
L 133.288764 180.365138 
" style="fill:none;stroke:#808080;stroke-width:1.5;"/>
    <path clip-path="url(#p5a7f3c5b8b)" d="M 133.512295 186.568871 
L 133.512295 180.842335 
" style="fill:none;stroke:#808080;stroke-width:1.5;"/>
    <path clip-path="url(#p5a7f3c5b8b)" d="M 133.543825 187.059049 
L 133.543825 181.347339 
" style="fill:none;stroke:#808080;stroke-width:1.5;"/>
    <path clip-path="url(#p5a7f3c5b8b)" d="M 133.716892 187.685506 
L 133.716892 182.137371 
" style="fill:none;stroke:#808080;stroke-width:1.5;"/>
    <path clip-path="url(#p5a7f3c5b8b)" d="M 133.817563 188.567993 
L 133.817563 182.840738 
" style="fill:none;stroke:#808080;stroke-width:1.5;"/>
    <path clip-path="url(#p5a7f3c5b8b)" d="M 134.499599 189.058158 
L 134.499599 183.424138 
" style="fill:none;stroke:#808080;stroke-width:1.5;"/>
    <path clip-path="url(#p5a7f3c5b8b)" d="M 134.768305 189.603306 
L 134.768305 184.011342 
" style="fill:none;stroke:#808080;stroke-width:1.5;"/>
    <path clip-path="url(#p5a7f3c5b8b)" d="M 134.864137 190.349173 
L 134.864137 184.777144 
" style="fill:none;stroke:#808080;stroke-width:1.5;"/>
    <path clip-path="url(#p5a7f3c5b8b)" d="M 135.249995 190.559423 
L 135.249995 185.094579 
" style="fill:none;stroke:#808080;stroke-width:1.5;"/>
    <path clip-path="url(#p5a7f3c5b8b)" d="M 135.890401 191.112043 
L 135.890401 185.579131 
" style="fill:none;stroke:#808080;stroke-width:1.5;"/>
    <path clip-path="url(#p5a7f3c5b8b)" d="M 136.280042 191.882229 
L 136.280042 186.245031 
" style="fill:none;stroke:#808080;stroke-width:1.5;"/>
    <path clip-path="url(#p5a7f3c5b8b)" d="M 136.422746 192.585287 
L 136.422746 186.839488 
" style="fill:none;stroke:#808080;stroke-width:1.5;"/>
    <path clip-path="url(#p5a7f3c5b8b)" d="M 136.438497 193.066867 
L 136.438497 187.458068 
" style="fill:none;stroke:#808080;stroke-width:1.5;"/>
    <path clip-path="url(#p5a7f3c5b8b)" d="M 136.852858 193.6588 
L 136.852858 188.026481 
" style="fill:none;stroke:#808080;stroke-width:1.5;"/>
    <path clip-path="url(#p5a7f3c5b8b)" d="M 137.20725 194.348891 
L 137.20725 188.481339 
" style="fill:none;stroke:#808080;stroke-width:1.5;"/>
    <path clip-path="url(#p5a7f3c5b8b)" d="M 137.925044 194.774526 
L 137.925044 189.001897 
" style="fill:none;stroke:#808080;stroke-width:1.5;"/>
    <path clip-path="url(#p5a7f3c5b8b)" d="M 138.715074 195.381607 
L 138.715074 189.455784 
" style="fill:none;stroke:#808080;stroke-width:1.5;"/>
    <path clip-path="url(#p5a7f3c5b8b)" d="M 138.83887 195.835748 
L 138.83887 190.164788 
" style="fill:none;stroke:#808080;stroke-width:1.5;"/>
    <path clip-path="url(#p5a7f3c5b8b)" d="M 139.181955 196.610657 
L 139.181955 190.767177 
" style="fill:none;stroke:#808080;stroke-width:1.5;"/>
    <path clip-path="url(#p5a7f3c5b8b)" d="M 139.23292 197.164402 
L 139.23292 191.320591 
" style="fill:none;stroke:#808080;stroke-width:1.5;"/>
    <path clip-path="url(#p5a7f3c5b8b)" d="M 139.688259 197.606143 
L 139.688259 191.802647 
" style="fill:none;stroke:#808080;stroke-width:1.5;"/>
    <path clip-path="url(#p5a7f3c5b8b)" d="M 139.839922 197.976075 
L 139.839922 192.27813 
" style="fill:none;stroke:#808080;stroke-width:1.5;"/>
    <path clip-path="url(#p5a7f3c5b8b)" d="M 141.345784 198.664082 
L 141.345784 192.690282 
" style="fill:none;stroke:#808080;stroke-width:1.5;"/>
    <path clip-path="url(#p5a7f3c5b8b)" d="M 141.605114 198.963809 
L 141.605114 193.105799 
" style="fill:none;stroke:#808080;stroke-width:1.5;"/>
    <path clip-path="url(#p5a7f3c5b8b)" d="M 141.806195 199.48725 
L 141.806195 193.66432 
" style="fill:none;stroke:#808080;stroke-width:1.5;"/>
    <path clip-path="url(#p5a7f3c5b8b)" d="M 141.937974 200.218605 
L 141.937974 194.465631 
" style="fill:none;stroke:#808080;stroke-width:1.5;"/>
    <path clip-path="url(#p5a7f3c5b8b)" d="M 142.554904 200.537219 
L 142.554904 194.809071 
" style="fill:none;stroke:#808080;stroke-width:1.5;"/>
    <path clip-path="url(#p5a7f3c5b8b)" d="M 142.585337 201.455723 
L 142.585337 195.535208 
" style="fill:none;stroke:#808080;stroke-width:1.5;"/>
    <path clip-path="url(#p5a7f3c5b8b)" d="M 142.59144 201.970863 
L 142.59144 196.205608 
" style="fill:none;stroke:#808080;stroke-width:1.5;"/>
    <path clip-path="url(#p5a7f3c5b8b)" d="M 143.830429 202.816647 
L 143.830429 196.844898 
" style="fill:none;stroke:#808080;stroke-width:1.5;"/>
    <path clip-path="url(#p5a7f3c5b8b)" d="M 144.16068 203.117521 
L 144.16068 197.213078 
" style="fill:none;stroke:#808080;stroke-width:1.5;"/>
    <path clip-path="url(#p5a7f3c5b8b)" d="M 144.327251 203.955213 
L 144.327251 198.085812 
" style="fill:none;stroke:#808080;stroke-width:1.5;"/>
    <path clip-path="url(#p5a7f3c5b8b)" d="M 145.267172 204.382764 
L 145.267172 198.30072 
" style="fill:none;stroke:#808080;stroke-width:1.5;"/>
    <path clip-path="url(#p5a7f3c5b8b)" d="M 145.298619 205.035482 
L 145.298619 198.995906 
" style="fill:none;stroke:#808080;stroke-width:1.5;"/>
    <path clip-path="url(#p5a7f3c5b8b)" d="M 145.640663 205.764608 
L 145.640663 199.793847 
" style="fill:none;stroke:#808080;stroke-width:1.5;"/>
    <path clip-path="url(#p5a7f3c5b8b)" d="M 145.924262 206.068665 
L 145.924262 199.934892 
" style="fill:none;stroke:#808080;stroke-width:1.5;"/>
    <path clip-path="url(#p5a7f3c5b8b)" d="M 146.368203 206.855892 
L 146.368203 200.946271 
" style="fill:none;stroke:#808080;stroke-width:1.5;"/>
    <path clip-path="url(#p5a7f3c5b8b)" d="M 146.513584 207.33295 
L 146.513584 201.630959 
" style="fill:none;stroke:#808080;stroke-width:1.5;"/>
    <path clip-path="url(#p5a7f3c5b8b)" d="M 146.759175 207.856813 
L 146.759175 202.057488 
" style="fill:none;stroke:#808080;stroke-width:1.5;"/>
    <path clip-path="url(#p5a7f3c5b8b)" d="M 147.021814 208.311936 
L 147.021814 202.49397 
" style="fill:none;stroke:#808080;stroke-width:1.5;"/>
    <path clip-path="url(#p5a7f3c5b8b)" d="M 147.690329 208.920536 
L 147.690329 203.06951 
" style="fill:none;stroke:#808080;stroke-width:1.5;"/>
    <path clip-path="url(#p5a7f3c5b8b)" d="M 147.9212 209.631053 
L 147.9212 203.397566 
" style="fill:none;stroke:#808080;stroke-width:1.5;"/>
    <path clip-path="url(#p5a7f3c5b8b)" d="M 148.360557 209.87098 
L 148.360557 203.989057 
" style="fill:none;stroke:#808080;stroke-width:1.5;"/>
    <path clip-path="url(#p5a7f3c5b8b)" d="M 148.599746 210.389846 
L 148.599746 204.559152 
" style="fill:none;stroke:#808080;stroke-width:1.5;"/>
    <path clip-path="url(#p5a7f3c5b8b)" d="M 148.798705 211.011517 
L 148.798705 205.282587 
" style="fill:none;stroke:#808080;stroke-width:1.5;"/>
    <path clip-path="url(#p5a7f3c5b8b)" d="M 149.187457 211.771789 
L 149.187457 205.5035 
" style="fill:none;stroke:#808080;stroke-width:1.5;"/>
    <path clip-path="url(#p5a7f3c5b8b)" d="M 149.240596 212.27554 
L 149.240596 206.349054 
" style="fill:none;stroke:#808080;stroke-width:1.5;"/>
    <path clip-path="url(#p5a7f3c5b8b)" d="M 149.312219 212.776343 
L 149.312219 207.03939 
" style="fill:none;stroke:#808080;stroke-width:1.5;"/>
    <path clip-path="url(#p5a7f3c5b8b)" d="M 149.585534 213.436252 
L 149.585534 207.376063 
" style="fill:none;stroke:#808080;stroke-width:1.5;"/>
    <path clip-path="url(#p5a7f3c5b8b)" d="M 149.659376 213.989949 
L 149.659376 208.118482 
" style="fill:none;stroke:#808080;stroke-width:1.5;"/>
    <path clip-path="url(#p5a7f3c5b8b)" d="M 150.068069 214.557594 
L 150.068069 208.802163 
" style="fill:none;stroke:#808080;stroke-width:1.5;"/>
    <path clip-path="url(#p5a7f3c5b8b)" d="M 150.862328 215.160795 
L 150.862328 209.241734 
" style="fill:none;stroke:#808080;stroke-width:1.5;"/>
    <path clip-path="url(#p5a7f3c5b8b)" d="M 151.191701 215.967667 
L 151.191701 209.666593 
" style="fill:none;stroke:#808080;stroke-width:1.5;"/>
    <path clip-path="url(#p5a7f3c5b8b)" d="M 151.346565 216.310442 
L 151.346565 210.430975 
" style="fill:none;stroke:#808080;stroke-width:1.5;"/>
    <path clip-path="url(#p5a7f3c5b8b)" d="M 152.167206 216.934752 
L 152.167206 210.642282 
" style="fill:none;stroke:#808080;stroke-width:1.5;"/>
    <path clip-path="url(#p5a7f3c5b8b)" d="M 152.89619 217.469602 
L 152.89619 211.375554 
" style="fill:none;stroke:#808080;stroke-width:1.5;"/>
    <path clip-path="url(#p5a7f3c5b8b)" d="M 153.05888 218.197633 
L 153.05888 212.113002 
" style="fill:none;stroke:#808080;stroke-width:1.5;"/>
    <path clip-path="url(#p5a7f3c5b8b)" d="M 153.500294 218.906642 
L 153.500294 212.749099 
" style="fill:none;stroke:#808080;stroke-width:1.5;"/>
    <path clip-path="url(#p5a7f3c5b8b)" d="M 154.64371 219.318981 
L 154.64371 213.312347 
" style="fill:none;stroke:#808080;stroke-width:1.5;"/>
    <path clip-path="url(#p5a7f3c5b8b)" d="M 154.691657 219.761534 
L 154.691657 213.821586 
" style="fill:none;stroke:#808080;stroke-width:1.5;"/>
    <path clip-path="url(#p5a7f3c5b8b)" d="M 155.122294 220.190933 
L 155.122294 214.222204 
" style="fill:none;stroke:#808080;stroke-width:1.5;"/>
    <path clip-path="url(#p5a7f3c5b8b)" d="M 155.606165 220.786751 
L 155.606165 214.947697 
" style="fill:none;stroke:#808080;stroke-width:1.5;"/>
    <path clip-path="url(#p5a7f3c5b8b)" d="M 156.075387 221.589665 
L 156.075387 215.53188 
" style="fill:none;stroke:#808080;stroke-width:1.5;"/>
    <path clip-path="url(#p5a7f3c5b8b)" d="M 156.298057 222.015298 
L 156.298057 215.890075 
" style="fill:none;stroke:#808080;stroke-width:1.5;"/>
    <path clip-path="url(#p5a7f3c5b8b)" d="M 157.161207 222.692177 
L 157.161207 216.528908 
" style="fill:none;stroke:#808080;stroke-width:1.5;"/>
    <path clip-path="url(#p5a7f3c5b8b)" d="M 157.249993 223.033563 
L 157.249993 217.094523 
" style="fill:none;stroke:#808080;stroke-width:1.5;"/>
    <path clip-path="url(#p5a7f3c5b8b)" d="M 157.327395 223.740565 
L 157.327395 217.566063 
" style="fill:none;stroke:#808080;stroke-width:1.5;"/>
    <path clip-path="url(#p5a7f3c5b8b)" d="M 157.629064 223.987083 
L 157.629064 218.131367 
" style="fill:none;stroke:#808080;stroke-width:1.5;"/>
    <path clip-path="url(#p5a7f3c5b8b)" d="M 158.540886 224.763659 
L 158.540886 218.739088 
" style="fill:none;stroke:#808080;stroke-width:1.5;"/>
    <path clip-path="url(#p5a7f3c5b8b)" d="M 159.520588 225.454047 
L 159.520588 219.204847 
" style="fill:none;stroke:#808080;stroke-width:1.5;"/>
    <path clip-path="url(#p5a7f3c5b8b)" d="M 160.646799 225.899778 
L 160.646799 219.723505 
" style="fill:none;stroke:#808080;stroke-width:1.5;"/>
    <path clip-path="url(#p5a7f3c5b8b)" d="M 160.820558 226.396851 
L 160.820558 220.162827 
" style="fill:none;stroke:#808080;stroke-width:1.5;"/>
    <path clip-path="url(#p5a7f3c5b8b)" d="M 160.870638 226.994232 
L 160.870638 220.818172 
" style="fill:none;stroke:#808080;stroke-width:1.5;"/>
    <path clip-path="url(#p5a7f3c5b8b)" d="M 161.210628 227.356048 
L 161.210628 221.270977 
" style="fill:none;stroke:#808080;stroke-width:1.5;"/>
    <path clip-path="url(#p5a7f3c5b8b)" d="M 161.398547 228.075694 
L 161.398547 221.770465 
" style="fill:none;stroke:#808080;stroke-width:1.5;"/>
    <path clip-path="url(#p5a7f3c5b8b)" d="M 162.360546 228.495155 
L 162.360546 222.449763 
" style="fill:none;stroke:#808080;stroke-width:1.5;"/>
    <path clip-path="url(#p5a7f3c5b8b)" d="M 162.945008 229.137475 
L 162.945008 223.044772 
" style="fill:none;stroke:#808080;stroke-width:1.5;"/>
    <path clip-path="url(#p5a7f3c5b8b)" d="M 164.214581 229.715876 
L 164.214581 223.500745 
" style="fill:none;stroke:#808080;stroke-width:1.5;"/>
    <path clip-path="url(#p5a7f3c5b8b)" d="M 164.82394 230.332726 
L 164.82394 223.767101 
" style="fill:none;stroke:#808080;stroke-width:1.5;"/>
    <path clip-path="url(#p5a7f3c5b8b)" d="M 165.50028 231.140226 
L 165.50028 224.833791 
" style="fill:none;stroke:#808080;stroke-width:1.5;"/>
    <path clip-path="url(#p5a7f3c5b8b)" d="M 165.679831 231.566179 
L 165.679831 225.366629 
" style="fill:none;stroke:#808080;stroke-width:1.5;"/>
    <path clip-path="url(#p5a7f3c5b8b)" d="M 166.800073 232.09316 
L 166.800073 225.725653 
" style="fill:none;stroke:#808080;stroke-width:1.5;"/>
    <path clip-path="url(#p5a7f3c5b8b)" d="M 166.864335 232.543654 
L 166.864335 226.340326 
" style="fill:none;stroke:#808080;stroke-width:1.5;"/>
    <path clip-path="url(#p5a7f3c5b8b)" d="M 166.947381 232.903453 
L 166.947381 226.702769 
" style="fill:none;stroke:#808080;stroke-width:1.5;"/>
    <path clip-path="url(#p5a7f3c5b8b)" d="M 167.186931 233.749541 
L 167.186931 227.41174 
" style="fill:none;stroke:#808080;stroke-width:1.5;"/>
    <path clip-path="url(#p5a7f3c5b8b)" d="M 167.460803 234.207211 
L 167.460803 228.131213 
" style="fill:none;stroke:#808080;stroke-width:1.5;"/>
    <path clip-path="url(#p5a7f3c5b8b)" d="M 167.554605 234.596362 
L 167.554605 228.513293 
" style="fill:none;stroke:#808080;stroke-width:1.5;"/>
    <path clip-path="url(#p5a7f3c5b8b)" d="M 167.71367 234.974769 
L 167.71367 228.557593 
" style="fill:none;stroke:#808080;stroke-width:1.5;"/>
    <path clip-path="url(#p5a7f3c5b8b)" d="M 168.130444 235.672296 
L 168.130444 229.368936 
" style="fill:none;stroke:#808080;stroke-width:1.5;"/>
    <path clip-path="url(#p5a7f3c5b8b)" d="M 169.178313 236.044671 
L 169.178313 229.699207 
" style="fill:none;stroke:#808080;stroke-width:1.5;"/>
    <path clip-path="url(#p5a7f3c5b8b)" d="M 170.134172 236.766776 
L 170.134172 230.484572 
" style="fill:none;stroke:#808080;stroke-width:1.5;"/>
    <path clip-path="url(#p5a7f3c5b8b)" d="M 170.489609 237.349427 
L 170.489609 231.00068 
" style="fill:none;stroke:#808080;stroke-width:1.5;"/>
    <path clip-path="url(#p5a7f3c5b8b)" d="M 170.582108 237.98401 
L 170.582108 231.769991 
" style="fill:none;stroke:#808080;stroke-width:1.5;"/>
    <path clip-path="url(#p5a7f3c5b8b)" d="M 170.601515 238.5773 
L 170.601515 232.118694 
" style="fill:none;stroke:#808080;stroke-width:1.5;"/>
    <path clip-path="url(#p5a7f3c5b8b)" d="M 170.890616 238.98684 
L 170.890616 232.683341 
" style="fill:none;stroke:#808080;stroke-width:1.5;"/>
    <path clip-path="url(#p5a7f3c5b8b)" d="M 171.421117 239.566394 
L 171.421117 233.241737 
" style="fill:none;stroke:#808080;stroke-width:1.5;"/>
    <path clip-path="url(#p5a7f3c5b8b)" d="M 171.576232 239.822146 
L 171.576232 233.648041 
" style="fill:none;stroke:#808080;stroke-width:1.5;"/>
    <path clip-path="url(#p5a7f3c5b8b)" d="M 172.033706 240.698195 
L 172.033706 234.254267 
" style="fill:none;stroke:#808080;stroke-width:1.5;"/>
    <path clip-path="url(#p5a7f3c5b8b)" d="M 173.044753 241.031632 
L 173.044753 234.746649 
" style="fill:none;stroke:#808080;stroke-width:1.5;"/>
    <path clip-path="url(#p5a7f3c5b8b)" d="M 173.086917 241.739657 
L 173.086917 235.495706 
" style="fill:none;stroke:#808080;stroke-width:1.5;"/>
    <path clip-path="url(#p5a7f3c5b8b)" d="M 174.309054 242.514708 
L 174.309054 236.11335 
" style="fill:none;stroke:#808080;stroke-width:1.5;"/>
    <path clip-path="url(#p5a7f3c5b8b)" d="M 174.847373 242.742204 
L 174.847373 236.266571 
" style="fill:none;stroke:#808080;stroke-width:1.5;"/>
    <path clip-path="url(#p5a7f3c5b8b)" d="M 176.614611 243.142923 
L 176.614611 236.873631 
" style="fill:none;stroke:#808080;stroke-width:1.5;"/>
    <path clip-path="url(#p5a7f3c5b8b)" d="M 177.414546 243.89384 
L 177.414546 237.571396 
" style="fill:none;stroke:#808080;stroke-width:1.5;"/>
    <path clip-path="url(#p5a7f3c5b8b)" d="M 177.436815 244.081913 
L 177.436815 237.804631 
" style="fill:none;stroke:#808080;stroke-width:1.5;"/>
    <path clip-path="url(#p5a7f3c5b8b)" d="M 178.101691 244.817883 
L 178.101691 238.563534 
" style="fill:none;stroke:#808080;stroke-width:1.5;"/>
    <path clip-path="url(#p5a7f3c5b8b)" d="M 178.342445 245.577178 
L 178.342445 239.342502 
" style="fill:none;stroke:#808080;stroke-width:1.5;"/>
    <path clip-path="url(#p5a7f3c5b8b)" d="M 179.634675 245.831146 
L 179.634675 239.614819 
" style="fill:none;stroke:#808080;stroke-width:1.5;"/>
    <path clip-path="url(#p5a7f3c5b8b)" d="M 179.794455 246.399466 
L 179.794455 240.27543 
" style="fill:none;stroke:#808080;stroke-width:1.5;"/>
    <path clip-path="url(#p5a7f3c5b8b)" d="M 179.941065 247.010245 
L 179.941065 240.837594 
" style="fill:none;stroke:#808080;stroke-width:1.5;"/>
    <path clip-path="url(#p5a7f3c5b8b)" d="M 181.503599 247.720145 
L 181.503599 241.300637 
" style="fill:none;stroke:#808080;stroke-width:1.5;"/>
    <path clip-path="url(#p5a7f3c5b8b)" d="M 182.204403 248.508371 
L 182.204403 242.225637 
" style="fill:none;stroke:#808080;stroke-width:1.5;"/>
    <path clip-path="url(#p5a7f3c5b8b)" d="M 182.283515 249.017183 
L 182.283515 242.828182 
" style="fill:none;stroke:#808080;stroke-width:1.5;"/>
    <path clip-path="url(#p5a7f3c5b8b)" d="M 182.781705 249.763378 
L 182.781705 243.701431 
" style="fill:none;stroke:#808080;stroke-width:1.5;"/>
    <path clip-path="url(#p5a7f3c5b8b)" d="M 183.559269 250.187444 
L 183.559269 244.024802 
" style="fill:none;stroke:#808080;stroke-width:1.5;"/>
    <path clip-path="url(#p5a7f3c5b8b)" d="M 184.086962 251.004903 
L 184.086962 244.663024 
" style="fill:none;stroke:#808080;stroke-width:1.5;"/>
    <path clip-path="url(#p5a7f3c5b8b)" d="M 184.241379 251.505686 
L 184.241379 245.160223 
" style="fill:none;stroke:#808080;stroke-width:1.5;"/>
    <path clip-path="url(#p5a7f3c5b8b)" d="M 184.587175 252.091675 
L 184.587175 245.791967 
" style="fill:none;stroke:#808080;stroke-width:1.5;"/>
    <path clip-path="url(#p5a7f3c5b8b)" d="M 184.933304 252.497509 
L 184.933304 246.259542 
" style="fill:none;stroke:#808080;stroke-width:1.5;"/>
    <path clip-path="url(#p5a7f3c5b8b)" d="M 187.194991 253.174603 
L 187.194991 246.875765 
" style="fill:none;stroke:#808080;stroke-width:1.5;"/>
    <path clip-path="url(#p5a7f3c5b8b)" d="M 187.7746 253.479944 
L 187.7746 247.386445 
" style="fill:none;stroke:#808080;stroke-width:1.5;"/>
    <path clip-path="url(#p5a7f3c5b8b)" d="M 187.810544 254.041605 
L 187.810544 247.938941 
" style="fill:none;stroke:#808080;stroke-width:1.5;"/>
    <path clip-path="url(#p5a7f3c5b8b)" d="M 188.118499 254.445211 
L 188.118499 248.314964 
" style="fill:none;stroke:#808080;stroke-width:1.5;"/>
    <path clip-path="url(#p5a7f3c5b8b)" d="M 188.603981 254.973562 
L 188.603981 248.881173 
" style="fill:none;stroke:#808080;stroke-width:1.5;"/>
    <path clip-path="url(#p5a7f3c5b8b)" d="M 189.016625 256.193496 
L 189.016625 249.892351 
" style="fill:none;stroke:#808080;stroke-width:1.5;"/>
    <path clip-path="url(#p5a7f3c5b8b)" d="M 189.590158 256.510659 
L 189.590158 250.34082 
" style="fill:none;stroke:#808080;stroke-width:1.5;"/>
    <path clip-path="url(#p5a7f3c5b8b)" d="M 189.986679 257.298058 
L 189.986679 250.965711 
" style="fill:none;stroke:#808080;stroke-width:1.5;"/>
    <path clip-path="url(#p5a7f3c5b8b)" d="M 190.536096 257.720403 
L 190.536096 251.404179 
" style="fill:none;stroke:#808080;stroke-width:1.5;"/>
    <path clip-path="url(#p5a7f3c5b8b)" d="M 191.736605 258.543113 
L 191.736605 252.100136 
" style="fill:none;stroke:#808080;stroke-width:1.5;"/>
    <path clip-path="url(#p5a7f3c5b8b)" d="M 192.915878 258.977118 
L 192.915878 252.983242 
" style="fill:none;stroke:#808080;stroke-width:1.5;"/>
    <path clip-path="url(#p5a7f3c5b8b)" d="M 193.477118 259.809801 
L 193.477118 253.51526 
" style="fill:none;stroke:#808080;stroke-width:1.5;"/>
    <path clip-path="url(#p5a7f3c5b8b)" d="M 194.885941 260.263995 
L 194.885941 254.075845 
" style="fill:none;stroke:#808080;stroke-width:1.5;"/>
    <path clip-path="url(#p5a7f3c5b8b)" d="M 195.341312 260.723617 
L 195.341312 254.415448 
" style="fill:none;stroke:#808080;stroke-width:1.5;"/>
    <path clip-path="url(#p5a7f3c5b8b)" d="M 196.132704 261.334324 
L 196.132704 255.075662 
" style="fill:none;stroke:#808080;stroke-width:1.5;"/>
    <path clip-path="url(#p5a7f3c5b8b)" d="M 196.484096 261.893711 
L 196.484096 255.690618 
" style="fill:none;stroke:#808080;stroke-width:1.5;"/>
    <path clip-path="url(#p5a7f3c5b8b)" d="M 198.715327 262.394812 
L 198.715327 256.155306 
" style="fill:none;stroke:#808080;stroke-width:1.5;"/>
    <path clip-path="url(#p5a7f3c5b8b)" d="M 199.285665 262.748781 
L 199.285665 256.631355 
" style="fill:none;stroke:#808080;stroke-width:1.5;"/>
    <path clip-path="url(#p5a7f3c5b8b)" d="M 199.784821 263.241463 
L 199.784821 257.357807 
" style="fill:none;stroke:#808080;stroke-width:1.5;"/>
    <path clip-path="url(#p5a7f3c5b8b)" d="M 200.193596 263.946716 
L 200.193596 257.782106 
" style="fill:none;stroke:#808080;stroke-width:1.5;"/>
    <path clip-path="url(#p5a7f3c5b8b)" d="M 201.556613 264.922565 
L 201.556613 258.865206 
" style="fill:none;stroke:#808080;stroke-width:1.5;"/>
    <path clip-path="url(#p5a7f3c5b8b)" d="M 205.707984 265.239074 
L 205.707984 259.275138 
" style="fill:none;stroke:#808080;stroke-width:1.5;"/>
    <path clip-path="url(#p5a7f3c5b8b)" d="M 205.749323 265.732769 
L 205.749323 259.687045 
" style="fill:none;stroke:#808080;stroke-width:1.5;"/>
    <path clip-path="url(#p5a7f3c5b8b)" d="M 205.861003 266.489356 
L 205.861003 260.275563 
" style="fill:none;stroke:#808080;stroke-width:1.5;"/>
    <path clip-path="url(#p5a7f3c5b8b)" d="M 205.961923 266.910217 
L 205.961923 260.701517 
" style="fill:none;stroke:#808080;stroke-width:1.5;"/>
    <path clip-path="url(#p5a7f3c5b8b)" d="M 206.296166 267.816892 
L 206.296166 261.899981 
" style="fill:none;stroke:#808080;stroke-width:1.5;"/>
    <path clip-path="url(#p5a7f3c5b8b)" d="M 206.333876 268.500505 
L 206.333876 262.30253 
" style="fill:none;stroke:#808080;stroke-width:1.5;"/>
    <path clip-path="url(#p5a7f3c5b8b)" d="M 206.398289 269.0969 
L 206.398289 262.832889 
" style="fill:none;stroke:#808080;stroke-width:1.5;"/>
    <path clip-path="url(#p5a7f3c5b8b)" d="M 206.903467 269.710893 
L 206.903467 263.473021 
" style="fill:none;stroke:#808080;stroke-width:1.5;"/>
    <path clip-path="url(#p5a7f3c5b8b)" d="M 208.154264 270.258111 
L 208.154264 263.999368 
" style="fill:none;stroke:#808080;stroke-width:1.5;"/>
    <path clip-path="url(#p5a7f3c5b8b)" d="M 209.669904 270.979431 
L 209.669904 264.905891 
" style="fill:none;stroke:#808080;stroke-width:1.5;"/>
    <path clip-path="url(#p5a7f3c5b8b)" d="M 210.902454 271.686592 
L 210.902454 265.767787 
" style="fill:none;stroke:#808080;stroke-width:1.5;"/>
    <path clip-path="url(#p5a7f3c5b8b)" d="M 211.57947 272.019412 
L 211.57947 266.01584 
" style="fill:none;stroke:#808080;stroke-width:1.5;"/>
    <path clip-path="url(#p5a7f3c5b8b)" d="M 212.150605 272.796485 
L 212.150605 266.611866 
" style="fill:none;stroke:#808080;stroke-width:1.5;"/>
    <path clip-path="url(#p5a7f3c5b8b)" d="M 214.229797 273.112096 
L 214.229797 267.094081 
" style="fill:none;stroke:#808080;stroke-width:1.5;"/>
    <path clip-path="url(#p5a7f3c5b8b)" d="M 214.513393 273.804544 
L 214.513393 267.657158 
" style="fill:none;stroke:#808080;stroke-width:1.5;"/>
    <path clip-path="url(#p5a7f3c5b8b)" d="M 216.55798 274.335314 
L 216.55798 268.292333 
" style="fill:none;stroke:#808080;stroke-width:1.5;"/>
    <path clip-path="url(#p5a7f3c5b8b)" d="M 218.446023 274.763058 
L 218.446023 268.58823 
" style="fill:none;stroke:#808080;stroke-width:1.5;"/>
    <path clip-path="url(#p5a7f3c5b8b)" d="M 218.945889 275.108269 
L 218.945889 269.446756 
" style="fill:none;stroke:#808080;stroke-width:1.5;"/>
    <path clip-path="url(#p5a7f3c5b8b)" d="M 219.432066 275.887227 
L 219.432066 269.746962 
" style="fill:none;stroke:#808080;stroke-width:1.5;"/>
    <path clip-path="url(#p5a7f3c5b8b)" d="M 220.083747 276.627469 
L 220.083747 270.626165 
" style="fill:none;stroke:#808080;stroke-width:1.5;"/>
    <path clip-path="url(#p5a7f3c5b8b)" d="M 221.586112 276.865312 
L 221.586112 270.99159 
" style="fill:none;stroke:#808080;stroke-width:1.5;"/>
    <path clip-path="url(#p5a7f3c5b8b)" d="M 222.85255 277.494241 
L 222.85255 271.299055 
" style="fill:none;stroke:#808080;stroke-width:1.5;"/>
    <path clip-path="url(#p5a7f3c5b8b)" d="M 223.775945 278.64265 
L 223.775945 272.825461 
" style="fill:none;stroke:#808080;stroke-width:1.5;"/>
    <path clip-path="url(#p5a7f3c5b8b)" d="M 227.243581 279.239275 
L 227.243581 273.460567 
" style="fill:none;stroke:#808080;stroke-width:1.5;"/>
    <path clip-path="url(#p5a7f3c5b8b)" d="M 227.359658 280.025182 
L 227.359658 274.063155 
" style="fill:none;stroke:#808080;stroke-width:1.5;"/>
    <path clip-path="url(#p5a7f3c5b8b)" d="M 228.392682 280.499707 
L 228.392682 274.740578 
" style="fill:none;stroke:#808080;stroke-width:1.5;"/>
    <path clip-path="url(#p5a7f3c5b8b)" d="M 228.941207 281.041045 
L 228.941207 275.201421 
" style="fill:none;stroke:#808080;stroke-width:1.5;"/>
    <path clip-path="url(#p5a7f3c5b8b)" d="M 237.844459 281.672102 
L 237.844459 275.720912 
" style="fill:none;stroke:#808080;stroke-width:1.5;"/>
    <path clip-path="url(#p5a7f3c5b8b)" d="M 239.212268 282.025422 
L 239.212268 276.306787 
" style="fill:none;stroke:#808080;stroke-width:1.5;"/>
    <path clip-path="url(#p5a7f3c5b8b)" d="M 240.80433 282.688835 
L 240.80433 276.57277 
" style="fill:none;stroke:#808080;stroke-width:1.5;"/>
    <path clip-path="url(#p5a7f3c5b8b)" d="M 241.939182 283.366718 
L 241.939182 277.326773 
" style="fill:none;stroke:#808080;stroke-width:1.5;"/>
    <path clip-path="url(#p5a7f3c5b8b)" d="M 242.356858 284.241305 
L 242.356858 278.441151 
" style="fill:none;stroke:#808080;stroke-width:1.5;"/>
    <path clip-path="url(#p5a7f3c5b8b)" d="M 244.548992 284.532834 
L 244.548992 279.03143 
" style="fill:none;stroke:#808080;stroke-width:1.5;"/>
    <path clip-path="url(#p5a7f3c5b8b)" d="M 251.784173 285.559252 
L 251.784173 279.772824 
" style="fill:none;stroke:#808080;stroke-width:1.5;"/>
    <path clip-path="url(#p5a7f3c5b8b)" d="M 253.652057 286.161158 
L 253.652057 280.384452 
" style="fill:none;stroke:#808080;stroke-width:1.5;"/>
    <path clip-path="url(#p5a7f3c5b8b)" d="M 257.333185 286.575921 
L 257.333185 280.978869 
" style="fill:none;stroke:#808080;stroke-width:1.5;"/>
    <path clip-path="url(#p5a7f3c5b8b)" d="M 261.56393 288.040498 
L 261.56393 282.177908 
" style="fill:none;stroke:#808080;stroke-width:1.5;"/>
    <path clip-path="url(#p5a7f3c5b8b)" d="M 261.82995 288.586214 
L 261.82995 282.866722 
" style="fill:none;stroke:#808080;stroke-width:1.5;"/>
    <path clip-path="url(#p5a7f3c5b8b)" d="M 263.962263 288.983732 
L 263.962263 283.369207 
" style="fill:none;stroke:#808080;stroke-width:1.5;"/>
    <path clip-path="url(#p5a7f3c5b8b)" d="M 266.818993 289.598982 
L 266.818993 284.02208 
" style="fill:none;stroke:#808080;stroke-width:1.5;"/>
    <path clip-path="url(#p5a7f3c5b8b)" d="M 272.273336 290.209202 
L 272.273336 284.818551 
" style="fill:none;stroke:#808080;stroke-width:1.5;"/>
    <path clip-path="url(#p5a7f3c5b8b)" d="M 273.535217 291.134494 
L 273.535217 285.546298 
" style="fill:none;stroke:#808080;stroke-width:1.5;"/>
    <path clip-path="url(#p5a7f3c5b8b)" d="M 274.000346 291.813315 
L 274.000346 286.233578 
" style="fill:none;stroke:#808080;stroke-width:1.5;"/>
    <path clip-path="url(#p5a7f3c5b8b)" d="M 278.981257 292.53207 
L 278.981257 287.109074 
" style="fill:none;stroke:#808080;stroke-width:1.5;"/>
    <path clip-path="url(#p5a7f3c5b8b)" d="M 282.475897 293.282816 
L 282.475897 287.815409 
" style="fill:none;stroke:#808080;stroke-width:1.5;"/>
    <path clip-path="url(#p5a7f3c5b8b)" d="M 289.518148 294.436344 
L 289.518148 288.94478 
" style="fill:none;stroke:#808080;stroke-width:1.5;"/>
    <path clip-path="url(#p5a7f3c5b8b)" d="M 291.658792 295.29918 
L 291.658792 290.198282 
" style="fill:none;stroke:#808080;stroke-width:1.5;"/>
    <path clip-path="url(#p5a7f3c5b8b)" d="M 299.092426 296.546416 
L 299.092426 291.62446 
" style="fill:none;stroke:#808080;stroke-width:1.5;"/>
    <path clip-path="url(#p5a7f3c5b8b)" d="M 304.514846 298.213443 
L 304.514846 293.525252 
" style="fill:none;stroke:#808080;stroke-width:1.5;"/>
    <path clip-path="url(#p5a7f3c5b8b)" d="M 327.980893 299.006583 
L 327.980893 294.194792 
" style="fill:none;stroke:#808080;stroke-width:1.5;"/>
    <path clip-path="url(#p5a7f3c5b8b)" d="M 338.895268 300.170082 
L 338.895268 295.582934 
" style="fill:none;stroke:#808080;stroke-width:1.5;"/>
    <path clip-path="url(#p5a7f3c5b8b)" d="M 359.177565 301.556111 
L 359.177565 296.888516 
" style="fill:none;stroke:#808080;stroke-width:1.5;"/>
    <path clip-path="url(#p5a7f3c5b8b)" d="M 378.192772 302.8752 
L 378.192772 298.79712 
" style="fill:none;stroke:#808080;stroke-width:1.5;"/>
    <path clip-path="url(#p5a7f3c5b8b)" d="M 398.487273 302.652962 
L 398.487273 302.652962 
" style="fill:none;stroke:#808080;stroke-width:1.5;"/>
   </g>
   <g id="line2d_14">
    <path clip-path="url(#p5a7f3c5b8b)" d="M 73.832727 54.9072 
L 81.660834 54.9072 
L 82.063738 55.607047 
L 83.533052 55.607047 
L 83.825737 56.306894 
L 83.972942 57.00674 
L 84.891285 57.706587 
L 85.303482 57.706587 
L 85.49351 59.806128 
L 86.117787 61.205821 
L 86.74483 61.205821 
L 86.866196 61.905668 
L 87.482233 61.905668 
L 88.21705 62.605515 
L 88.306522 63.305361 
L 88.848818 63.305361 
L 89.880608 64.005208 
L 90.349344 64.005208 
L 90.44145 64.705055 
L 91.482011 64.705055 
L 91.675933 65.404902 
L 92.444121 65.404902 
L 92.601093 66.104749 
L 92.803918 66.104749 
L 93.047814 66.804595 
L 93.148247 67.504442 
L 93.236913 67.504442 
L 94.235118 68.204289 
L 94.412291 68.904136 
L 94.473907 69.603983 
L 95.214358 70.303829 
L 95.739708 70.303829 
L 95.782387 71.003676 
L 96.143216 71.003676 
L 96.324075 71.703523 
L 97.514784 71.703523 
L 97.661102 72.40337 
L 97.886082 72.40337 
L 98.100104 73.103216 
L 99.845455 73.103216 
L 100.020577 73.803063 
L 100.253657 73.803063 
L 100.319042 74.50291 
L 101.013143 75.202757 
L 101.501782 75.202757 
L 101.871086 75.902604 
L 102.062 77.302297 
L 102.538689 77.302297 
L 103.020813 78.002144 
L 105.238874 78.002144 
L 105.528781 80.801531 
L 106.271444 80.801531 
L 106.410909 81.501378 
L 106.572557 81.501378 
L 106.933328 82.201225 
L 107.783612 82.201225 
L 108.011755 82.901071 
L 108.872229 83.600918 
L 109.493485 83.600918 
L 109.589924 84.300765 
L 110.045479 84.300765 
L 111.311147 85.000612 
L 112.350572 85.000612 
L 112.632586 86.400305 
L 112.764042 86.400305 
L 112.856681 87.100152 
L 112.993195 87.100152 
L 114.353902 87.799999 
L 115.12303 87.799999 
L 116.313435 89.899539 
L 116.530957 90.599386 
L 116.857874 91.99908 
L 117.532444 91.99908 
L 118.050477 93.398773 
L 118.718588 93.398773 
L 118.845973 95.498314 
L 119.02926 95.498314 
L 119.279749 97.597854 
L 119.797435 97.597854 
L 120.131468 98.297701 
L 120.809654 98.297701 
L 121.136312 98.997548 
L 123.285964 98.997548 
L 123.420526 99.697394 
L 123.600322 99.697394 
L 123.819568 101.796935 
L 123.986852 101.796935 
L 124.16778 103.196628 
L 124.496122 104.596322 
L 124.542041 105.296169 
L 124.753003 105.296169 
L 125.03264 106.695862 
L 125.166965 106.695862 
L 125.503845 107.395709 
L 125.812484 108.095556 
L 125.95652 108.095556 
L 126.031315 108.795403 
L 127.99456 108.795403 
L 128.251566 109.495249 
L 128.430395 109.495249 
L 128.600431 110.195096 
L 129.676132 110.195096 
L 130.439797 111.59479 
L 131.268036 111.59479 
L 131.538606 112.994483 
L 132.148261 112.994483 
L 132.149151 113.69433 
L 133.063527 113.69433 
L 133.288764 114.394177 
L 133.543825 114.394177 
L 133.716892 115.094024 
L 133.817563 116.493717 
L 134.499599 116.493717 
L 134.864137 117.193564 
L 135.249995 117.893411 
L 136.422746 117.893411 
L 136.438497 118.593258 
L 136.852858 119.293104 
L 139.181955 119.293104 
L 139.23292 119.992951 
L 139.839922 119.992951 
L 141.345784 120.692798 
L 141.605114 121.392645 
L 141.937974 121.392645 
L 142.59144 124.192032 
L 144.16068 124.192032 
L 144.327251 124.891879 
L 145.267172 124.891879 
L 145.298619 125.591725 
L 148.360557 125.591725 
L 148.798705 126.991419 
L 149.240596 126.991419 
L 149.312219 127.691266 
L 149.659376 128.391113 
L 151.191701 128.391113 
L 151.346565 129.090959 
L 152.89619 131.890347 
L 153.05888 137.489121 
L 153.500294 138.188968 
L 154.691657 138.888814 
L 155.122294 138.888814 
L 155.606165 140.288508 
L 156.075387 140.288508 
L 156.298057 140.988355 
L 157.249993 140.988355 
L 157.327395 141.688202 
L 157.629064 142.388048 
L 159.520588 143.787742 
L 160.646799 144.487589 
L 160.870638 145.187435 
L 161.398547 145.187435 
L 162.360546 145.887282 
L 162.945008 147.286976 
L 164.214581 147.986823 
L 164.82394 148.686669 
L 166.947381 148.686669 
L 167.186931 149.386516 
L 167.554605 149.386516 
L 167.71367 150.086363 
L 170.134172 150.086363 
L 170.489609 150.78621 
L 170.601515 152.185903 
L 170.890616 152.88575 
L 172.033706 152.88575 
L 173.044753 153.585597 
L 173.086917 154.285444 
L 174.309054 154.98529 
L 177.436815 154.98529 
L 178.101691 155.685137 
L 179.794455 155.685137 
L 179.941065 156.384984 
L 181.503599 156.384984 
L 182.283515 159.184371 
L 183.559269 159.184371 
L 184.086962 159.884218 
L 184.241379 160.584065 
L 184.933304 161.983758 
L 187.7746 161.983758 
L 187.810544 163.383452 
L 189.016625 163.383452 
L 189.590158 164.083299 
L 194.885941 164.083299 
L 195.341312 165.482992 
L 196.132704 166.182839 
L 196.484096 166.882686 
L 198.715327 168.982226 
L 199.285665 169.682073 
L 199.784821 171.081767 
L 200.193596 171.081767 
L 201.556613 173.881154 
L 205.707984 173.881154 
L 205.749323 174.581 
L 205.861003 174.581 
L 205.961923 175.980694 
L 206.333876 175.980694 
L 206.398289 176.680541 
L 206.903467 177.380388 
L 209.669904 177.380388 
L 211.57947 179.479928 
L 214.229797 179.479928 
L 214.513393 181.579468 
L 216.55798 182.979162 
L 218.945889 182.979162 
L 219.432066 185.078702 
L 220.083747 185.078702 
L 221.586112 187.178243 
L 222.85255 187.878089 
L 227.243581 187.878089 
L 227.359658 188.577936 
L 228.392682 189.277783 
L 228.941207 189.277783 
L 237.844459 189.97763 
L 239.212268 190.677477 
L 240.80433 192.07717 
L 241.939182 194.176711 
L 242.356858 203.274719 
L 244.548992 204.674412 
L 251.784173 210.973033 
L 253.652057 210.973033 
L 257.333185 211.67288 
L 261.56393 213.072574 
L 261.82995 214.472267 
L 263.962263 215.871961 
L 266.818993 216.571808 
L 272.273336 219.371195 
L 274.000346 219.371195 
L 278.981257 223.570276 
L 289.518148 234.067977 
L 291.658792 237.567211 
L 299.092426 246.665219 
L 304.514846 248.064913 
L 327.980893 250.8643 
L 338.895268 255.763228 
L 359.177565 270.46001 
L 378.192772 285.156793 
L 398.487273 302.652962 
L 398.487273 302.652962 
" style="fill:none;stroke:#ff0000;stroke-linecap:square;stroke-width:2;"/>
   </g>
   <g id="line2d_15">
    <path clip-path="url(#p5a7f3c5b8b)" d="M 73.832727 55.533563 
L 74.918426 56.152927 
L 74.99024 56.77789 
L 75.710213 58.043213 
L 78.657001 59.298739 
L 79.209765 60.452086 
L 80.491636 61.730006 
L 80.86342 62.94494 
L 80.878289 63.558706 
L 81.299533 64.678461 
L 81.309062 65.353813 
L 81.621714 65.880798 
L 81.660834 66.441375 
L 82.063738 67.060739 
L 82.279122 67.65001 
L 83.096649 68.180494 
L 83.825737 69.453515 
L 83.972942 70.044886 
L 84.891285 70.701342 
L 85.303482 71.318607 
L 85.49351 73.166903 
L 86.74483 76.01108 
L 86.866196 77.128035 
L 87.338891 77.785891 
L 87.482233 78.398257 
L 88.21705 78.911945 
L 88.306522 79.565602 
L 88.848818 80.098185 
L 89.880608 80.67136 
L 90.208391 81.414597 
L 90.44145 83.253794 
L 90.949608 83.801774 
L 91.288107 84.666785 
L 91.590304 85.788639 
L 91.675933 86.508782 
L 92.122898 87.709719 
L 92.444121 88.215708 
L 93.106951 90.607784 
L 93.236913 91.745035 
L 94.183067 92.155845 
L 94.235118 93.538743 
L 94.412291 94.067827 
L 94.473907 94.643801 
L 95.214358 95.121796 
L 95.516972 95.739761 
L 95.521463 96.325533 
L 95.739708 96.692252 
L 95.782387 97.373903 
L 96.143216 97.990468 
L 96.324075 98.691015 
L 97.058733 99.224998 
L 97.329972 99.62531 
L 98.100104 104.389167 
L 99.571963 106.65807 
L 100.253657 108.409087 
L 100.319042 109.03755 
L 100.940938 109.652715 
L 101.013143 110.196496 
L 101.871086 111.346344 
L 102.062 112.659957 
L 102.348549 113.075666 
L 102.538689 114.175125 
L 102.900557 114.739901 
L 103.253666 116.551804 
L 104.086549 118.289524 
L 104.580249 118.740925 
L 104.971055 119.386884 
L 105.524444 123.4243 
L 105.528781 123.817614 
L 106.092134 124.340399 
L 106.572557 126.831854 
L 106.830094 127.229367 
L 107.109958 128.944691 
L 107.485203 129.288316 
L 107.752251 129.91118 
L 107.783612 130.453561 
L 108.011755 130.977746 
L 108.872229 131.597111 
L 109.111295 132.082804 
L 109.493485 132.453723 
L 109.589924 133.002403 
L 110.045479 134.110261 
L 111.145893 134.629547 
L 111.311147 135.57574 
L 111.563511 135.910266 
L 112.350572 136.508635 
L 112.764042 138.120383 
L 112.993195 139.325519 
L 114.353902 139.963079 
L 114.833543 140.55305 
L 116.313435 143.275454 
L 116.530957 144.015192 
L 116.810928 144.38961 
L 117.011329 145.722818 
L 117.215918 146.344282 
L 117.236827 146.955248 
L 117.532444 147.485732 
L 117.784243 148.204475 
L 117.832027 148.888225 
L 118.050477 149.280139 
L 118.605007 149.939395 
L 118.784914 150.993364 
L 118.845973 151.724004 
L 119.076719 152.936839 
L 119.094257 153.681476 
L 119.253809 154.221058 
L 119.279749 154.706751 
L 119.738734 155.158153 
L 119.797435 155.845402 
L 120.131468 156.328296 
L 120.809654 156.968656 
L 121.637649 158.469128 
L 122.274314 158.930327 
L 123.285964 159.385927 
L 123.420526 160.14946 
L 123.600322 160.395806 
L 123.819568 160.929789 
L 124.16778 162.154521 
L 124.496122 162.65911 
L 124.542041 163.037728 
L 124.846445 164.0791 
L 125.166965 165.416507 
L 125.387715 165.800023 
L 125.503845 167.157026 
L 125.812484 167.86667 
L 126.031315 168.833159 
L 126.599815 169.311854 
L 126.679854 169.789849 
L 127.99456 171.25043 
L 128.251566 171.766217 
L 128.600431 173.829365 
L 128.94889 174.182788 
L 129.202693 174.970115 
L 130.123523 176.31802 
L 130.439797 177.045861 
L 130.870638 177.630933 
L 130.99119 178.125025 
L 131.268036 178.638712 
L 131.805624 180.636075 
L 132.065062 181.048984 
L 132.148261 181.421303 
L 132.149151 182.015473 
L 133.063527 182.609643 
L 133.512295 183.705603 
L 133.543825 184.203194 
L 133.817563 185.704365 
L 134.499599 186.241148 
L 134.768305 186.807324 
L 134.864137 187.563158 
L 135.890401 188.345587 
L 136.280042 189.06363 
L 136.438497 190.262467 
L 137.20725 191.415115 
L 138.715074 192.418695 
L 138.83887 193.000268 
L 139.181955 193.688917 
L 139.23292 194.242496 
L 139.688259 194.704395 
L 139.839922 195.127102 
L 141.345784 195.677182 
L 141.605114 196.034804 
L 141.806195 196.575785 
L 141.937974 197.342118 
L 142.554904 197.673145 
L 142.59144 199.088235 
L 143.830429 199.830773 
L 144.16068 200.165299 
L 144.327251 201.020512 
L 145.267172 201.341742 
L 145.298619 202.015694 
L 145.640663 202.779227 
L 145.924262 203.001778 
L 146.368203 203.901082 
L 146.513584 204.481954 
L 147.021814 205.402953 
L 147.690329 205.995023 
L 147.9212 206.51431 
L 148.360557 206.930018 
L 149.187457 208.637645 
L 149.312219 209.907867 
L 149.585534 210.406157 
L 149.659376 211.054216 
L 150.068069 211.679879 
L 150.862328 212.201264 
L 151.191701 212.81713 
L 151.346565 213.370708 
L 152.167206 213.788517 
L 152.89619 214.422578 
L 153.05888 215.155318 
L 153.500294 215.827871 
L 154.64371 216.315664 
L 154.691657 216.79156 
L 155.122294 217.206569 
L 156.298057 218.952686 
L 157.161207 219.610542 
L 157.327395 220.653314 
L 157.629064 221.059225 
L 158.540886 221.751374 
L 159.520588 222.329447 
L 160.646799 222.811642 
L 160.820558 223.279839 
L 160.870638 223.906202 
L 161.210628 224.313513 
L 161.398547 224.923079 
L 162.360546 225.472459 
L 162.945008 226.091124 
L 164.214581 226.60831 
L 164.82394 227.049914 
L 165.50028 227.987009 
L 165.679831 228.466404 
L 166.800073 228.909407 
L 166.947381 229.803111 
L 167.554605 231.554828 
L 167.71367 231.766181 
L 168.130444 232.520616 
L 169.178313 232.871939 
L 170.134172 233.625674 
L 170.489609 234.175054 
L 170.601515 235.347997 
L 170.890616 235.83509 
L 171.421117 236.404066 
L 172.033706 237.476231 
L 173.044753 237.889141 
L 173.086917 238.617681 
L 174.847373 239.504387 
L 176.614611 240.008277 
L 177.414546 240.732618 
L 177.436815 240.943272 
L 178.101691 241.690709 
L 178.342445 242.45984 
L 179.634675 242.722983 
L 179.941065 243.92392 
L 181.503599 244.510391 
L 182.204403 245.367004 
L 182.283515 245.922682 
L 182.781705 246.732405 
L 183.559269 247.106123 
L 184.086962 247.833964 
L 184.241379 248.332954 
L 184.933304 249.378525 
L 187.194991 250.025184 
L 187.7746 250.433195 
L 187.810544 250.990273 
L 188.603981 251.927367 
L 189.016625 253.042923 
L 189.590158 253.425739 
L 189.986679 254.131885 
L 190.536096 254.562291 
L 192.915878 255.98018 
L 193.477118 256.662531 
L 194.885941 257.16992 
L 196.132704 258.204993 
L 196.484096 258.792165 
L 198.715327 259.275059 
L 199.285665 259.690068 
L 200.193596 260.864411 
L 201.556613 261.893886 
L 205.707984 262.257106 
L 205.861003 263.38246 
L 206.398289 265.964894 
L 206.903467 266.591957 
L 208.154264 267.12874 
L 211.57947 269.017626 
L 212.150605 269.704176 
L 214.229797 270.103088 
L 214.513393 270.730851 
L 216.55798 271.313823 
L 218.446023 271.675644 
L 220.083747 273.626817 
L 221.586112 273.928451 
L 222.85255 274.396648 
L 223.775945 275.734056 
L 227.243581 276.349921 
L 227.359658 277.044169 
L 228.392682 277.620143 
L 228.941207 278.121233 
L 237.844459 278.696507 
L 240.80433 279.630803 
L 241.939182 280.346746 
L 242.356858 281.341228 
L 244.548992 281.782132 
L 251.784173 282.666038 
L 253.652057 283.272805 
L 257.333185 283.777395 
L 261.56393 285.109203 
L 261.82995 285.726468 
L 266.818993 286.810531 
L 272.273336 287.513877 
L 273.535217 288.340396 
L 274.000346 289.023446 
L 278.981257 289.820572 
L 282.475897 290.549112 
L 289.518148 291.690562 
L 291.658792 292.748731 
L 299.092426 294.085438 
L 304.514846 295.869348 
L 327.980893 296.600687 
L 338.895268 297.876508 
L 359.177565 299.222313 
L 398.487273 302.652962 
L 398.487273 302.652962 
" style="fill:none;stroke:#808080;stroke-linecap:square;stroke-width:1.5;"/>
   </g>
   <g id="patch_3">
    <path d="M 57.6 315.2736 
L 57.6 42.5088 
" style="fill:none;stroke:#000000;stroke-linecap:square;stroke-linejoin:miter;stroke-width:0.8;"/>
   </g>
   <g id="patch_4">
    <path d="M 414.72 315.2736 
L 414.72 42.5088 
" style="fill:none;stroke:#000000;stroke-linecap:square;stroke-linejoin:miter;stroke-width:0.8;"/>
   </g>
   <g id="patch_5">
    <path d="M 57.6 315.2736 
L 414.72 315.2736 
" style="fill:none;stroke:#000000;stroke-linecap:square;stroke-linejoin:miter;stroke-width:0.8;"/>
   </g>
   <g id="patch_6">
    <path d="M 57.6 42.5088 
L 414.72 42.5088 
" style="fill:none;stroke:#000000;stroke-linecap:square;stroke-linejoin:miter;stroke-width:0.8;"/>
   </g>
   <g id="legend_1">
    <g id="patch_7">
     <path d="M 280.671562 78.916612 
L 407.72 78.916612 
Q 409.72 78.916612 409.72 76.916612 
L 409.72 49.5088 
Q 409.72 47.5088 407.72 47.5088 
L 280.671562 47.5088 
Q 278.671562 47.5088 278.671562 49.5088 
L 278.671562 76.916612 
Q 278.671562 78.916612 280.671562 78.916612 
z
" style="fill:#ffffff;opacity:0.8;stroke:#cccccc;stroke-linejoin:miter;"/>
    </g>
    <g id="line2d_16">
     <path d="M 282.671562 55.166612 
L 302.671562 55.166612 
" style="fill:none;stroke:#ff0000;stroke-linecap:square;stroke-width:2;"/>
    </g>
    <g id="line2d_17"/>
    <g id="text_16">
     <text style="font-family:Arial;font-size:10px;font-style:normal;font-weight:normal;text-anchor:start;" transform="rotate(-0, 310.671562, 58.666612)" x="310.671562" y="58.666612">Phenotypic clustering</text>
    </g>
    <g id="LineCollection_2">
     <path d="M 292.671562 74.429112 
L 292.671562 64.429112 
" style="fill:none;stroke:#808080;stroke-width:1.5;"/>
    </g>
    <g id="line2d_18">
     <path d="M 282.671562 69.429112 
L 302.671562 69.429112 
" style="fill:none;stroke:#808080;stroke-linecap:square;stroke-width:1.5;"/>
    </g>
    <g id="line2d_19"/>
    <g id="text_17">
     <text style="font-family:Arial;font-size:10px;font-style:normal;font-weight:normal;text-anchor:start;" transform="rotate(-0, 310.671562, 72.929112)" x="310.671562" y="72.929112">Random clusters</text>
    </g>
   </g>
  </g>
 </g>
 <defs>
  <clipPath id="p5a7f3c5b8b">
   <rect height="272.7648" width="357.12" x="57.6" y="42.5088"/>
  </clipPath>
 </defs>
</svg>
