<?xml version="1.0" encoding="utf-8" standalone="no"?>
<!DOCTYPE svg PUBLIC "-//W3C//DTD SVG 1.1//EN"
  "http://www.w3.org/Graphics/SVG/1.1/DTD/svg11.dtd">
<!-- Created with matplotlib (https://matplotlib.org/) -->
<svg height="354.24pt" version="1.1" viewBox="0 0 460.8 354.24" width="460.8pt" xmlns="http://www.w3.org/2000/svg" xmlns:xlink="http://www.w3.org/1999/xlink">
 <defs>
  <style type="text/css">
*{stroke-linecap:butt;stroke-linejoin:round;}
  </style>
 </defs>
 <g id="figure_1">
  <g id="patch_1">
   <path d="M 0 354.24 
L 460.8 354.24 
L 460.8 0 
L 0 0 
z
" style="fill:#ffffff;"/>
  </g>
  <g id="axes_1">
   <g id="patch_2">
    <path d="M 57.6 315.2736 
L 414.72 315.2736 
L 414.72 42.5088 
L 57.6 42.5088 
z
" style="fill:#ffffff;"/>
   </g>
   <g id="matplotlib.axis_1">
    <g id="xtick_1">
     <g id="line2d_1">
      <defs>
       <path d="M 0 0 
L 0 3.5 
" id="md358b15823" style="stroke:#000000;stroke-width:0.8;"/>
      </defs>
      <g>
       <use style="stroke:#000000;stroke-width:0.8;" x="66.371041" xlink:href="#md358b15823" y="315.2736"/>
      </g>
     </g>
     <g id="text_1">
      <text style="font-family:Arial;font-size:10px;font-style:normal;font-weight:normal;text-anchor:middle;" transform="rotate(-0, 66.371041, 329.431413)" x="66.371041" y="329.431413">0.00</text>
     </g>
    </g>
    <g id="xtick_2">
     <g id="line2d_2">
      <g>
       <use style="stroke:#000000;stroke-width:0.8;" x="111.704911" xlink:href="#md358b15823" y="315.2736"/>
      </g>
     </g>
     <g id="text_2">
      <text style="font-family:Arial;font-size:10px;font-style:normal;font-weight:normal;text-anchor:middle;" transform="rotate(-0, 111.704911, 329.431413)" x="111.704911" y="329.431413">0.25</text>
     </g>
    </g>
    <g id="xtick_3">
     <g id="line2d_3">
      <g>
       <use style="stroke:#000000;stroke-width:0.8;" x="157.038781" xlink:href="#md358b15823" y="315.2736"/>
      </g>
     </g>
     <g id="text_3">
      <text style="font-family:Arial;font-size:10px;font-style:normal;font-weight:normal;text-anchor:middle;" transform="rotate(-0, 157.038781, 329.431413)" x="157.038781" y="329.431413">0.50</text>
     </g>
    </g>
    <g id="xtick_4">
     <g id="line2d_4">
      <g>
       <use style="stroke:#000000;stroke-width:0.8;" x="202.372651" xlink:href="#md358b15823" y="315.2736"/>
      </g>
     </g>
     <g id="text_4">
      <text style="font-family:Arial;font-size:10px;font-style:normal;font-weight:normal;text-anchor:middle;" transform="rotate(-0, 202.372651, 329.431413)" x="202.372651" y="329.431413">0.75</text>
     </g>
    </g>
    <g id="xtick_5">
     <g id="line2d_5">
      <g>
       <use style="stroke:#000000;stroke-width:0.8;" x="247.706521" xlink:href="#md358b15823" y="315.2736"/>
      </g>
     </g>
     <g id="text_5">
      <text style="font-family:Arial;font-size:10px;font-style:normal;font-weight:normal;text-anchor:middle;" transform="rotate(-0, 247.706521, 329.431413)" x="247.706521" y="329.431413">1.00</text>
     </g>
    </g>
    <g id="xtick_6">
     <g id="line2d_6">
      <g>
       <use style="stroke:#000000;stroke-width:0.8;" x="293.040392" xlink:href="#md358b15823" y="315.2736"/>
      </g>
     </g>
     <g id="text_6">
      <text style="font-family:Arial;font-size:10px;font-style:normal;font-weight:normal;text-anchor:middle;" transform="rotate(-0, 293.040392, 329.431413)" x="293.040392" y="329.431413">1.25</text>
     </g>
    </g>
    <g id="xtick_7">
     <g id="line2d_7">
      <g>
       <use style="stroke:#000000;stroke-width:0.8;" x="338.374262" xlink:href="#md358b15823" y="315.2736"/>
      </g>
     </g>
     <g id="text_7">
      <text style="font-family:Arial;font-size:10px;font-style:normal;font-weight:normal;text-anchor:middle;" transform="rotate(-0, 338.374262, 329.431413)" x="338.374262" y="329.431413">1.50</text>
     </g>
    </g>
    <g id="xtick_8">
     <g id="line2d_8">
      <g>
       <use style="stroke:#000000;stroke-width:0.8;" x="383.708132" xlink:href="#md358b15823" y="315.2736"/>
      </g>
     </g>
     <g id="text_8">
      <text style="font-family:Arial;font-size:10px;font-style:normal;font-weight:normal;text-anchor:middle;" transform="rotate(-0, 383.708132, 329.431413)" x="383.708132" y="329.431413">1.75</text>
     </g>
    </g>
    <g id="text_9">
     <text style="font-family:Arial;font-size:10px;font-style:normal;font-weight:normal;text-anchor:middle;" transform="rotate(-0, 236.16, 342.576725)" x="236.16" y="342.576725">Hierachical clustering distance</text>
    </g>
   </g>
   <g id="matplotlib.axis_2">
    <g id="ytick_1">
     <g id="line2d_9">
      <defs>
       <path d="M 0 0 
L -3.5 0 
" id="m28693b344b" style="stroke:#000000;stroke-width:0.8;"/>
      </defs>
      <g>
       <use style="stroke:#000000;stroke-width:0.8;" x="57.6" xlink:href="#m28693b344b" y="289.514839"/>
      </g>
     </g>
     <g id="text_10">
      <text style="font-family:Arial;font-size:10px;font-style:normal;font-weight:normal;text-anchor:end;" transform="rotate(-0, 50.6, 293.093745)" x="50.6" y="293.093745">0.2</text>
     </g>
    </g>
    <g id="ytick_2">
     <g id="line2d_10">
      <g>
       <use style="stroke:#000000;stroke-width:0.8;" x="57.6" xlink:href="#m28693b344b" y="230.862929"/>
      </g>
     </g>
     <g id="text_11">
      <text style="font-family:Arial;font-size:10px;font-style:normal;font-weight:normal;text-anchor:end;" transform="rotate(-0, 50.6, 234.441835)" x="50.6" y="234.441835">0.4</text>
     </g>
    </g>
    <g id="ytick_3">
     <g id="line2d_11">
      <g>
       <use style="stroke:#000000;stroke-width:0.8;" x="57.6" xlink:href="#m28693b344b" y="172.211019"/>
      </g>
     </g>
     <g id="text_12">
      <text style="font-family:Arial;font-size:10px;font-style:normal;font-weight:normal;text-anchor:end;" transform="rotate(-0, 50.6, 175.789926)" x="50.6" y="175.789926">0.6</text>
     </g>
    </g>
    <g id="ytick_4">
     <g id="line2d_12">
      <g>
       <use style="stroke:#000000;stroke-width:0.8;" x="57.6" xlink:href="#m28693b344b" y="113.55911"/>
      </g>
     </g>
     <g id="text_13">
      <text style="font-family:Arial;font-size:10px;font-style:normal;font-weight:normal;text-anchor:end;" transform="rotate(-0, 50.6, 117.138016)" x="50.6" y="117.138016">0.8</text>
     </g>
    </g>
    <g id="ytick_5">
     <g id="line2d_13">
      <g>
       <use style="stroke:#000000;stroke-width:0.8;" x="57.6" xlink:href="#m28693b344b" y="54.9072"/>
      </g>
     </g>
     <g id="text_14">
      <text style="font-family:Arial;font-size:10px;font-style:normal;font-weight:normal;text-anchor:end;" transform="rotate(-0, 50.6, 58.486106)" x="50.6" y="58.486106">1.0</text>
     </g>
    </g>
    <g id="text_15">
     <text style="font-family:Arial;font-size:10px;font-style:normal;font-weight:normal;text-anchor:middle;" transform="rotate(-90, 30.595312, 178.8912)" x="30.595312" y="178.8912">Cluster purity</text>
    </g>
   </g>
   <g id="LineCollection_1">
    <path clip-path="url(#p0050333b12)" d="M 73.832727 55.747314 
L 73.832727 55.325512 
" style="fill:none;stroke:#808080;stroke-width:1.5;"/>
    <path clip-path="url(#p0050333b12)" d="M 74.918426 56.469161 
L 74.918426 55.856493 
" style="fill:none;stroke:#808080;stroke-width:1.5;"/>
    <path clip-path="url(#p0050333b12)" d="M 74.99024 57.151079 
L 74.99024 56.405005 
" style="fill:none;stroke:#808080;stroke-width:1.5;"/>
    <path clip-path="url(#p0050333b12)" d="M 75.375431 57.844934 
L 75.375431 56.993373 
" style="fill:none;stroke:#808080;stroke-width:1.5;"/>
    <path clip-path="url(#p0050333b12)" d="M 75.710213 58.499376 
L 75.710213 57.532966 
" style="fill:none;stroke:#808080;stroke-width:1.5;"/>
    <path clip-path="url(#p0050333b12)" d="M 77.022058 59.198559 
L 77.022058 58.152402 
" style="fill:none;stroke:#808080;stroke-width:1.5;"/>
    <path clip-path="url(#p0050333b12)" d="M 78.657001 59.852841 
L 78.657001 58.659959 
" style="fill:none;stroke:#808080;stroke-width:1.5;"/>
    <path clip-path="url(#p0050333b12)" d="M 78.91947 60.517659 
L 78.91947 59.336156 
" style="fill:none;stroke:#808080;stroke-width:1.5;"/>
    <path clip-path="url(#p0050333b12)" d="M 79.209765 61.1494 
L 79.209765 59.82566 
" style="fill:none;stroke:#808080;stroke-width:1.5;"/>
    <path clip-path="url(#p0050333b12)" d="M 79.913106 61.767131 
L 79.913106 60.399165 
" style="fill:none;stroke:#808080;stroke-width:1.5;"/>
    <path clip-path="url(#p0050333b12)" d="M 80.491636 62.448187 
L 80.491636 60.972336 
" style="fill:none;stroke:#808080;stroke-width:1.5;"/>
    <path clip-path="url(#p0050333b12)" d="M 80.700169 63.125204 
L 80.700169 61.615337 
" style="fill:none;stroke:#808080;stroke-width:1.5;"/>
    <path clip-path="url(#p0050333b12)" d="M 80.86342 63.75724 
L 80.86342 62.209532 
" style="fill:none;stroke:#808080;stroke-width:1.5;"/>
    <path clip-path="url(#p0050333b12)" d="M 80.878289 64.376521 
L 80.878289 62.777287 
" style="fill:none;stroke:#808080;stroke-width:1.5;"/>
    <path clip-path="url(#p0050333b12)" d="M 81.060224 65.007788 
L 81.060224 63.23507 
" style="fill:none;stroke:#808080;stroke-width:1.5;"/>
    <path clip-path="url(#p0050333b12)" d="M 81.299533 65.623469 
L 81.299533 63.76863 
" style="fill:none;stroke:#808080;stroke-width:1.5;"/>
    <path clip-path="url(#p0050333b12)" d="M 81.309062 66.2413 
L 81.309062 64.487615 
" style="fill:none;stroke:#808080;stroke-width:1.5;"/>
    <path clip-path="url(#p0050333b12)" d="M 81.621714 66.918736 
L 81.621714 65.015413 
" style="fill:none;stroke:#808080;stroke-width:1.5;"/>
    <path clip-path="url(#p0050333b12)" d="M 81.660834 67.454443 
L 81.660834 65.400778 
" style="fill:none;stroke:#808080;stroke-width:1.5;"/>
    <path clip-path="url(#p0050333b12)" d="M 82.063738 68.027106 
L 82.063738 66.065545 
" style="fill:none;stroke:#808080;stroke-width:1.5;"/>
    <path clip-path="url(#p0050333b12)" d="M 82.279122 68.697477 
L 82.279122 66.638202 
" style="fill:none;stroke:#808080;stroke-width:1.5;"/>
    <path clip-path="url(#p0050333b12)" d="M 83.096649 69.350129 
L 83.096649 67.155789 
" style="fill:none;stroke:#808080;stroke-width:1.5;"/>
    <path clip-path="url(#p0050333b12)" d="M 83.533052 69.96508 
L 83.533052 67.771269 
" style="fill:none;stroke:#808080;stroke-width:1.5;"/>
    <path clip-path="url(#p0050333b12)" d="M 83.825737 70.581638 
L 83.825737 68.386541 
" style="fill:none;stroke:#808080;stroke-width:1.5;"/>
    <path clip-path="url(#p0050333b12)" d="M 83.972942 71.276394 
L 83.972942 69.046798 
" style="fill:none;stroke:#808080;stroke-width:1.5;"/>
    <path clip-path="url(#p0050333b12)" d="M 84.891285 71.919788 
L 84.891285 69.537247 
" style="fill:none;stroke:#808080;stroke-width:1.5;"/>
    <path clip-path="url(#p0050333b12)" d="M 85.303482 72.420182 
L 85.303482 70.125903 
" style="fill:none;stroke:#808080;stroke-width:1.5;"/>
    <path clip-path="url(#p0050333b12)" d="M 85.341494 73.027274 
L 85.341494 70.651255 
" style="fill:none;stroke:#808080;stroke-width:1.5;"/>
    <path clip-path="url(#p0050333b12)" d="M 85.446085 73.856555 
L 85.446085 71.335165 
" style="fill:none;stroke:#808080;stroke-width:1.5;"/>
    <path clip-path="url(#p0050333b12)" d="M 85.49351 74.459526 
L 85.49351 71.947226 
" style="fill:none;stroke:#808080;stroke-width:1.5;"/>
    <path clip-path="url(#p0050333b12)" d="M 85.780377 75.003039 
L 85.780377 72.495563 
" style="fill:none;stroke:#808080;stroke-width:1.5;"/>
    <path clip-path="url(#p0050333b12)" d="M 86.117787 75.687176 
L 86.117787 73.036257 
" style="fill:none;stroke:#808080;stroke-width:1.5;"/>
    <path clip-path="url(#p0050333b12)" d="M 86.335378 76.237108 
L 86.335378 73.593573 
" style="fill:none;stroke:#808080;stroke-width:1.5;"/>
    <path clip-path="url(#p0050333b12)" d="M 86.65626 76.885424 
L 86.65626 74.153289 
" style="fill:none;stroke:#808080;stroke-width:1.5;"/>
    <path clip-path="url(#p0050333b12)" d="M 86.74483 77.369813 
L 86.74483 74.791546 
" style="fill:none;stroke:#808080;stroke-width:1.5;"/>
    <path clip-path="url(#p0050333b12)" d="M 86.826683 78.000303 
L 86.826683 75.282301 
" style="fill:none;stroke:#808080;stroke-width:1.5;"/>
    <path clip-path="url(#p0050333b12)" d="M 86.866196 78.505468 
L 86.866196 75.738803 
" style="fill:none;stroke:#808080;stroke-width:1.5;"/>
    <path clip-path="url(#p0050333b12)" d="M 87.338891 79.067816 
L 87.338891 76.353693 
" style="fill:none;stroke:#808080;stroke-width:1.5;"/>
    <path clip-path="url(#p0050333b12)" d="M 87.482233 79.789241 
L 87.482233 76.950886 
" style="fill:none;stroke:#808080;stroke-width:1.5;"/>
    <path clip-path="url(#p0050333b12)" d="M 88.21705 80.341521 
L 88.21705 77.441462 
" style="fill:none;stroke:#808080;stroke-width:1.5;"/>
    <path clip-path="url(#p0050333b12)" d="M 88.306522 81.034691 
L 88.306522 78.163497 
" style="fill:none;stroke:#808080;stroke-width:1.5;"/>
    <path clip-path="url(#p0050333b12)" d="M 88.848818 81.57191 
L 88.848818 78.683133 
" style="fill:none;stroke:#808080;stroke-width:1.5;"/>
    <path clip-path="url(#p0050333b12)" d="M 89.880608 82.194254 
L 89.880608 79.266022 
" style="fill:none;stroke:#808080;stroke-width:1.5;"/>
    <path clip-path="url(#p0050333b12)" d="M 90.208391 82.943107 
L 90.208391 79.940772 
" style="fill:none;stroke:#808080;stroke-width:1.5;"/>
    <path clip-path="url(#p0050333b12)" d="M 90.29817 83.542752 
L 90.29817 80.571558 
" style="fill:none;stroke:#808080;stroke-width:1.5;"/>
    <path clip-path="url(#p0050333b12)" d="M 90.349344 84.156462 
L 90.349344 81.020301 
" style="fill:none;stroke:#808080;stroke-width:1.5;"/>
    <path clip-path="url(#p0050333b12)" d="M 90.44145 84.741869 
L 90.44145 81.742314 
" style="fill:none;stroke:#808080;stroke-width:1.5;"/>
    <path clip-path="url(#p0050333b12)" d="M 90.949608 85.369578 
L 90.949608 82.214853 
" style="fill:none;stroke:#808080;stroke-width:1.5;"/>
    <path clip-path="url(#p0050333b12)" d="M 91.163899 85.818164 
L 91.163899 82.68874 
" style="fill:none;stroke:#808080;stroke-width:1.5;"/>
    <path clip-path="url(#p0050333b12)" d="M 91.288107 86.309399 
L 91.288107 83.038789 
" style="fill:none;stroke:#808080;stroke-width:1.5;"/>
    <path clip-path="url(#p0050333b12)" d="M 91.482011 86.85787 
L 91.482011 83.618563 
" style="fill:none;stroke:#808080;stroke-width:1.5;"/>
    <path clip-path="url(#p0050333b12)" d="M 91.590304 87.508239 
L 91.590304 84.250417 
" style="fill:none;stroke:#808080;stroke-width:1.5;"/>
    <path clip-path="url(#p0050333b12)" d="M 91.675933 88.242455 
L 91.675933 84.903409 
" style="fill:none;stroke:#808080;stroke-width:1.5;"/>
    <path clip-path="url(#p0050333b12)" d="M 91.885575 88.701781 
L 91.885575 85.393152 
" style="fill:none;stroke:#808080;stroke-width:1.5;"/>
    <path clip-path="url(#p0050333b12)" d="M 92.122898 89.35419 
L 92.122898 86.057962 
" style="fill:none;stroke:#808080;stroke-width:1.5;"/>
    <path clip-path="url(#p0050333b12)" d="M 92.444121 90.053675 
L 92.444121 86.609904 
" style="fill:none;stroke:#808080;stroke-width:1.5;"/>
    <path clip-path="url(#p0050333b12)" d="M 92.601093 90.539218 
L 92.601093 87.175616 
" style="fill:none;stroke:#808080;stroke-width:1.5;"/>
    <path clip-path="url(#p0050333b12)" d="M 92.803918 91.117832 
L 92.803918 87.730846 
" style="fill:none;stroke:#808080;stroke-width:1.5;"/>
    <path clip-path="url(#p0050333b12)" d="M 93.047814 91.706131 
L 93.047814 88.266591 
" style="fill:none;stroke:#808080;stroke-width:1.5;"/>
    <path clip-path="url(#p0050333b12)" d="M 93.106951 92.44511 
L 93.106951 88.986211 
" style="fill:none;stroke:#808080;stroke-width:1.5;"/>
    <path clip-path="url(#p0050333b12)" d="M 93.148247 93.139376 
L 93.148247 89.733747 
" style="fill:none;stroke:#808080;stroke-width:1.5;"/>
    <path clip-path="url(#p0050333b12)" d="M 93.236913 93.479913 
L 93.236913 89.960131 
" style="fill:none;stroke:#808080;stroke-width:1.5;"/>
    <path clip-path="url(#p0050333b12)" d="M 94.183067 93.809104 
L 94.183067 90.291649 
" style="fill:none;stroke:#808080;stroke-width:1.5;"/>
    <path clip-path="url(#p0050333b12)" d="M 94.211669 94.342452 
L 94.211669 90.901943 
" style="fill:none;stroke:#808080;stroke-width:1.5;"/>
    <path clip-path="url(#p0050333b12)" d="M 94.228914 94.868586 
L 94.228914 91.341677 
" style="fill:none;stroke:#808080;stroke-width:1.5;"/>
    <path clip-path="url(#p0050333b12)" d="M 94.235118 95.375096 
L 94.235118 91.754839 
" style="fill:none;stroke:#808080;stroke-width:1.5;"/>
    <path clip-path="url(#p0050333b12)" d="M 94.412291 95.976893 
L 94.412291 92.32888 
" style="fill:none;stroke:#808080;stroke-width:1.5;"/>
    <path clip-path="url(#p0050333b12)" d="M 94.473907 96.554933 
L 94.473907 92.799296 
" style="fill:none;stroke:#808080;stroke-width:1.5;"/>
    <path clip-path="url(#p0050333b12)" d="M 95.214358 97.007837 
L 95.214358 93.284262 
" style="fill:none;stroke:#808080;stroke-width:1.5;"/>
    <path clip-path="url(#p0050333b12)" d="M 95.516972 97.607149 
L 95.516972 93.975572 
" style="fill:none;stroke:#808080;stroke-width:1.5;"/>
    <path clip-path="url(#p0050333b12)" d="M 95.521463 98.230497 
L 95.521463 94.392281 
" style="fill:none;stroke:#808080;stroke-width:1.5;"/>
    <path clip-path="url(#p0050333b12)" d="M 95.739708 98.672199 
L 95.739708 94.982237 
" style="fill:none;stroke:#808080;stroke-width:1.5;"/>
    <path clip-path="url(#p0050333b12)" d="M 95.782387 99.149703 
L 95.782387 95.418806 
" style="fill:none;stroke:#808080;stroke-width:1.5;"/>
    <path clip-path="url(#p0050333b12)" d="M 96.143216 99.904058 
L 96.143216 96.163645 
" style="fill:none;stroke:#808080;stroke-width:1.5;"/>
    <path clip-path="url(#p0050333b12)" d="M 96.324075 100.697197 
L 96.324075 96.819305 
" style="fill:none;stroke:#808080;stroke-width:1.5;"/>
    <path clip-path="url(#p0050333b12)" d="M 97.058733 101.223469 
L 97.058733 97.349888 
" style="fill:none;stroke:#808080;stroke-width:1.5;"/>
    <path clip-path="url(#p0050333b12)" d="M 97.329972 101.774817 
L 97.329972 97.888989 
" style="fill:none;stroke:#808080;stroke-width:1.5;"/>
    <path clip-path="url(#p0050333b12)" d="M 97.441968 102.1082 
L 97.441968 98.300304 
" style="fill:none;stroke:#808080;stroke-width:1.5;"/>
    <path clip-path="url(#p0050333b12)" d="M 97.514784 102.970376 
L 97.514784 99.005911 
" style="fill:none;stroke:#808080;stroke-width:1.5;"/>
    <path clip-path="url(#p0050333b12)" d="M 97.652339 103.524459 
L 97.652339 99.505883 
" style="fill:none;stroke:#808080;stroke-width:1.5;"/>
    <path clip-path="url(#p0050333b12)" d="M 97.661102 104.048104 
L 97.661102 100.099284 
" style="fill:none;stroke:#808080;stroke-width:1.5;"/>
    <path clip-path="url(#p0050333b12)" d="M 97.793331 104.726614 
L 97.793331 100.701597 
" style="fill:none;stroke:#808080;stroke-width:1.5;"/>
    <path clip-path="url(#p0050333b12)" d="M 97.886082 105.471023 
L 97.886082 101.415787 
" style="fill:none;stroke:#808080;stroke-width:1.5;"/>
    <path clip-path="url(#p0050333b12)" d="M 98.074066 105.911996 
L 98.074066 101.943481 
" style="fill:none;stroke:#808080;stroke-width:1.5;"/>
    <path clip-path="url(#p0050333b12)" d="M 98.100104 106.429622 
L 98.100104 102.348327 
" style="fill:none;stroke:#808080;stroke-width:1.5;"/>
    <path clip-path="url(#p0050333b12)" d="M 98.514096 107.102628 
L 98.514096 103.089126 
" style="fill:none;stroke:#808080;stroke-width:1.5;"/>
    <path clip-path="url(#p0050333b12)" d="M 98.90279 107.672323 
L 98.90279 103.693869 
" style="fill:none;stroke:#808080;stroke-width:1.5;"/>
    <path clip-path="url(#p0050333b12)" d="M 99.243158 108.402359 
L 99.243158 104.170467 
" style="fill:none;stroke:#808080;stroke-width:1.5;"/>
    <path clip-path="url(#p0050333b12)" d="M 99.571963 108.691367 
L 99.571963 104.584161 
" style="fill:none;stroke:#808080;stroke-width:1.5;"/>
    <path clip-path="url(#p0050333b12)" d="M 99.845455 109.587841 
L 99.845455 105.384253 
" style="fill:none;stroke:#808080;stroke-width:1.5;"/>
    <path clip-path="url(#p0050333b12)" d="M 100.020577 109.892258 
L 100.020577 105.84973 
" style="fill:none;stroke:#808080;stroke-width:1.5;"/>
    <path clip-path="url(#p0050333b12)" d="M 100.253657 110.514835 
L 100.253657 106.362397 
" style="fill:none;stroke:#808080;stroke-width:1.5;"/>
    <path clip-path="url(#p0050333b12)" d="M 100.319042 111.372182 
L 100.319042 107.067235 
" style="fill:none;stroke:#808080;stroke-width:1.5;"/>
    <path clip-path="url(#p0050333b12)" d="M 100.940938 111.842663 
L 100.940938 107.600414 
" style="fill:none;stroke:#808080;stroke-width:1.5;"/>
    <path clip-path="url(#p0050333b12)" d="M 101.013143 112.442102 
L 101.013143 108.207609 
" style="fill:none;stroke:#808080;stroke-width:1.5;"/>
    <path clip-path="url(#p0050333b12)" d="M 101.501782 112.684857 
L 101.501782 108.660558 
" style="fill:none;stroke:#808080;stroke-width:1.5;"/>
    <path clip-path="url(#p0050333b12)" d="M 101.871086 113.357328 
L 101.871086 109.210119 
" style="fill:none;stroke:#808080;stroke-width:1.5;"/>
    <path clip-path="url(#p0050333b12)" d="M 101.971168 114.190159 
L 101.971168 110.015063 
" style="fill:none;stroke:#808080;stroke-width:1.5;"/>
    <path clip-path="url(#p0050333b12)" d="M 102.062 114.856269 
L 102.062 110.471597 
" style="fill:none;stroke:#808080;stroke-width:1.5;"/>
    <path clip-path="url(#p0050333b12)" d="M 102.348549 115.194289 
L 102.348549 110.930067 
" style="fill:none;stroke:#808080;stroke-width:1.5;"/>
    <path clip-path="url(#p0050333b12)" d="M 102.490547 115.899161 
L 102.490547 111.508818 
" style="fill:none;stroke:#808080;stroke-width:1.5;"/>
    <path clip-path="url(#p0050333b12)" d="M 102.538689 116.414485 
L 102.538689 112.074145 
" style="fill:none;stroke:#808080;stroke-width:1.5;"/>
    <path clip-path="url(#p0050333b12)" d="M 102.900557 116.946841 
L 102.900557 112.62804 
" style="fill:none;stroke:#808080;stroke-width:1.5;"/>
    <path clip-path="url(#p0050333b12)" d="M 103.020813 117.398395 
L 103.020813 113.079361 
" style="fill:none;stroke:#808080;stroke-width:1.5;"/>
    <path clip-path="url(#p0050333b12)" d="M 103.225572 118.196351 
L 103.225572 113.856188 
" style="fill:none;stroke:#808080;stroke-width:1.5;"/>
    <path clip-path="url(#p0050333b12)" d="M 103.253666 118.578864 
L 103.253666 114.342954 
" style="fill:none;stroke:#808080;stroke-width:1.5;"/>
    <path clip-path="url(#p0050333b12)" d="M 103.602699 119.338146 
L 103.602699 114.879894 
" style="fill:none;stroke:#808080;stroke-width:1.5;"/>
    <path clip-path="url(#p0050333b12)" d="M 104.022743 120.11313 
L 104.022743 115.590105 
" style="fill:none;stroke:#808080;stroke-width:1.5;"/>
    <path clip-path="url(#p0050333b12)" d="M 104.086549 120.353451 
L 104.086549 116.013293 
" style="fill:none;stroke:#808080;stroke-width:1.5;"/>
    <path clip-path="url(#p0050333b12)" d="M 104.580249 121.106616 
L 104.580249 116.596943 
" style="fill:none;stroke:#808080;stroke-width:1.5;"/>
    <path clip-path="url(#p0050333b12)" d="M 104.971055 121.843315 
L 104.971055 117.255851 
" style="fill:none;stroke:#808080;stroke-width:1.5;"/>
    <path clip-path="url(#p0050333b12)" d="M 105.091077 122.261679 
L 105.091077 117.748762 
" style="fill:none;stroke:#808080;stroke-width:1.5;"/>
    <path clip-path="url(#p0050333b12)" d="M 105.131986 122.608212 
L 105.131986 118.163724 
" style="fill:none;stroke:#808080;stroke-width:1.5;"/>
    <path clip-path="url(#p0050333b12)" d="M 105.238874 123.389209 
L 105.238874 118.879121 
" style="fill:none;stroke:#808080;stroke-width:1.5;"/>
    <path clip-path="url(#p0050333b12)" d="M 105.333843 123.751433 
L 105.333843 119.260194 
" style="fill:none;stroke:#808080;stroke-width:1.5;"/>
    <path clip-path="url(#p0050333b12)" d="M 105.353075 124.47393 
L 105.353075 119.863314 
" style="fill:none;stroke:#808080;stroke-width:1.5;"/>
    <path clip-path="url(#p0050333b12)" d="M 105.481706 124.936687 
L 105.481706 120.39162 
" style="fill:none;stroke:#808080;stroke-width:1.5;"/>
    <path clip-path="url(#p0050333b12)" d="M 105.524444 125.590343 
L 105.524444 120.965595 
" style="fill:none;stroke:#808080;stroke-width:1.5;"/>
    <path clip-path="url(#p0050333b12)" d="M 105.528781 126.007646 
L 105.528781 121.425971 
" style="fill:none;stroke:#808080;stroke-width:1.5;"/>
    <path clip-path="url(#p0050333b12)" d="M 106.092134 126.773043 
L 106.092134 122.197562 
" style="fill:none;stroke:#808080;stroke-width:1.5;"/>
    <path clip-path="url(#p0050333b12)" d="M 106.207029 127.352847 
L 106.207029 122.747402 
" style="fill:none;stroke:#808080;stroke-width:1.5;"/>
    <path clip-path="url(#p0050333b12)" d="M 106.271444 127.741201 
L 106.271444 123.145739 
" style="fill:none;stroke:#808080;stroke-width:1.5;"/>
    <path clip-path="url(#p0050333b12)" d="M 106.410909 128.395607 
L 106.410909 123.870143 
" style="fill:none;stroke:#808080;stroke-width:1.5;"/>
    <path clip-path="url(#p0050333b12)" d="M 106.572557 129.022134 
L 106.572557 124.413855 
" style="fill:none;stroke:#808080;stroke-width:1.5;"/>
    <path clip-path="url(#p0050333b12)" d="M 106.830094 129.391092 
L 106.830094 124.684609 
" style="fill:none;stroke:#808080;stroke-width:1.5;"/>
    <path clip-path="url(#p0050333b12)" d="M 106.933328 130.07477 
L 106.933328 125.332147 
" style="fill:none;stroke:#808080;stroke-width:1.5;"/>
    <path clip-path="url(#p0050333b12)" d="M 107.038418 130.60141 
L 107.038418 125.939351 
" style="fill:none;stroke:#808080;stroke-width:1.5;"/>
    <path clip-path="url(#p0050333b12)" d="M 107.109958 131.269793 
L 107.109958 126.55599 
" style="fill:none;stroke:#808080;stroke-width:1.5;"/>
    <path clip-path="url(#p0050333b12)" d="M 107.485203 131.84653 
L 107.485203 126.994113 
" style="fill:none;stroke:#808080;stroke-width:1.5;"/>
    <path clip-path="url(#p0050333b12)" d="M 107.752251 132.362134 
L 107.752251 127.507368 
" style="fill:none;stroke:#808080;stroke-width:1.5;"/>
    <path clip-path="url(#p0050333b12)" d="M 107.783612 132.869604 
L 107.783612 128.112744 
" style="fill:none;stroke:#808080;stroke-width:1.5;"/>
    <path clip-path="url(#p0050333b12)" d="M 108.011755 133.434236 
L 108.011755 128.784142 
" style="fill:none;stroke:#808080;stroke-width:1.5;"/>
    <path clip-path="url(#p0050333b12)" d="M 108.872229 134.034346 
L 108.872229 129.436859 
" style="fill:none;stroke:#808080;stroke-width:1.5;"/>
    <path clip-path="url(#p0050333b12)" d="M 109.111295 134.30296 
L 109.111295 129.742166 
" style="fill:none;stroke:#808080;stroke-width:1.5;"/>
    <path clip-path="url(#p0050333b12)" d="M 109.493485 134.89047 
L 109.493485 130.131721 
" style="fill:none;stroke:#808080;stroke-width:1.5;"/>
    <path clip-path="url(#p0050333b12)" d="M 109.589924 135.337409 
L 109.589924 130.517666 
" style="fill:none;stroke:#808080;stroke-width:1.5;"/>
    <path clip-path="url(#p0050333b12)" d="M 109.848045 136.102746 
L 109.848045 131.090546 
" style="fill:none;stroke:#808080;stroke-width:1.5;"/>
    <path clip-path="url(#p0050333b12)" d="M 110.045479 136.54395 
L 110.045479 131.886771 
" style="fill:none;stroke:#808080;stroke-width:1.5;"/>
    <path clip-path="url(#p0050333b12)" d="M 111.145893 137.028476 
L 111.145893 132.289723 
" style="fill:none;stroke:#808080;stroke-width:1.5;"/>
    <path clip-path="url(#p0050333b12)" d="M 111.19951 137.381141 
L 111.19951 132.662157 
" style="fill:none;stroke:#808080;stroke-width:1.5;"/>
    <path clip-path="url(#p0050333b12)" d="M 111.311147 137.652598 
L 111.311147 132.988418 
" style="fill:none;stroke:#808080;stroke-width:1.5;"/>
    <path clip-path="url(#p0050333b12)" d="M 111.563511 138.489237 
L 111.563511 133.502593 
" style="fill:none;stroke:#808080;stroke-width:1.5;"/>
    <path clip-path="url(#p0050333b12)" d="M 112.350572 139.053061 
L 112.350572 134.104808 
" style="fill:none;stroke:#808080;stroke-width:1.5;"/>
    <path clip-path="url(#p0050333b12)" d="M 112.487099 139.543407 
L 112.487099 134.585927 
" style="fill:none;stroke:#808080;stroke-width:1.5;"/>
    <path clip-path="url(#p0050333b12)" d="M 112.632586 140.308672 
L 112.632586 135.324055 
" style="fill:none;stroke:#808080;stroke-width:1.5;"/>
    <path clip-path="url(#p0050333b12)" d="M 112.764042 140.728912 
L 112.764042 135.623316 
" style="fill:none;stroke:#808080;stroke-width:1.5;"/>
    <path clip-path="url(#p0050333b12)" d="M 112.856681 141.193195 
L 112.856681 136.542043 
" style="fill:none;stroke:#808080;stroke-width:1.5;"/>
    <path clip-path="url(#p0050333b12)" d="M 112.993195 142.096733 
L 112.993195 136.993517 
" style="fill:none;stroke:#808080;stroke-width:1.5;"/>
    <path clip-path="url(#p0050333b12)" d="M 114.353902 142.676069 
L 114.353902 137.375849 
" style="fill:none;stroke:#808080;stroke-width:1.5;"/>
    <path clip-path="url(#p0050333b12)" d="M 114.833543 143.223201 
L 114.833543 138.232723 
" style="fill:none;stroke:#808080;stroke-width:1.5;"/>
    <path clip-path="url(#p0050333b12)" d="M 115.12303 143.493542 
L 115.12303 138.469112 
" style="fill:none;stroke:#808080;stroke-width:1.5;"/>
    <path clip-path="url(#p0050333b12)" d="M 115.530289 144.343608 
L 115.530289 139.261019 
" style="fill:none;stroke:#808080;stroke-width:1.5;"/>
    <path clip-path="url(#p0050333b12)" d="M 115.617623 144.66581 
L 115.617623 139.794099 
" style="fill:none;stroke:#808080;stroke-width:1.5;"/>
    <path clip-path="url(#p0050333b12)" d="M 115.867286 145.361076 
L 115.867286 140.351661 
" style="fill:none;stroke:#808080;stroke-width:1.5;"/>
    <path clip-path="url(#p0050333b12)" d="M 116.313435 145.863095 
L 116.313435 140.903696 
" style="fill:none;stroke:#808080;stroke-width:1.5;"/>
    <path clip-path="url(#p0050333b12)" d="M 116.530957 146.473163 
L 116.530957 141.413474 
" style="fill:none;stroke:#808080;stroke-width:1.5;"/>
    <path clip-path="url(#p0050333b12)" d="M 116.810928 147.092439 
L 116.810928 141.956037 
" style="fill:none;stroke:#808080;stroke-width:1.5;"/>
    <path clip-path="url(#p0050333b12)" d="M 116.857874 147.591765 
L 116.857874 142.528964 
" style="fill:none;stroke:#808080;stroke-width:1.5;"/>
    <path clip-path="url(#p0050333b12)" d="M 117.011329 148.196551 
L 117.011329 143.184004 
" style="fill:none;stroke:#808080;stroke-width:1.5;"/>
    <path clip-path="url(#p0050333b12)" d="M 117.215918 148.921339 
L 117.215918 143.777834 
" style="fill:none;stroke:#808080;stroke-width:1.5;"/>
    <path clip-path="url(#p0050333b12)" d="M 117.236827 149.511808 
L 117.236827 144.661362 
" style="fill:none;stroke:#808080;stroke-width:1.5;"/>
    <path clip-path="url(#p0050333b12)" d="M 117.532444 149.941592 
L 117.532444 144.916083 
" style="fill:none;stroke:#808080;stroke-width:1.5;"/>
    <path clip-path="url(#p0050333b12)" d="M 117.784243 150.628137 
L 117.784243 145.721732 
" style="fill:none;stroke:#808080;stroke-width:1.5;"/>
    <path clip-path="url(#p0050333b12)" d="M 117.832027 151.512971 
L 117.832027 146.249304 
" style="fill:none;stroke:#808080;stroke-width:1.5;"/>
    <path clip-path="url(#p0050333b12)" d="M 118.050477 151.857475 
L 118.050477 146.743284 
" style="fill:none;stroke:#808080;stroke-width:1.5;"/>
    <path clip-path="url(#p0050333b12)" d="M 118.605007 152.436539 
L 118.605007 147.517833 
" style="fill:none;stroke:#808080;stroke-width:1.5;"/>
    <path clip-path="url(#p0050333b12)" d="M 118.718588 152.865822 
L 118.718588 147.787054 
" style="fill:none;stroke:#808080;stroke-width:1.5;"/>
    <path clip-path="url(#p0050333b12)" d="M 118.784914 153.765522 
L 118.784914 148.527927 
" style="fill:none;stroke:#808080;stroke-width:1.5;"/>
    <path clip-path="url(#p0050333b12)" d="M 118.845973 154.24783 
L 118.845973 149.108073 
" style="fill:none;stroke:#808080;stroke-width:1.5;"/>
    <path clip-path="url(#p0050333b12)" d="M 119.02926 154.99285 
L 119.02926 149.772659 
" style="fill:none;stroke:#808080;stroke-width:1.5;"/>
    <path clip-path="url(#p0050333b12)" d="M 119.076719 155.647839 
L 119.076719 150.447486 
" style="fill:none;stroke:#808080;stroke-width:1.5;"/>
    <path clip-path="url(#p0050333b12)" d="M 119.094257 156.231029 
L 119.094257 150.901554 
" style="fill:none;stroke:#808080;stroke-width:1.5;"/>
    <path clip-path="url(#p0050333b12)" d="M 119.253809 156.817547 
L 119.253809 151.539866 
" style="fill:none;stroke:#808080;stroke-width:1.5;"/>
    <path clip-path="url(#p0050333b12)" d="M 119.279749 157.207701 
L 119.279749 152.03579 
" style="fill:none;stroke:#808080;stroke-width:1.5;"/>
    <path clip-path="url(#p0050333b12)" d="M 119.738734 157.865886 
L 119.738734 152.64583 
" style="fill:none;stroke:#808080;stroke-width:1.5;"/>
    <path clip-path="url(#p0050333b12)" d="M 119.797435 158.439688 
L 119.797435 153.054692 
" style="fill:none;stroke:#808080;stroke-width:1.5;"/>
    <path clip-path="url(#p0050333b12)" d="M 120.131468 158.920482 
L 120.131468 153.664348 
" style="fill:none;stroke:#808080;stroke-width:1.5;"/>
    <path clip-path="url(#p0050333b12)" d="M 120.809654 159.754436 
L 120.809654 154.2386 
" style="fill:none;stroke:#808080;stroke-width:1.5;"/>
    <path clip-path="url(#p0050333b12)" d="M 121.136312 160.065009 
L 121.136312 154.723117 
" style="fill:none;stroke:#808080;stroke-width:1.5;"/>
    <path clip-path="url(#p0050333b12)" d="M 121.310359 160.65879 
L 121.310359 155.305174 
" style="fill:none;stroke:#808080;stroke-width:1.5;"/>
    <path clip-path="url(#p0050333b12)" d="M 121.637649 161.008048 
L 121.637649 155.776203 
" style="fill:none;stroke:#808080;stroke-width:1.5;"/>
    <path clip-path="url(#p0050333b12)" d="M 122.274314 161.708185 
L 122.274314 156.582258 
" style="fill:none;stroke:#808080;stroke-width:1.5;"/>
    <path clip-path="url(#p0050333b12)" d="M 123.285964 162.016765 
L 123.285964 156.703419 
" style="fill:none;stroke:#808080;stroke-width:1.5;"/>
    <path clip-path="url(#p0050333b12)" d="M 123.420526 162.76791 
L 123.420526 157.312886 
" style="fill:none;stroke:#808080;stroke-width:1.5;"/>
    <path clip-path="url(#p0050333b12)" d="M 123.600322 163.144856 
L 123.600322 157.882209 
" style="fill:none;stroke:#808080;stroke-width:1.5;"/>
    <path clip-path="url(#p0050333b12)" d="M 123.819568 163.785308 
L 123.819568 158.487585 
" style="fill:none;stroke:#808080;stroke-width:1.5;"/>
    <path clip-path="url(#p0050333b12)" d="M 123.986852 164.301162 
L 123.986852 158.944597 
" style="fill:none;stroke:#808080;stroke-width:1.5;"/>
    <path clip-path="url(#p0050333b12)" d="M 124.16778 164.690226 
L 124.16778 159.322628 
" style="fill:none;stroke:#808080;stroke-width:1.5;"/>
    <path clip-path="url(#p0050333b12)" d="M 124.496122 165.534039 
L 124.496122 160.124988 
" style="fill:none;stroke:#808080;stroke-width:1.5;"/>
    <path clip-path="url(#p0050333b12)" d="M 124.542041 165.749439 
L 124.542041 160.515704 
" style="fill:none;stroke:#808080;stroke-width:1.5;"/>
    <path clip-path="url(#p0050333b12)" d="M 124.753003 166.321845 
L 124.753003 161.035147 
" style="fill:none;stroke:#808080;stroke-width:1.5;"/>
    <path clip-path="url(#p0050333b12)" d="M 124.846445 166.716175 
L 124.846445 161.521296 
" style="fill:none;stroke:#808080;stroke-width:1.5;"/>
    <path clip-path="url(#p0050333b12)" d="M 125.03264 167.45509 
L 125.03264 162.204585 
" style="fill:none;stroke:#808080;stroke-width:1.5;"/>
    <path clip-path="url(#p0050333b12)" d="M 125.166965 167.996096 
L 125.166965 162.895409 
" style="fill:none;stroke:#808080;stroke-width:1.5;"/>
    <path clip-path="url(#p0050333b12)" d="M 125.387715 168.543484 
L 125.387715 163.236898 
" style="fill:none;stroke:#808080;stroke-width:1.5;"/>
    <path clip-path="url(#p0050333b12)" d="M 125.413026 169.169141 
L 125.413026 163.85427 
" style="fill:none;stroke:#808080;stroke-width:1.5;"/>
    <path clip-path="url(#p0050333b12)" d="M 125.503845 169.750814 
L 125.503845 164.393843 
" style="fill:none;stroke:#808080;stroke-width:1.5;"/>
    <path clip-path="url(#p0050333b12)" d="M 125.812484 170.505561 
L 125.812484 165.285268 
" style="fill:none;stroke:#808080;stroke-width:1.5;"/>
    <path clip-path="url(#p0050333b12)" d="M 125.95652 170.847009 
L 125.95652 165.628325 
" style="fill:none;stroke:#808080;stroke-width:1.5;"/>
    <path clip-path="url(#p0050333b12)" d="M 126.031315 171.457479 
L 126.031315 165.923531 
" style="fill:none;stroke:#808080;stroke-width:1.5;"/>
    <path clip-path="url(#p0050333b12)" d="M 126.599815 171.929495 
L 126.599815 166.588158 
" style="fill:none;stroke:#808080;stroke-width:1.5;"/>
    <path clip-path="url(#p0050333b12)" d="M 126.679854 172.602247 
L 126.679854 167.152835 
" style="fill:none;stroke:#808080;stroke-width:1.5;"/>
    <path clip-path="url(#p0050333b12)" d="M 127.170237 172.923204 
L 127.170237 167.533182 
" style="fill:none;stroke:#808080;stroke-width:1.5;"/>
    <path clip-path="url(#p0050333b12)" d="M 127.717786 173.351377 
L 127.717786 168.189859 
" style="fill:none;stroke:#808080;stroke-width:1.5;"/>
    <path clip-path="url(#p0050333b12)" d="M 127.99456 174.284619 
L 127.99456 168.796405 
" style="fill:none;stroke:#808080;stroke-width:1.5;"/>
    <path clip-path="url(#p0050333b12)" d="M 128.251566 174.354077 
L 128.251566 169.011108 
" style="fill:none;stroke:#808080;stroke-width:1.5;"/>
    <path clip-path="url(#p0050333b12)" d="M 128.392205 175.448472 
L 128.392205 169.779855 
" style="fill:none;stroke:#808080;stroke-width:1.5;"/>
    <path clip-path="url(#p0050333b12)" d="M 128.430395 176.031723 
L 128.430395 170.702797 
" style="fill:none;stroke:#808080;stroke-width:1.5;"/>
    <path clip-path="url(#p0050333b12)" d="M 128.600431 176.38658 
L 128.600431 171.171026 
" style="fill:none;stroke:#808080;stroke-width:1.5;"/>
    <path clip-path="url(#p0050333b12)" d="M 128.94889 177.013649 
L 128.94889 171.6764 
" style="fill:none;stroke:#808080;stroke-width:1.5;"/>
    <path clip-path="url(#p0050333b12)" d="M 129.202693 177.948557 
L 129.202693 172.597636 
" style="fill:none;stroke:#808080;stroke-width:1.5;"/>
    <path clip-path="url(#p0050333b12)" d="M 129.676132 178.467678 
L 129.676132 172.789617 
" style="fill:none;stroke:#808080;stroke-width:1.5;"/>
    <path clip-path="url(#p0050333b12)" d="M 130.123523 179.22637 
L 130.123523 173.348144 
" style="fill:none;stroke:#808080;stroke-width:1.5;"/>
    <path clip-path="url(#p0050333b12)" d="M 130.439797 179.729462 
L 130.439797 174.173468 
" style="fill:none;stroke:#808080;stroke-width:1.5;"/>
    <path clip-path="url(#p0050333b12)" d="M 130.870638 180.363062 
L 130.870638 174.669512 
" style="fill:none;stroke:#808080;stroke-width:1.5;"/>
    <path clip-path="url(#p0050333b12)" d="M 130.99119 180.94682 
L 130.99119 175.276991 
" style="fill:none;stroke:#808080;stroke-width:1.5;"/>
    <path clip-path="url(#p0050333b12)" d="M 131.268036 181.551059 
L 131.268036 176.20834 
" style="fill:none;stroke:#808080;stroke-width:1.5;"/>
    <path clip-path="url(#p0050333b12)" d="M 131.467655 182.144972 
L 131.467655 176.681079 
" style="fill:none;stroke:#808080;stroke-width:1.5;"/>
    <path clip-path="url(#p0050333b12)" d="M 131.538606 182.521943 
L 131.538606 177.188786 
" style="fill:none;stroke:#808080;stroke-width:1.5;"/>
    <path clip-path="url(#p0050333b12)" d="M 131.805624 183.024617 
L 131.805624 177.587589 
" style="fill:none;stroke:#808080;stroke-width:1.5;"/>
    <path clip-path="url(#p0050333b12)" d="M 132.065062 183.597364 
L 132.065062 178.063296 
" style="fill:none;stroke:#808080;stroke-width:1.5;"/>
    <path clip-path="url(#p0050333b12)" d="M 132.148261 184.408495 
L 132.148261 178.857744 
" style="fill:none;stroke:#808080;stroke-width:1.5;"/>
    <path clip-path="url(#p0050333b12)" d="M 132.149151 184.871151 
L 132.149151 179.363754 
" style="fill:none;stroke:#808080;stroke-width:1.5;"/>
    <path clip-path="url(#p0050333b12)" d="M 133.063527 185.660043 
L 133.063527 179.915877 
" style="fill:none;stroke:#808080;stroke-width:1.5;"/>
    <path clip-path="url(#p0050333b12)" d="M 133.288764 185.959992 
L 133.288764 180.420818 
" style="fill:none;stroke:#808080;stroke-width:1.5;"/>
    <path clip-path="url(#p0050333b12)" d="M 133.512295 186.499538 
L 133.512295 181.066908 
" style="fill:none;stroke:#808080;stroke-width:1.5;"/>
    <path clip-path="url(#p0050333b12)" d="M 133.543825 187.135199 
L 133.543825 181.434908 
" style="fill:none;stroke:#808080;stroke-width:1.5;"/>
    <path clip-path="url(#p0050333b12)" d="M 133.716892 187.627192 
L 133.716892 182.206941 
" style="fill:none;stroke:#808080;stroke-width:1.5;"/>
    <path clip-path="url(#p0050333b12)" d="M 133.817563 188.480744 
L 133.817563 183.01636 
" style="fill:none;stroke:#808080;stroke-width:1.5;"/>
    <path clip-path="url(#p0050333b12)" d="M 134.499599 189.077446 
L 134.499599 183.288938 
" style="fill:none;stroke:#808080;stroke-width:1.5;"/>
    <path clip-path="url(#p0050333b12)" d="M 134.768305 189.671035 
L 134.768305 184.173545 
" style="fill:none;stroke:#808080;stroke-width:1.5;"/>
    <path clip-path="url(#p0050333b12)" d="M 134.864137 190.184841 
L 134.864137 184.540217 
" style="fill:none;stroke:#808080;stroke-width:1.5;"/>
    <path clip-path="url(#p0050333b12)" d="M 135.249995 190.51292 
L 135.249995 185.078619 
" style="fill:none;stroke:#808080;stroke-width:1.5;"/>
    <path clip-path="url(#p0050333b12)" d="M 135.890401 191.248395 
L 135.890401 185.882931 
" style="fill:none;stroke:#808080;stroke-width:1.5;"/>
    <path clip-path="url(#p0050333b12)" d="M 136.280042 191.697475 
L 136.280042 186.009173 
" style="fill:none;stroke:#808080;stroke-width:1.5;"/>
    <path clip-path="url(#p0050333b12)" d="M 136.422746 192.537452 
L 136.422746 186.73138 
" style="fill:none;stroke:#808080;stroke-width:1.5;"/>
    <path clip-path="url(#p0050333b12)" d="M 136.438497 193.222233 
L 136.438497 187.27423 
" style="fill:none;stroke:#808080;stroke-width:1.5;"/>
    <path clip-path="url(#p0050333b12)" d="M 136.852858 193.732501 
L 136.852858 187.741027 
" style="fill:none;stroke:#808080;stroke-width:1.5;"/>
    <path clip-path="url(#p0050333b12)" d="M 137.20725 194.222644 
L 137.20725 188.418323 
" style="fill:none;stroke:#808080;stroke-width:1.5;"/>
    <path clip-path="url(#p0050333b12)" d="M 137.925044 195.028728 
L 137.925044 189.212218 
" style="fill:none;stroke:#808080;stroke-width:1.5;"/>
    <path clip-path="url(#p0050333b12)" d="M 138.715074 195.187186 
L 138.715074 189.490499 
" style="fill:none;stroke:#808080;stroke-width:1.5;"/>
    <path clip-path="url(#p0050333b12)" d="M 138.83887 195.81009 
L 138.83887 189.806866 
" style="fill:none;stroke:#808080;stroke-width:1.5;"/>
    <path clip-path="url(#p0050333b12)" d="M 139.181955 196.535139 
L 139.181955 190.810579 
" style="fill:none;stroke:#808080;stroke-width:1.5;"/>
    <path clip-path="url(#p0050333b12)" d="M 139.23292 196.944534 
L 139.23292 191.215871 
" style="fill:none;stroke:#808080;stroke-width:1.5;"/>
    <path clip-path="url(#p0050333b12)" d="M 139.688259 197.637803 
L 139.688259 191.904212 
" style="fill:none;stroke:#808080;stroke-width:1.5;"/>
    <path clip-path="url(#p0050333b12)" d="M 139.839922 197.962632 
L 139.839922 192.196698 
" style="fill:none;stroke:#808080;stroke-width:1.5;"/>
    <path clip-path="url(#p0050333b12)" d="M 141.345784 198.509754 
L 141.345784 192.70363 
" style="fill:none;stroke:#808080;stroke-width:1.5;"/>
    <path clip-path="url(#p0050333b12)" d="M 141.605114 198.938012 
L 141.605114 193.175448 
" style="fill:none;stroke:#808080;stroke-width:1.5;"/>
    <path clip-path="url(#p0050333b12)" d="M 141.806195 199.496009 
L 141.806195 193.542724 
" style="fill:none;stroke:#808080;stroke-width:1.5;"/>
    <path clip-path="url(#p0050333b12)" d="M 141.937974 200.281499 
L 141.937974 194.444001 
" style="fill:none;stroke:#808080;stroke-width:1.5;"/>
    <path clip-path="url(#p0050333b12)" d="M 142.554904 200.797095 
L 142.554904 194.969861 
" style="fill:none;stroke:#808080;stroke-width:1.5;"/>
    <path clip-path="url(#p0050333b12)" d="M 142.585337 201.301434 
L 142.585337 195.385195 
" style="fill:none;stroke:#808080;stroke-width:1.5;"/>
    <path clip-path="url(#p0050333b12)" d="M 142.59144 202.204312 
L 142.59144 196.012306 
" style="fill:none;stroke:#808080;stroke-width:1.5;"/>
    <path clip-path="url(#p0050333b12)" d="M 143.830429 202.725361 
L 143.830429 196.893863 
" style="fill:none;stroke:#808080;stroke-width:1.5;"/>
    <path clip-path="url(#p0050333b12)" d="M 144.16068 203.290346 
L 144.16068 197.254151 
" style="fill:none;stroke:#808080;stroke-width:1.5;"/>
    <path clip-path="url(#p0050333b12)" d="M 144.327251 203.786047 
L 144.327251 197.938488 
" style="fill:none;stroke:#808080;stroke-width:1.5;"/>
    <path clip-path="url(#p0050333b12)" d="M 145.267172 204.233806 
L 145.267172 198.329213 
" style="fill:none;stroke:#808080;stroke-width:1.5;"/>
    <path clip-path="url(#p0050333b12)" d="M 145.298619 204.767591 
L 145.298619 198.825685 
" style="fill:none;stroke:#808080;stroke-width:1.5;"/>
    <path clip-path="url(#p0050333b12)" d="M 145.640663 205.801261 
L 145.640663 199.85673 
" style="fill:none;stroke:#808080;stroke-width:1.5;"/>
    <path clip-path="url(#p0050333b12)" d="M 145.924262 206.091919 
L 145.924262 200.007012 
" style="fill:none;stroke:#808080;stroke-width:1.5;"/>
    <path clip-path="url(#p0050333b12)" d="M 146.368203 206.812866 
L 146.368203 200.782459 
" style="fill:none;stroke:#808080;stroke-width:1.5;"/>
    <path clip-path="url(#p0050333b12)" d="M 146.513584 207.468775 
L 146.513584 201.495561 
" style="fill:none;stroke:#808080;stroke-width:1.5;"/>
    <path clip-path="url(#p0050333b12)" d="M 146.759175 208.052817 
L 146.759175 202.008967 
" style="fill:none;stroke:#808080;stroke-width:1.5;"/>
    <path clip-path="url(#p0050333b12)" d="M 147.021814 208.670496 
L 147.021814 202.954873 
" style="fill:none;stroke:#808080;stroke-width:1.5;"/>
    <path clip-path="url(#p0050333b12)" d="M 147.690329 209.04729 
L 147.690329 203.105806 
" style="fill:none;stroke:#808080;stroke-width:1.5;"/>
    <path clip-path="url(#p0050333b12)" d="M 147.9212 209.383762 
L 147.9212 203.529429 
" style="fill:none;stroke:#808080;stroke-width:1.5;"/>
    <path clip-path="url(#p0050333b12)" d="M 148.360557 209.694966 
L 148.360557 203.958723 
" style="fill:none;stroke:#808080;stroke-width:1.5;"/>
    <path clip-path="url(#p0050333b12)" d="M 148.599746 210.692178 
L 148.599746 204.677674 
" style="fill:none;stroke:#808080;stroke-width:1.5;"/>
    <path clip-path="url(#p0050333b12)" d="M 148.798705 211.092434 
L 148.798705 204.984321 
" style="fill:none;stroke:#808080;stroke-width:1.5;"/>
    <path clip-path="url(#p0050333b12)" d="M 149.187457 211.738554 
L 149.187457 205.684814 
" style="fill:none;stroke:#808080;stroke-width:1.5;"/>
    <path clip-path="url(#p0050333b12)" d="M 149.240596 212.326507 
L 149.240596 206.304895 
" style="fill:none;stroke:#808080;stroke-width:1.5;"/>
    <path clip-path="url(#p0050333b12)" d="M 149.312219 212.743402 
L 149.312219 206.697089 
" style="fill:none;stroke:#808080;stroke-width:1.5;"/>
    <path clip-path="url(#p0050333b12)" d="M 149.585534 213.45296 
L 149.585534 207.525919 
" style="fill:none;stroke:#808080;stroke-width:1.5;"/>
    <path clip-path="url(#p0050333b12)" d="M 149.659376 214.129037 
L 149.659376 208.139064 
" style="fill:none;stroke:#808080;stroke-width:1.5;"/>
    <path clip-path="url(#p0050333b12)" d="M 150.068069 214.60442 
L 150.068069 208.486767 
" style="fill:none;stroke:#808080;stroke-width:1.5;"/>
    <path clip-path="url(#p0050333b12)" d="M 150.862328 215.091742 
L 150.862328 209.103893 
" style="fill:none;stroke:#808080;stroke-width:1.5;"/>
    <path clip-path="url(#p0050333b12)" d="M 151.191701 215.712136 
L 151.191701 209.467563 
" style="fill:none;stroke:#808080;stroke-width:1.5;"/>
    <path clip-path="url(#p0050333b12)" d="M 151.346565 216.429998 
L 151.346565 210.237696 
" style="fill:none;stroke:#808080;stroke-width:1.5;"/>
    <path clip-path="url(#p0050333b12)" d="M 152.167206 216.814229 
L 152.167206 210.886522 
" style="fill:none;stroke:#808080;stroke-width:1.5;"/>
    <path clip-path="url(#p0050333b12)" d="M 152.89619 217.349153 
L 152.89619 211.370657 
" style="fill:none;stroke:#808080;stroke-width:1.5;"/>
    <path clip-path="url(#p0050333b12)" d="M 153.05888 217.799374 
L 153.05888 211.740724 
" style="fill:none;stroke:#808080;stroke-width:1.5;"/>
    <path clip-path="url(#p0050333b12)" d="M 153.500294 218.704281 
L 153.500294 212.603772 
" style="fill:none;stroke:#808080;stroke-width:1.5;"/>
    <path clip-path="url(#p0050333b12)" d="M 154.64371 219.415466 
L 154.64371 213.288195 
" style="fill:none;stroke:#808080;stroke-width:1.5;"/>
    <path clip-path="url(#p0050333b12)" d="M 154.691657 219.935963 
L 154.691657 213.636978 
" style="fill:none;stroke:#808080;stroke-width:1.5;"/>
    <path clip-path="url(#p0050333b12)" d="M 155.122294 220.312777 
L 155.122294 214.184037 
" style="fill:none;stroke:#808080;stroke-width:1.5;"/>
    <path clip-path="url(#p0050333b12)" d="M 155.606165 220.764145 
L 155.606165 214.748928 
" style="fill:none;stroke:#808080;stroke-width:1.5;"/>
    <path clip-path="url(#p0050333b12)" d="M 156.075387 221.413121 
L 156.075387 215.328983 
" style="fill:none;stroke:#808080;stroke-width:1.5;"/>
    <path clip-path="url(#p0050333b12)" d="M 156.298057 222.029003 
L 156.298057 215.968728 
" style="fill:none;stroke:#808080;stroke-width:1.5;"/>
    <path clip-path="url(#p0050333b12)" d="M 157.161207 222.661078 
L 157.161207 216.401906 
" style="fill:none;stroke:#808080;stroke-width:1.5;"/>
    <path clip-path="url(#p0050333b12)" d="M 157.249993 223.019478 
L 157.249993 217.03037 
" style="fill:none;stroke:#808080;stroke-width:1.5;"/>
    <path clip-path="url(#p0050333b12)" d="M 157.327395 223.423686 
L 157.327395 217.390456 
" style="fill:none;stroke:#808080;stroke-width:1.5;"/>
    <path clip-path="url(#p0050333b12)" d="M 157.629064 224.216744 
L 157.629064 218.278566 
" style="fill:none;stroke:#808080;stroke-width:1.5;"/>
    <path clip-path="url(#p0050333b12)" d="M 158.540886 224.697053 
L 158.540886 218.660538 
" style="fill:none;stroke:#808080;stroke-width:1.5;"/>
    <path clip-path="url(#p0050333b12)" d="M 159.520588 225.297345 
L 159.520588 219.040111 
" style="fill:none;stroke:#808080;stroke-width:1.5;"/>
    <path clip-path="url(#p0050333b12)" d="M 160.646799 225.794831 
L 160.646799 219.465098 
" style="fill:none;stroke:#808080;stroke-width:1.5;"/>
    <path clip-path="url(#p0050333b12)" d="M 160.820558 226.352412 
L 160.820558 220.345119 
" style="fill:none;stroke:#808080;stroke-width:1.5;"/>
    <path clip-path="url(#p0050333b12)" d="M 160.870638 227.015387 
L 160.870638 220.718001 
" style="fill:none;stroke:#808080;stroke-width:1.5;"/>
    <path clip-path="url(#p0050333b12)" d="M 161.210628 227.511752 
L 161.210628 221.540254 
" style="fill:none;stroke:#808080;stroke-width:1.5;"/>
    <path clip-path="url(#p0050333b12)" d="M 161.398547 228.076329 
L 161.398547 221.906549 
" style="fill:none;stroke:#808080;stroke-width:1.5;"/>
    <path clip-path="url(#p0050333b12)" d="M 162.360546 228.756633 
L 162.360546 222.560261 
" style="fill:none;stroke:#808080;stroke-width:1.5;"/>
    <path clip-path="url(#p0050333b12)" d="M 162.945008 229.093349 
L 162.945008 222.958444 
" style="fill:none;stroke:#808080;stroke-width:1.5;"/>
    <path clip-path="url(#p0050333b12)" d="M 164.214581 229.943407 
L 164.214581 223.601979 
" style="fill:none;stroke:#808080;stroke-width:1.5;"/>
    <path clip-path="url(#p0050333b12)" d="M 164.82394 230.423754 
L 164.82394 224.116895 
" style="fill:none;stroke:#808080;stroke-width:1.5;"/>
    <path clip-path="url(#p0050333b12)" d="M 165.50028 231.065837 
L 165.50028 224.565262 
" style="fill:none;stroke:#808080;stroke-width:1.5;"/>
    <path clip-path="url(#p0050333b12)" d="M 165.679831 231.484121 
L 165.679831 225.259824 
" style="fill:none;stroke:#808080;stroke-width:1.5;"/>
    <path clip-path="url(#p0050333b12)" d="M 166.800073 231.943343 
L 166.800073 225.704877 
" style="fill:none;stroke:#808080;stroke-width:1.5;"/>
    <path clip-path="url(#p0050333b12)" d="M 166.864335 232.66904 
L 166.864335 226.349591 
" style="fill:none;stroke:#808080;stroke-width:1.5;"/>
    <path clip-path="url(#p0050333b12)" d="M 166.947381 233.017175 
L 166.947381 226.653766 
" style="fill:none;stroke:#808080;stroke-width:1.5;"/>
    <path clip-path="url(#p0050333b12)" d="M 167.186931 233.565148 
L 167.186931 227.346022 
" style="fill:none;stroke:#808080;stroke-width:1.5;"/>
    <path clip-path="url(#p0050333b12)" d="M 167.460803 234.058402 
L 167.460803 227.92362 
" style="fill:none;stroke:#808080;stroke-width:1.5;"/>
    <path clip-path="url(#p0050333b12)" d="M 167.554605 234.658135 
L 167.554605 228.545919 
" style="fill:none;stroke:#808080;stroke-width:1.5;"/>
    <path clip-path="url(#p0050333b12)" d="M 167.71367 235.032912 
L 167.71367 228.812254 
" style="fill:none;stroke:#808080;stroke-width:1.5;"/>
    <path clip-path="url(#p0050333b12)" d="M 168.130444 235.954106 
L 168.130444 229.435046 
" style="fill:none;stroke:#808080;stroke-width:1.5;"/>
    <path clip-path="url(#p0050333b12)" d="M 169.178313 236.407732 
L 169.178313 230.07327 
" style="fill:none;stroke:#808080;stroke-width:1.5;"/>
    <path clip-path="url(#p0050333b12)" d="M 170.134172 236.658872 
L 170.134172 230.491237 
" style="fill:none;stroke:#808080;stroke-width:1.5;"/>
    <path clip-path="url(#p0050333b12)" d="M 170.489609 237.404304 
L 170.489609 231.01403 
" style="fill:none;stroke:#808080;stroke-width:1.5;"/>
    <path clip-path="url(#p0050333b12)" d="M 170.582108 237.880041 
L 170.582108 231.604947 
" style="fill:none;stroke:#808080;stroke-width:1.5;"/>
    <path clip-path="url(#p0050333b12)" d="M 170.601515 238.393178 
L 170.601515 232.021281 
" style="fill:none;stroke:#808080;stroke-width:1.5;"/>
    <path clip-path="url(#p0050333b12)" d="M 170.890616 238.9562 
L 170.890616 232.590703 
" style="fill:none;stroke:#808080;stroke-width:1.5;"/>
    <path clip-path="url(#p0050333b12)" d="M 171.421117 239.668643 
L 171.421117 233.499237 
" style="fill:none;stroke:#808080;stroke-width:1.5;"/>
    <path clip-path="url(#p0050333b12)" d="M 171.576232 240.032634 
L 171.576232 233.693769 
" style="fill:none;stroke:#808080;stroke-width:1.5;"/>
    <path clip-path="url(#p0050333b12)" d="M 172.033706 240.717418 
L 172.033706 234.250613 
" style="fill:none;stroke:#808080;stroke-width:1.5;"/>
    <path clip-path="url(#p0050333b12)" d="M 173.044753 241.153996 
L 173.044753 234.856891 
" style="fill:none;stroke:#808080;stroke-width:1.5;"/>
    <path clip-path="url(#p0050333b12)" d="M 173.086917 241.607945 
L 173.086917 235.322616 
" style="fill:none;stroke:#808080;stroke-width:1.5;"/>
    <path clip-path="url(#p0050333b12)" d="M 174.309054 242.226363 
L 174.309054 235.77505 
" style="fill:none;stroke:#808080;stroke-width:1.5;"/>
    <path clip-path="url(#p0050333b12)" d="M 174.847373 242.609293 
L 174.847373 236.310393 
" style="fill:none;stroke:#808080;stroke-width:1.5;"/>
    <path clip-path="url(#p0050333b12)" d="M 176.614611 243.43139 
L 176.614611 237.026684 
" style="fill:none;stroke:#808080;stroke-width:1.5;"/>
    <path clip-path="url(#p0050333b12)" d="M 177.414546 243.959386 
L 177.414546 237.866299 
" style="fill:none;stroke:#808080;stroke-width:1.5;"/>
    <path clip-path="url(#p0050333b12)" d="M 177.436815 244.368934 
L 177.436815 238.109061 
" style="fill:none;stroke:#808080;stroke-width:1.5;"/>
    <path clip-path="url(#p0050333b12)" d="M 178.101691 244.899282 
L 178.101691 238.767149 
" style="fill:none;stroke:#808080;stroke-width:1.5;"/>
    <path clip-path="url(#p0050333b12)" d="M 178.342445 245.539807 
L 178.342445 239.263268 
" style="fill:none;stroke:#808080;stroke-width:1.5;"/>
    <path clip-path="url(#p0050333b12)" d="M 179.634675 245.92331 
L 179.634675 239.823235 
" style="fill:none;stroke:#808080;stroke-width:1.5;"/>
    <path clip-path="url(#p0050333b12)" d="M 179.794455 246.427724 
L 179.794455 240.297286 
" style="fill:none;stroke:#808080;stroke-width:1.5;"/>
    <path clip-path="url(#p0050333b12)" d="M 179.941065 247.171257 
L 179.941065 240.925564 
" style="fill:none;stroke:#808080;stroke-width:1.5;"/>
    <path clip-path="url(#p0050333b12)" d="M 181.503599 247.64085 
L 181.503599 241.493227 
" style="fill:none;stroke:#808080;stroke-width:1.5;"/>
    <path clip-path="url(#p0050333b12)" d="M 182.204403 248.598495 
L 182.204403 242.426721 
" style="fill:none;stroke:#808080;stroke-width:1.5;"/>
    <path clip-path="url(#p0050333b12)" d="M 182.283515 249.450922 
L 182.283515 242.918109 
" style="fill:none;stroke:#808080;stroke-width:1.5;"/>
    <path clip-path="url(#p0050333b12)" d="M 182.781705 249.684404 
L 182.781705 243.509113 
" style="fill:none;stroke:#808080;stroke-width:1.5;"/>
    <path clip-path="url(#p0050333b12)" d="M 183.559269 250.418612 
L 183.559269 243.914348 
" style="fill:none;stroke:#808080;stroke-width:1.5;"/>
    <path clip-path="url(#p0050333b12)" d="M 184.086962 250.735517 
L 184.086962 244.554911 
" style="fill:none;stroke:#808080;stroke-width:1.5;"/>
    <path clip-path="url(#p0050333b12)" d="M 184.241379 251.378118 
L 184.241379 245.050353 
" style="fill:none;stroke:#808080;stroke-width:1.5;"/>
    <path clip-path="url(#p0050333b12)" d="M 184.587175 252.165267 
L 184.587175 245.95697 
" style="fill:none;stroke:#808080;stroke-width:1.5;"/>
    <path clip-path="url(#p0050333b12)" d="M 184.933304 252.501534 
L 184.933304 246.231019 
" style="fill:none;stroke:#808080;stroke-width:1.5;"/>
    <path clip-path="url(#p0050333b12)" d="M 187.194991 252.918122 
L 187.194991 246.770499 
" style="fill:none;stroke:#808080;stroke-width:1.5;"/>
    <path clip-path="url(#p0050333b12)" d="M 187.7746 253.899331 
L 187.7746 247.448062 
" style="fill:none;stroke:#808080;stroke-width:1.5;"/>
    <path clip-path="url(#p0050333b12)" d="M 187.810544 254.311763 
L 187.810544 247.9735 
" style="fill:none;stroke:#808080;stroke-width:1.5;"/>
    <path clip-path="url(#p0050333b12)" d="M 188.118499 254.57194 
L 188.118499 248.257848 
" style="fill:none;stroke:#808080;stroke-width:1.5;"/>
    <path clip-path="url(#p0050333b12)" d="M 188.603981 255.170348 
L 188.603981 248.941663 
" style="fill:none;stroke:#808080;stroke-width:1.5;"/>
    <path clip-path="url(#p0050333b12)" d="M 189.016625 255.992713 
L 189.016625 249.91385 
" style="fill:none;stroke:#808080;stroke-width:1.5;"/>
    <path clip-path="url(#p0050333b12)" d="M 189.590158 256.68513 
L 189.590158 250.565249 
" style="fill:none;stroke:#808080;stroke-width:1.5;"/>
    <path clip-path="url(#p0050333b12)" d="M 189.986679 257.18497 
L 189.986679 251.220249 
" style="fill:none;stroke:#808080;stroke-width:1.5;"/>
    <path clip-path="url(#p0050333b12)" d="M 190.536096 257.674995 
L 190.536096 251.40773 
" style="fill:none;stroke:#808080;stroke-width:1.5;"/>
    <path clip-path="url(#p0050333b12)" d="M 191.736605 258.256206 
L 191.736605 252.087745 
" style="fill:none;stroke:#808080;stroke-width:1.5;"/>
    <path clip-path="url(#p0050333b12)" d="M 192.915878 259.028631 
L 192.915878 252.591944 
" style="fill:none;stroke:#808080;stroke-width:1.5;"/>
    <path clip-path="url(#p0050333b12)" d="M 193.477118 259.733226 
L 193.477118 253.55592 
" style="fill:none;stroke:#808080;stroke-width:1.5;"/>
    <path clip-path="url(#p0050333b12)" d="M 194.885941 260.374109 
L 194.885941 254.040481 
" style="fill:none;stroke:#808080;stroke-width:1.5;"/>
    <path clip-path="url(#p0050333b12)" d="M 195.341312 260.689217 
L 195.341312 254.530262 
" style="fill:none;stroke:#808080;stroke-width:1.5;"/>
    <path clip-path="url(#p0050333b12)" d="M 196.132704 261.25242 
L 196.132704 254.892331 
" style="fill:none;stroke:#808080;stroke-width:1.5;"/>
    <path clip-path="url(#p0050333b12)" d="M 196.484096 261.856778 
L 196.484096 255.528202 
" style="fill:none;stroke:#808080;stroke-width:1.5;"/>
    <path clip-path="url(#p0050333b12)" d="M 198.715327 262.281167 
L 198.715327 256.093476 
" style="fill:none;stroke:#808080;stroke-width:1.5;"/>
    <path clip-path="url(#p0050333b12)" d="M 199.285665 262.855719 
L 199.285665 256.64297 
" style="fill:none;stroke:#808080;stroke-width:1.5;"/>
    <path clip-path="url(#p0050333b12)" d="M 199.784821 263.293215 
L 199.784821 257.098551 
" style="fill:none;stroke:#808080;stroke-width:1.5;"/>
    <path clip-path="url(#p0050333b12)" d="M 200.193596 263.979052 
L 200.193596 257.876911 
" style="fill:none;stroke:#808080;stroke-width:1.5;"/>
    <path clip-path="url(#p0050333b12)" d="M 201.556613 264.873936 
L 201.556613 259.013148 
" style="fill:none;stroke:#808080;stroke-width:1.5;"/>
    <path clip-path="url(#p0050333b12)" d="M 205.707984 265.188949 
L 205.707984 259.119476 
" style="fill:none;stroke:#808080;stroke-width:1.5;"/>
    <path clip-path="url(#p0050333b12)" d="M 205.749323 265.674491 
L 205.749323 259.686589 
" style="fill:none;stroke:#808080;stroke-width:1.5;"/>
    <path clip-path="url(#p0050333b12)" d="M 205.861003 266.402918 
L 205.861003 260.167595 
" style="fill:none;stroke:#808080;stroke-width:1.5;"/>
    <path clip-path="url(#p0050333b12)" d="M 205.961923 267.158462 
L 205.961923 260.905645 
" style="fill:none;stroke:#808080;stroke-width:1.5;"/>
    <path clip-path="url(#p0050333b12)" d="M 206.296166 267.929106 
L 206.296166 261.929554 
" style="fill:none;stroke:#808080;stroke-width:1.5;"/>
    <path clip-path="url(#p0050333b12)" d="M 206.333876 268.518433 
L 206.333876 262.493668 
" style="fill:none;stroke:#808080;stroke-width:1.5;"/>
    <path clip-path="url(#p0050333b12)" d="M 206.398289 268.9098 
L 206.398289 262.646825 
" style="fill:none;stroke:#808080;stroke-width:1.5;"/>
    <path clip-path="url(#p0050333b12)" d="M 206.903467 269.795911 
L 206.903467 263.437683 
" style="fill:none;stroke:#808080;stroke-width:1.5;"/>
    <path clip-path="url(#p0050333b12)" d="M 208.154264 270.277823 
L 208.154264 264.112011 
" style="fill:none;stroke:#808080;stroke-width:1.5;"/>
    <path clip-path="url(#p0050333b12)" d="M 209.669904 271.156452 
L 209.669904 264.798367 
" style="fill:none;stroke:#808080;stroke-width:1.5;"/>
    <path clip-path="url(#p0050333b12)" d="M 210.902454 271.808291 
L 210.902454 265.565932 
" style="fill:none;stroke:#808080;stroke-width:1.5;"/>
    <path clip-path="url(#p0050333b12)" d="M 211.57947 272.035284 
L 211.57947 266.076637 
" style="fill:none;stroke:#808080;stroke-width:1.5;"/>
    <path clip-path="url(#p0050333b12)" d="M 212.150605 272.6039 
L 212.150605 266.496285 
" style="fill:none;stroke:#808080;stroke-width:1.5;"/>
    <path clip-path="url(#p0050333b12)" d="M 214.229797 273.492557 
L 214.229797 267.354587 
" style="fill:none;stroke:#808080;stroke-width:1.5;"/>
    <path clip-path="url(#p0050333b12)" d="M 214.513393 273.735736 
L 214.513393 267.570544 
" style="fill:none;stroke:#808080;stroke-width:1.5;"/>
    <path clip-path="url(#p0050333b12)" d="M 216.55798 274.457101 
L 216.55798 268.081009 
" style="fill:none;stroke:#808080;stroke-width:1.5;"/>
    <path clip-path="url(#p0050333b12)" d="M 218.446023 275.028491 
L 218.446023 268.847835 
" style="fill:none;stroke:#808080;stroke-width:1.5;"/>
    <path clip-path="url(#p0050333b12)" d="M 218.945889 275.359299 
L 218.945889 268.985962 
" style="fill:none;stroke:#808080;stroke-width:1.5;"/>
    <path clip-path="url(#p0050333b12)" d="M 219.432066 275.826354 
L 219.432066 269.886519 
" style="fill:none;stroke:#808080;stroke-width:1.5;"/>
    <path clip-path="url(#p0050333b12)" d="M 220.083747 276.704466 
L 220.083747 270.5118 
" style="fill:none;stroke:#808080;stroke-width:1.5;"/>
    <path clip-path="url(#p0050333b12)" d="M 221.586112 276.918735 
L 221.586112 271.015631 
" style="fill:none;stroke:#808080;stroke-width:1.5;"/>
    <path clip-path="url(#p0050333b12)" d="M 222.85255 277.515758 
L 222.85255 271.502059 
" style="fill:none;stroke:#808080;stroke-width:1.5;"/>
    <path clip-path="url(#p0050333b12)" d="M 223.775945 278.934183 
L 223.775945 272.799259 
" style="fill:none;stroke:#808080;stroke-width:1.5;"/>
    <path clip-path="url(#p0050333b12)" d="M 227.243581 279.352068 
L 227.243581 273.320645 
" style="fill:none;stroke:#808080;stroke-width:1.5;"/>
    <path clip-path="url(#p0050333b12)" d="M 227.359658 279.847808 
L 227.359658 273.807569 
" style="fill:none;stroke:#808080;stroke-width:1.5;"/>
    <path clip-path="url(#p0050333b12)" d="M 228.392682 280.548429 
L 228.392682 274.515154 
" style="fill:none;stroke:#808080;stroke-width:1.5;"/>
    <path clip-path="url(#p0050333b12)" d="M 228.941207 280.883222 
L 228.941207 275.217617 
" style="fill:none;stroke:#808080;stroke-width:1.5;"/>
    <path clip-path="url(#p0050333b12)" d="M 237.844459 281.489483 
L 237.844459 275.610819 
" style="fill:none;stroke:#808080;stroke-width:1.5;"/>
    <path clip-path="url(#p0050333b12)" d="M 239.212268 282.124465 
L 239.212268 276.556219 
" style="fill:none;stroke:#808080;stroke-width:1.5;"/>
    <path clip-path="url(#p0050333b12)" d="M 240.80433 282.748417 
L 240.80433 276.685363 
" style="fill:none;stroke:#808080;stroke-width:1.5;"/>
    <path clip-path="url(#p0050333b12)" d="M 241.939182 283.401961 
L 241.939182 277.357437 
" style="fill:none;stroke:#808080;stroke-width:1.5;"/>
    <path clip-path="url(#p0050333b12)" d="M 242.356858 283.99444 
L 242.356858 278.395732 
" style="fill:none;stroke:#808080;stroke-width:1.5;"/>
    <path clip-path="url(#p0050333b12)" d="M 244.548992 284.571544 
L 244.548992 278.798493 
" style="fill:none;stroke:#808080;stroke-width:1.5;"/>
    <path clip-path="url(#p0050333b12)" d="M 251.784173 285.631124 
L 251.784173 279.749036 
" style="fill:none;stroke:#808080;stroke-width:1.5;"/>
    <path clip-path="url(#p0050333b12)" d="M 253.652057 286.171955 
L 253.652057 280.351847 
" style="fill:none;stroke:#808080;stroke-width:1.5;"/>
    <path clip-path="url(#p0050333b12)" d="M 257.333185 286.981217 
L 257.333185 281.066975 
" style="fill:none;stroke:#808080;stroke-width:1.5;"/>
    <path clip-path="url(#p0050333b12)" d="M 261.56393 287.685583 
L 261.56393 282.465119 
" style="fill:none;stroke:#808080;stroke-width:1.5;"/>
    <path clip-path="url(#p0050333b12)" d="M 261.82995 288.726976 
L 261.82995 282.704549 
" style="fill:none;stroke:#808080;stroke-width:1.5;"/>
    <path clip-path="url(#p0050333b12)" d="M 263.962263 289.032378 
L 263.962263 283.492397 
" style="fill:none;stroke:#808080;stroke-width:1.5;"/>
    <path clip-path="url(#p0050333b12)" d="M 266.818993 289.592019 
L 266.818993 283.949015 
" style="fill:none;stroke:#808080;stroke-width:1.5;"/>
    <path clip-path="url(#p0050333b12)" d="M 272.273336 290.492346 
L 272.273336 284.925829 
" style="fill:none;stroke:#808080;stroke-width:1.5;"/>
    <path clip-path="url(#p0050333b12)" d="M 273.535217 291.25961 
L 273.535217 285.743146 
" style="fill:none;stroke:#808080;stroke-width:1.5;"/>
    <path clip-path="url(#p0050333b12)" d="M 274.000346 291.807245 
L 274.000346 286.120784 
" style="fill:none;stroke:#808080;stroke-width:1.5;"/>
    <path clip-path="url(#p0050333b12)" d="M 278.981257 292.490744 
L 278.981257 287.041463 
" style="fill:none;stroke:#808080;stroke-width:1.5;"/>
    <path clip-path="url(#p0050333b12)" d="M 282.475897 293.576818 
L 282.475897 287.90532 
" style="fill:none;stroke:#808080;stroke-width:1.5;"/>
    <path clip-path="url(#p0050333b12)" d="M 289.518148 294.533281 
L 289.518148 289.03037 
" style="fill:none;stroke:#808080;stroke-width:1.5;"/>
    <path clip-path="url(#p0050333b12)" d="M 291.658792 295.324656 
L 291.658792 289.995754 
" style="fill:none;stroke:#808080;stroke-width:1.5;"/>
    <path clip-path="url(#p0050333b12)" d="M 299.092426 296.594584 
L 299.092426 291.700415 
" style="fill:none;stroke:#808080;stroke-width:1.5;"/>
    <path clip-path="url(#p0050333b12)" d="M 304.514846 298.316536 
L 304.514846 293.547971 
" style="fill:none;stroke:#808080;stroke-width:1.5;"/>
    <path clip-path="url(#p0050333b12)" d="M 327.980893 299.132441 
L 327.980893 294.220061 
" style="fill:none;stroke:#808080;stroke-width:1.5;"/>
    <path clip-path="url(#p0050333b12)" d="M 338.895268 300.356393 
L 338.895268 295.438771 
" style="fill:none;stroke:#808080;stroke-width:1.5;"/>
    <path clip-path="url(#p0050333b12)" d="M 359.177565 301.492419 
L 359.177565 297.16675 
" style="fill:none;stroke:#808080;stroke-width:1.5;"/>
    <path clip-path="url(#p0050333b12)" d="M 378.192772 302.8752 
L 378.192772 298.873343 
" style="fill:none;stroke:#808080;stroke-width:1.5;"/>
    <path clip-path="url(#p0050333b12)" d="M 398.487273 302.673024 
L 398.487273 302.673024 
" style="fill:none;stroke:#808080;stroke-width:1.5;"/>
   </g>
   <g id="line2d_14">
    <path clip-path="url(#p0050333b12)" d="M 73.832727 54.9072 
L 81.660834 54.9072 
L 82.063738 55.607103 
L 83.533052 55.607103 
L 83.825737 56.307007 
L 83.972942 57.00691 
L 84.891285 57.706814 
L 85.303482 57.706814 
L 85.49351 59.806524 
L 86.117787 61.206331 
L 86.74483 61.206331 
L 86.866196 61.906235 
L 87.482233 61.906235 
L 88.21705 62.606138 
L 88.306522 63.306041 
L 88.848818 63.306041 
L 89.880608 64.005945 
L 90.349344 64.005945 
L 90.44145 64.705848 
L 91.482011 64.705848 
L 91.675933 65.405752 
L 92.444121 65.405752 
L 92.601093 66.105655 
L 92.803918 66.105655 
L 93.047814 66.805559 
L 93.148247 67.505462 
L 93.236913 67.505462 
L 94.235118 68.205366 
L 94.412291 68.905269 
L 94.473907 69.605173 
L 95.214358 70.305076 
L 95.739708 70.305076 
L 95.782387 71.004979 
L 96.143216 71.004979 
L 96.324075 71.704883 
L 97.514784 71.704883 
L 97.661102 72.404786 
L 97.886082 72.404786 
L 98.100104 73.10469 
L 99.845455 73.10469 
L 100.020577 73.804593 
L 100.253657 73.804593 
L 100.319042 74.504497 
L 101.013143 75.2044 
L 101.501782 75.2044 
L 101.871086 75.904304 
L 102.062 77.304111 
L 102.538689 77.304111 
L 103.020813 78.004014 
L 105.238874 78.004014 
L 105.528781 80.803628 
L 106.271444 80.803628 
L 106.410909 81.503531 
L 106.572557 81.503531 
L 106.933328 82.203435 
L 107.783612 82.203435 
L 108.011755 82.903338 
L 108.872229 83.603242 
L 109.493485 83.603242 
L 109.589924 84.303145 
L 110.045479 84.303145 
L 111.311147 85.003049 
L 112.350572 85.003049 
L 112.632586 86.402856 
L 112.764042 86.402856 
L 112.856681 87.102759 
L 112.993195 87.102759 
L 114.353902 87.802662 
L 115.12303 87.802662 
L 116.313435 89.902373 
L 116.530957 90.602276 
L 116.857874 92.002083 
L 117.532444 92.002083 
L 118.050477 93.40189 
L 118.718588 93.40189 
L 118.845973 95.5016 
L 119.02926 95.5016 
L 119.279749 97.601311 
L 119.797435 97.601311 
L 120.131468 98.301214 
L 120.809654 98.301214 
L 121.136312 99.001118 
L 123.285964 99.001118 
L 123.420526 99.701021 
L 123.600322 99.701021 
L 123.819568 101.800732 
L 123.986852 101.800732 
L 124.16778 103.200538 
L 124.496122 104.600345 
L 124.542041 105.300249 
L 124.753003 105.300249 
L 125.03264 106.700056 
L 125.166965 106.700056 
L 125.503845 107.399959 
L 125.812484 108.099863 
L 125.95652 108.099863 
L 126.031315 108.799766 
L 127.99456 108.799766 
L 128.251566 109.49967 
L 128.430395 109.49967 
L 128.600431 110.199573 
L 129.676132 110.199573 
L 130.439797 111.59938 
L 131.268036 111.59938 
L 131.538606 112.999187 
L 132.148261 112.999187 
L 132.149151 113.69909 
L 133.063527 113.69909 
L 133.288764 114.398994 
L 133.543825 114.398994 
L 133.716892 115.098897 
L 133.817563 116.498704 
L 134.499599 116.498704 
L 134.864137 117.198608 
L 135.249995 117.898511 
L 136.422746 117.898511 
L 136.438497 118.598415 
L 136.852858 119.298318 
L 139.181955 119.298318 
L 139.23292 119.998221 
L 139.839922 119.998221 
L 141.345784 120.698125 
L 141.605114 121.398028 
L 141.937974 121.398028 
L 142.59144 124.197642 
L 144.16068 124.197642 
L 144.327251 124.897546 
L 145.267172 124.897546 
L 145.298619 125.597449 
L 148.360557 125.597449 
L 148.798705 126.997256 
L 149.240596 126.997256 
L 149.312219 127.697159 
L 149.659376 128.397063 
L 151.191701 128.397063 
L 151.346565 129.096966 
L 152.89619 131.89658 
L 153.05888 137.495808 
L 153.500294 138.195711 
L 154.691657 138.895615 
L 155.122294 138.895615 
L 155.606165 140.295422 
L 156.075387 140.295422 
L 156.298057 140.995325 
L 157.249993 140.995325 
L 157.327395 141.695229 
L 157.629064 142.395132 
L 159.520588 143.794939 
L 160.646799 144.494842 
L 160.870638 145.194746 
L 161.398547 145.194746 
L 162.360546 145.894649 
L 162.945008 147.294456 
L 164.214581 147.99436 
L 164.82394 148.694263 
L 166.947381 148.694263 
L 167.186931 149.394167 
L 167.554605 149.394167 
L 167.71367 150.09407 
L 170.134172 150.09407 
L 170.489609 150.793974 
L 170.601515 152.19378 
L 170.890616 152.893684 
L 172.033706 152.893684 
L 173.044753 153.593587 
L 173.086917 154.293491 
L 174.309054 154.993394 
L 177.436815 154.993394 
L 178.101691 155.693298 
L 179.794455 155.693298 
L 179.941065 156.393201 
L 181.503599 156.393201 
L 182.283515 159.192815 
L 183.559269 159.192815 
L 184.086962 159.892718 
L 184.241379 160.592622 
L 184.933304 161.992429 
L 187.7746 161.992429 
L 187.810544 163.392236 
L 189.016625 163.392236 
L 189.590158 164.092139 
L 194.885941 164.092139 
L 195.341312 165.491946 
L 196.132704 166.19185 
L 196.484096 166.891753 
L 198.715327 168.991463 
L 199.285665 169.691367 
L 199.784821 171.091174 
L 200.193596 171.091174 
L 201.556613 173.890788 
L 205.707984 173.890788 
L 205.749323 174.590691 
L 205.861003 174.590691 
L 205.961923 175.990498 
L 206.333876 175.990498 
L 206.398289 176.690401 
L 206.903467 177.390305 
L 209.669904 177.390305 
L 211.57947 179.490015 
L 214.229797 179.490015 
L 214.513393 181.589726 
L 216.55798 182.989532 
L 218.945889 182.989532 
L 219.432066 185.089243 
L 220.083747 185.089243 
L 221.586112 187.188953 
L 222.85255 187.888857 
L 227.243581 187.888857 
L 227.359658 188.58876 
L 228.392682 189.288664 
L 228.941207 189.288664 
L 237.844459 189.988567 
L 239.212268 190.688471 
L 240.80433 192.088277 
L 241.939182 194.187988 
L 242.356858 203.286733 
L 244.548992 204.68654 
L 251.784173 210.985671 
L 253.652057 210.985671 
L 257.333185 211.685574 
L 261.56393 213.085381 
L 261.82995 214.485188 
L 263.962263 215.884995 
L 266.818993 216.584898 
L 272.273336 219.384512 
L 274.000346 219.384512 
L 278.981257 223.583933 
L 289.518148 234.082485 
L 291.658792 237.582002 
L 299.092426 246.680747 
L 304.514846 248.080554 
L 327.980893 250.880168 
L 338.895268 255.779492 
L 359.177565 270.477465 
L 378.192772 285.175437 
L 398.487273 302.673024 
L 398.487273 302.673024 
" style="fill:none;stroke:#ff0000;stroke-linecap:square;stroke-width:2;"/>
   </g>
   <g id="line2d_15">
    <path clip-path="url(#p0050333b12)" d="M 73.832727 55.536413 
L 74.918426 56.162827 
L 74.99024 56.778042 
L 75.710213 58.016171 
L 77.022058 58.67548 
L 78.657001 59.2564 
L 79.209765 60.48753 
L 80.491636 61.710262 
L 80.86342 62.983386 
L 80.878289 63.576904 
L 81.299533 64.69605 
L 81.309062 65.364458 
L 81.621714 65.967074 
L 81.660834 66.427611 
L 82.063738 67.046326 
L 82.279122 67.66784 
L 83.096649 68.252959 
L 83.533052 68.868174 
L 83.825737 69.484089 
L 83.972942 70.161596 
L 84.891285 70.728518 
L 85.303482 71.273043 
L 85.49351 73.203376 
L 86.65626 75.519357 
L 86.866196 77.122136 
L 87.338891 77.710755 
L 87.482233 78.370064 
L 88.21705 78.891492 
L 88.306522 79.599094 
L 88.848818 80.127521 
L 89.880608 80.730138 
L 90.208391 81.44194 
L 90.44145 83.242092 
L 90.949608 83.792216 
L 91.288107 84.674094 
L 91.590304 85.879328 
L 91.675933 86.572932 
L 92.601093 88.857417 
L 93.047814 89.986361 
L 93.236913 91.720022 
L 94.183067 92.050377 
L 94.235118 93.564968 
L 94.473907 94.677114 
L 95.214358 95.14605 
L 95.516972 95.79136 
L 95.521463 96.311389 
L 95.739708 96.827218 
L 95.782387 97.284255 
L 96.143216 98.033851 
L 96.324075 98.758251 
L 97.058733 99.286678 
L 97.441968 100.204252 
L 97.661102 102.073694 
L 98.100104 104.388975 
L 99.243158 106.286413 
L 99.571963 106.637764 
L 100.319042 109.219708 
L 100.940938 109.721539 
L 101.013143 110.324856 
L 101.501782 110.672708 
L 101.871086 111.283723 
L 102.062 112.663933 
L 102.348549 113.062178 
L 102.538689 114.244315 
L 102.900557 114.78744 
L 103.602699 117.10902 
L 104.971055 119.549583 
L 105.131986 120.385968 
L 105.528781 123.716808 
L 106.092134 124.485302 
L 106.572557 126.717995 
L 106.830094 127.03785 
L 107.109958 128.912892 
L 107.752251 129.934751 
L 107.783612 130.491174 
L 108.011755 131.109189 
L 109.111295 132.022563 
L 109.493485 132.511095 
L 109.848045 133.596646 
L 110.045479 134.21536 
L 111.145893 134.659099 
L 111.311147 135.320508 
L 111.563511 135.995915 
L 112.350572 136.578934 
L 112.764042 138.176114 
L 112.993195 139.545125 
L 114.353902 140.025959 
L 115.530289 141.802314 
L 115.617623 142.229955 
L 115.867286 142.856368 
L 116.313435 143.383396 
L 116.857874 145.060364 
L 117.215918 146.349587 
L 117.236827 147.086585 
L 117.532444 147.428838 
L 117.784243 148.174935 
L 117.832027 148.881137 
L 118.050477 149.30038 
L 118.605007 149.977186 
L 118.718588 150.326438 
L 118.845973 151.677952 
L 119.02926 152.382754 
L 119.279749 154.621746 
L 119.738734 155.255858 
L 119.797435 155.74719 
L 120.131468 156.292415 
L 121.136312 157.394063 
L 121.310359 157.981982 
L 122.274314 159.145222 
L 123.285964 159.360092 
L 123.600322 160.513533 
L 125.03264 164.829837 
L 125.166965 165.445752 
L 125.387715 165.890191 
L 125.503845 167.072328 
L 126.031315 168.690505 
L 126.599815 169.258826 
L 126.679854 169.877541 
L 127.170237 170.228193 
L 127.717786 170.770618 
L 127.99456 171.540512 
L 128.251566 171.682592 
L 128.600431 173.778803 
L 128.94889 174.345025 
L 129.202693 175.273097 
L 129.676132 175.628648 
L 130.123523 176.287257 
L 130.439797 176.951465 
L 130.870638 177.516287 
L 130.99119 178.111905 
L 132.148261 181.63312 
L 132.149151 182.117453 
L 133.063527 182.78796 
L 133.512295 183.783223 
L 133.543825 184.285054 
L 133.716892 184.917067 
L 133.817563 185.748552 
L 134.499599 186.183192 
L 134.864137 187.362529 
L 136.280042 188.853324 
L 136.438497 190.248231 
L 137.925044 192.120473 
L 138.715074 192.338843 
L 138.83887 192.808478 
L 139.839922 195.079665 
L 141.345784 195.606692 
L 141.806195 196.519366 
L 141.937974 197.36275 
L 142.554904 197.883478 
L 142.59144 199.108309 
L 143.830429 199.809612 
L 144.16068 200.272249 
L 144.327251 200.862267 
L 145.267172 201.281509 
L 145.298619 201.796638 
L 145.640663 202.828996 
L 145.924262 203.049465 
L 146.368203 203.797662 
L 146.513584 204.482168 
L 147.021814 205.812684 
L 147.690329 206.076548 
L 147.9212 206.456595 
L 148.360557 206.826844 
L 148.798705 208.038377 
L 149.187457 208.711684 
L 149.312219 209.720245 
L 149.585534 210.489439 
L 149.659376 211.13405 
L 150.068069 211.545594 
L 150.862328 212.097817 
L 151.191701 212.589849 
L 151.346565 213.333847 
L 152.89619 214.359905 
L 153.500294 215.654027 
L 154.64371 216.351831 
L 154.691657 216.786471 
L 156.075387 218.371052 
L 156.298057 218.998865 
L 157.161207 219.531492 
L 157.327395 220.407071 
L 157.629064 221.247655 
L 160.646799 222.629965 
L 161.210628 224.526003 
L 161.398547 224.991439 
L 162.945008 226.025896 
L 164.214581 226.772693 
L 165.50028 227.815549 
L 165.679831 228.371972 
L 166.800073 228.82411 
L 166.947381 229.835471 
L 168.130444 232.694576 
L 169.178313 233.240501 
L 170.134172 233.575055 
L 170.489609 234.209167 
L 170.601515 235.20723 
L 171.421117 236.58394 
L 172.033706 237.484016 
L 173.044753 238.005444 
L 173.086917 238.46528 
L 174.309054 239.000706 
L 174.847373 239.459843 
L 176.614611 240.229037 
L 177.414546 240.912843 
L 177.436815 241.238998 
L 178.101691 241.833216 
L 178.342445 242.401537 
L 179.634675 242.873272 
L 179.941065 244.04841 
L 181.503599 244.567039 
L 182.204403 245.512608 
L 182.283515 246.184515 
L 184.086962 247.645214 
L 184.241379 248.214235 
L 184.587175 249.061119 
L 184.933304 249.366277 
L 187.194991 249.844311 
L 187.7746 250.673696 
L 187.810544 251.142632 
L 188.118499 251.414894 
L 188.603981 252.056006 
L 189.016625 252.953282 
L 189.986679 254.202609 
L 191.736605 255.171976 
L 192.915878 255.810288 
L 193.477118 256.644573 
L 194.885941 257.207295 
L 195.341312 257.609739 
L 196.132704 258.072376 
L 196.484096 258.69249 
L 198.715327 259.187322 
L 199.784821 260.195883 
L 200.193596 260.927982 
L 201.556613 261.943542 
L 205.707984 262.154213 
L 205.961923 264.032054 
L 206.296166 264.92933 
L 206.398289 265.778313 
L 206.903467 266.616797 
L 209.669904 267.977409 
L 211.57947 269.055961 
L 212.150605 269.550092 
L 214.513393 270.65314 
L 218.446023 271.938163 
L 218.945889 272.172631 
L 220.083747 273.608133 
L 221.586112 273.967183 
L 222.85255 274.508908 
L 223.775945 275.866721 
L 227.243581 276.336356 
L 227.359658 276.827689 
L 228.392682 277.531791 
L 228.941207 278.05042 
L 237.844459 278.550151 
L 239.212268 279.340342 
L 240.80433 279.71689 
L 241.939182 280.379699 
L 242.356858 281.195086 
L 244.548992 281.685019 
L 251.784173 282.69008 
L 253.652057 283.261901 
L 257.333185 284.024096 
L 261.56393 285.075351 
L 261.82995 285.715763 
L 263.962263 286.262387 
L 272.273336 287.709088 
L 273.535217 288.501378 
L 274.000346 288.964015 
L 278.981257 289.766104 
L 282.475897 290.741069 
L 289.518148 291.781826 
L 291.658792 292.660205 
L 299.092426 294.1475 
L 304.514846 295.932253 
L 327.980893 296.676251 
L 338.895268 297.897582 
L 359.177565 299.329585 
L 378.192772 300.874272 
L 398.487273 302.673024 
L 398.487273 302.673024 
" style="fill:none;stroke:#808080;stroke-linecap:square;stroke-width:1.5;"/>
   </g>
   <g id="patch_3">
    <path d="M 57.6 315.2736 
L 57.6 42.5088 
" style="fill:none;stroke:#000000;stroke-linecap:square;stroke-linejoin:miter;stroke-width:0.8;"/>
   </g>
   <g id="patch_4">
    <path d="M 414.72 315.2736 
L 414.72 42.5088 
" style="fill:none;stroke:#000000;stroke-linecap:square;stroke-linejoin:miter;stroke-width:0.8;"/>
   </g>
   <g id="patch_5">
    <path d="M 57.6 315.2736 
L 414.72 315.2736 
" style="fill:none;stroke:#000000;stroke-linecap:square;stroke-linejoin:miter;stroke-width:0.8;"/>
   </g>
   <g id="patch_6">
    <path d="M 57.6 42.5088 
L 414.72 42.5088 
" style="fill:none;stroke:#000000;stroke-linecap:square;stroke-linejoin:miter;stroke-width:0.8;"/>
   </g>
   <g id="legend_1">
    <g id="patch_7">
     <path d="M 280.671562 78.916612 
L 407.72 78.916612 
Q 409.72 78.916612 409.72 76.916612 
L 409.72 49.5088 
Q 409.72 47.5088 407.72 47.5088 
L 280.671562 47.5088 
Q 278.671562 47.5088 278.671562 49.5088 
L 278.671562 76.916612 
Q 278.671562 78.916612 280.671562 78.916612 
z
" style="fill:#ffffff;opacity:0.8;stroke:#cccccc;stroke-linejoin:miter;"/>
    </g>
    <g id="line2d_16">
     <path d="M 282.671562 55.166612 
L 302.671562 55.166612 
" style="fill:none;stroke:#ff0000;stroke-linecap:square;stroke-width:2;"/>
    </g>
    <g id="line2d_17"/>
    <g id="text_16">
     <text style="font-family:Arial;font-size:10px;font-style:normal;font-weight:normal;text-anchor:start;" transform="rotate(-0, 310.671562, 58.666612)" x="310.671562" y="58.666612">Phenotypic clustering</text>
    </g>
    <g id="LineCollection_2">
     <path d="M 292.671562 74.429112 
L 292.671562 64.429112 
" style="fill:none;stroke:#808080;stroke-width:1.5;"/>
    </g>
    <g id="line2d_18">
     <path d="M 282.671562 69.429112 
L 302.671562 69.429112 
" style="fill:none;stroke:#808080;stroke-linecap:square;stroke-width:1.5;"/>
    </g>
    <g id="line2d_19"/>
    <g id="text_17">
     <text style="font-family:Arial;font-size:10px;font-style:normal;font-weight:normal;text-anchor:start;" transform="rotate(-0, 310.671562, 72.929112)" x="310.671562" y="72.929112">Random clusters</text>
    </g>
   </g>
  </g>
 </g>
 <defs>
  <clipPath id="p0050333b12">
   <rect height="272.7648" width="357.12" x="57.6" y="42.5088"/>
  </clipPath>
 </defs>
</svg>
